<svg xmlns="http://www.w3.org/2000/svg" xmlns:xlink="http://www.w3.org/1999/xlink" width="500" zoomAndPan="magnify" viewBox="0 0 375 374.999991" height="500" preserveAspectRatio="xMidYMid meet" version="1.0"><defs><filter x="0%" y="0%" width="100%" height="100%" id="cf0176cd39"><feColorMatrix values="0 0 0 0 1 0 0 0 0 1 0 0 0 0 1 0 0 0 1 0" color-interpolation-filters="sRGB"/></filter><g/><mask id="12ce4df109"><g filter="url(#cf0176cd39)"><rect x="-37.5" width="450" fill="#000000" y="-37.499999" height="449.999989" fill-opacity="0.8"/></g></mask><clipPath id="fd2fbdc2b3"><rect x="0" width="53" y="0" height="71"/></clipPath></defs><g mask="url(#12ce4df109)"><g transform="matrix(1, 0, 0, 1, 37, 152)"><g clip-path="url(#fd2fbdc2b3)"><path fill="#2e2a2b" d="M 50.96875 68.496094 C 50.957031 68.003906 50.945312 67.738281 50.945312 67.738281 C 50.46875 62.210938 46.058594 57.667969 40.460938 57.332031 C 40.214844 57.316406 39.972656 57.308594 39.726562 57.308594 L 35.761719 57.308594 L 35.761719 47.628906 L 26.304688 47.628906 L 26.304688 57.308594 L 21.296875 57.308594 C 21.058594 57.308594 20.820312 57.316406 20.582031 57.328125 C 14.953125 57.660156 10.535156 62.257812 10.089844 67.816406 L 10.0625 68.496094 L 50.96875 68.496094 " fill-opacity="1" fill-rule="nonzero"/><path stroke-linecap="round" transform="matrix(0.0333871, 0, 0, -0.0330223, -44.237058, 105.793206)" fill="none" stroke-linejoin="round" d="M 2851.575083 1129.453269 C 2851.224087 1144.357983 2850.87309 1152.401797 2850.87309 1152.401797 C 2836.599237 1319.784097 2704.507594 1457.356969 2536.848315 1467.530028 C 2529.477391 1468.003193 2522.223466 1468.239776 2514.852541 1468.239776 L 2396.098761 1468.239776 L 2396.098761 1761.36581 L 2112.84467 1761.36581 L 2112.84467 1468.239776 L 1962.85221 1468.239776 C 1955.715283 1468.239776 1948.578357 1468.003193 1941.558429 1467.648319 C 1772.846161 1457.593552 1640.52052 1318.3646 1627.182657 1150.035969 L 1626.363666 1129.453269 Z M 2851.575083 1129.453269 " stroke="#ffffff" stroke-width="17.909" stroke-opacity="1" stroke-miterlimit="10"/><path fill="#2e2a2b" d="M 44.042969 27.558594 C 44.042969 20.269531 38.507812 16.269531 30.90625 16.269531 C 30.785156 16.269531 30.664062 16.273438 30.539062 16.273438 C 30.417969 16.273438 30.296875 16.269531 30.175781 16.269531 C 22.570312 16.269531 17.039062 20.269531 17.039062 27.558594 C 17.039062 30.714844 17.683594 41.371094 18.949219 43.871094 C 19.820312 45.589844 21.371094 47.179688 23.730469 49.289062 C 27.148438 52.351562 30.421875 54.101562 34.441406 51.53125 C 37.988281 49.261719 41.28125 45.589844 42.152344 43.871094 C 43.414062 41.371094 44.042969 30.714844 44.042969 27.558594 " fill-opacity="1" fill-rule="nonzero"/><path stroke-linecap="round" transform="matrix(0.0333871, 0, 0, -0.0330223, -44.237058, 105.793206)" fill="none" stroke-linejoin="round" d="M 2644.136214 2369.14691 C 2644.136214 2589.878622 2478.348916 2711.008993 2250.669254 2711.008993 C 2247.042292 2711.008993 2243.415329 2710.890701 2239.671367 2710.890701 C 2236.044405 2710.890701 2232.417442 2711.008993 2228.790479 2711.008993 C 2000.993818 2711.008993 1835.32352 2589.878622 1835.32352 2369.14691 C 1835.32352 2273.567477 1854.628322 1950.868598 1892.535932 1875.162116 C 1918.626664 1823.11391 1965.075187 1774.969319 2035.742462 1711.091975 C 2138.11641 1618.351534 2236.161403 1565.356997 2356.553167 1643.192724 C 2462.788076 1711.920014 2561.418063 1823.11391 2587.508795 1875.162116 C 2625.299407 1950.868598 2644.136214 2273.567477 2644.136214 2369.14691 Z M 2644.136214 2369.14691 " stroke="#ffffff" stroke-width="17.909" stroke-opacity="1" stroke-miterlimit="10"/><path fill="#2e2a2b" d="M 17.5 37.558594 C 17.5 37.558594 9.191406 30.234375 11.128906 20.976562 C 12.558594 14.152344 18.027344 10.386719 22.070312 8.273438 C 23.539062 7.503906 24.78125 6.375 25.886719 5.214844 C 28.882812 2.074219 33.601562 1.214844 37.492188 3.179688 C 41.3125 5.105469 45.699219 8.417969 47.753906 13.917969 C 52.351562 26.21875 43.601562 36.699219 43.601562 36.699219 C 43.601562 36.699219 42.28125 25.445312 32.058594 24.035156 C 32.058594 24.035156 25.398438 30.617188 20.402344 32.5 C 16.847656 33.835938 17.5 37.558594 17.5 37.558594 " fill-opacity="1" fill-rule="nonzero"/><path stroke-linecap="round" transform="matrix(0.0333871, 0, 0, -0.0330223, -44.237058, 105.793206)" fill="none" stroke-linejoin="round" d="M 1849.129378 2066.320983 C 1849.129378 2066.320983 1600.272934 2288.117316 1658.304338 2568.467882 C 1701.125898 2775.122919 1864.924216 2889.155808 1986.017972 2953.151443 C 2030.00952 2976.454845 2067.215138 3010.641053 2100.325798 3045.773592 C 2190.063877 3140.87986 2331.398425 3166.903963 2447.929229 3107.4034 C 2562.354053 3049.085751 2693.743704 2948.774662 2755.285072 2782.220402 C 2892.992658 2409.720853 2630.915349 2092.345086 2630.915349 2092.345086 C 2630.915349 2092.345086 2591.369755 2433.142546 2285.1839 2475.845733 C 2285.1839 2475.845733 2085.700948 2276.524761 1936.059485 2219.508317 C 1829.590579 2179.052666 1849.129378 2066.320983 1849.129378 2066.320983 Z M 1849.129378 2066.320983 " stroke="#ffffff" stroke-width="17.909" stroke-opacity="1" stroke-miterlimit="10"/><path stroke-linecap="round" transform="matrix(0.0333871, 0, 0, -0.0330223, -44.237058, 105.793206)" fill-opacity="1" fill="#2e2a2b" fill-rule="nonzero" stroke-linejoin="round" d="M 2285.1839 2475.845733 C 2285.1839 2475.845733 2406.160657 2589.878622 2470.392998 2803.631141 " stroke="#ffffff" stroke-width="17.909" stroke-opacity="1" stroke-miterlimit="10"/><path stroke-linecap="round" transform="matrix(0.0333871, 0, 0, -0.0330223, -44.237058, 105.793206)" fill-opacity="1" fill="#2e2a2b" fill-rule="nonzero" stroke-linejoin="round" d="M 1986.017972 2953.151443 C 1986.017972 2953.151443 2171.22707 2981.659665 2285.1839 3052.871075 " stroke="#ffffff" stroke-width="17.909" stroke-opacity="1" stroke-miterlimit="10"/><path stroke-linecap="round" transform="matrix(0.0333871, 0, 0, -0.0330223, -44.237058, 105.793206)" fill-opacity="1" fill="#2e2a2b" fill-rule="nonzero" stroke-linejoin="round" d="M 1702.646882 2257.953015 C 1702.646882 2257.953015 1665.558263 2433.142546 1836.376509 2547.175434 " stroke="#ffffff" stroke-width="17.909" stroke-opacity="1" stroke-miterlimit="10"/><path stroke-linecap="round" transform="matrix(0.0333871, 0, 0, -0.0330223, -44.237058, 105.793206)" fill-opacity="1" fill="#2e2a2b" fill-rule="nonzero" stroke-linejoin="round" d="M 2085.700948 2711.008993 C 2085.700948 2711.008993 2256.753192 2746.614697 2327.888461 2874.842551 " stroke="#ffffff" stroke-width="17.909" stroke-opacity="1" stroke-miterlimit="10"/><path stroke-linecap="round" transform="matrix(0.0333871, 0, 0, -0.0330223, -44.237058, 105.793206)" fill-opacity="1" fill="#2e2a2b" fill-rule="nonzero" stroke-linejoin="round" d="M 2765.814964 2386.29916 C 2765.814964 2386.29916 2782.194796 2543.153527 2653.964113 2621.462419 " stroke="#ffffff" stroke-width="17.909" stroke-opacity="1" stroke-miterlimit="10"/><path fill="#2e2a2b" d="M 8.335938 54.414062 C 10.234375 55.117188 12.132812 58.167969 11.644531 59.46875 C 11.152344 60.765625 7.792969 61.570312 5.898438 60.867188 C 4.003906 60.167969 1.417969 57.199219 1.910156 55.898438 C 2.402344 54.59375 6.445312 53.714844 8.335938 54.414062 " fill-opacity="1" fill-rule="nonzero"/><path stroke-linecap="round" transform="matrix(0.0333871, 0, 0, -0.0330223, -44.237058, 105.793206)" fill="none" stroke-linejoin="round" d="M 1574.650197 1555.893687 C 1631.511613 1534.601239 1688.373029 1442.215673 1673.748179 1402.824644 C 1659.006331 1363.551906 1558.387364 1339.183882 1501.642947 1360.476331 C 1444.898529 1381.650487 1367.445325 1471.551934 1382.187173 1510.942963 C 1396.929022 1550.452284 1518.022778 1577.067844 1574.650197 1555.893687 Z M 1574.650197 1555.893687 " stroke="#ffffff" stroke-width="22.174999" stroke-opacity="1" stroke-miterlimit="10"/><path fill="#2e2a2b" d="M 6.566406 61.539062 C 7.921875 60.054688 11.488281 59.429688 12.53125 60.359375 C 13.574219 61.289062 13.089844 64.675781 11.734375 66.160156 C 10.375 67.644531 6.613281 69.25 5.574219 68.320312 C 4.53125 67.386719 5.207031 63.027344 6.566406 61.539062 " fill-opacity="1" fill-rule="nonzero"/><path stroke-linecap="round" transform="matrix(0.0333871, 0, 0, -0.0330223, -44.237058, 105.793206)" fill="none" stroke-linejoin="round" d="M 1521.649741 1340.130214 C 1562.248324 1385.080937 1669.068227 1404.007558 1700.306906 1375.85421 C 1731.545586 1347.700862 1717.037735 1245.142237 1676.439151 1200.191513 C 1635.72357 1155.24079 1523.053727 1106.623033 1491.932046 1134.776381 C 1460.693367 1163.048021 1480.934159 1295.061199 1521.649741 1340.130214 Z M 1521.649741 1340.130214 " stroke="#ffffff" stroke-width="22.174999" stroke-opacity="1" stroke-miterlimit="10"/><path fill="#2e2a2b" d="M 13.625 66.3125 C 12.285156 64.816406 12.046875 61.234375 13.097656 60.316406 C 14.148438 59.398438 17.492188 60.242188 18.835938 61.738281 C 20.179688 63.234375 21.273438 67.398438 20.226562 68.320312 C 19.179688 69.242188 14.96875 67.808594 13.625 66.3125 " fill-opacity="1" fill-rule="nonzero"/><path stroke-linecap="round" transform="matrix(0.0333871, 0, 0, -0.0330223, -44.237058, 105.793206)" fill="none" stroke-linejoin="round" d="M 1733.06657 1195.57815 C 1692.935982 1240.883747 1685.799055 1349.356941 1717.271732 1377.155415 C 1748.744409 1404.953889 1848.89538 1379.402951 1889.142967 1334.097353 C 1929.390554 1288.791755 1962.150217 1162.693147 1930.794539 1134.776381 C 1899.438861 1106.859616 1773.314157 1150.272552 1733.06657 1195.57815 Z M 1733.06657 1195.57815 " stroke="#ffffff" stroke-width="22.174999" stroke-opacity="1" stroke-miterlimit="10"/><path fill="#2e2a2b" d="M 17.15625 54.414062 C 15.257812 55.117188 13.359375 58.167969 13.851562 59.46875 C 14.339844 60.765625 17.703125 61.570312 19.597656 60.867188 C 21.492188 60.167969 23.839844 57.253906 23.347656 55.957031 C 22.859375 54.660156 19.050781 53.714844 17.15625 54.414062 " fill-opacity="1" fill-rule="nonzero"/><path stroke-linecap="round" transform="matrix(0.0333871, 0, 0, -0.0330223, -44.237058, 105.793206)" fill="none" stroke-linejoin="round" d="M 1838.833484 1555.893687 C 1781.972068 1534.601239 1725.110652 1442.215673 1739.8525 1402.824644 C 1754.47735 1363.551906 1855.213316 1339.183882 1911.957733 1360.476331 C 1968.70215 1381.650487 2039.018428 1469.895855 2024.276579 1509.168593 C 2009.651729 1548.44133 1895.577901 1577.067844 1838.833484 1555.893687 Z M 1838.833484 1555.893687 " stroke="#ffffff" stroke-width="22.174999" stroke-opacity="1" stroke-miterlimit="10"/><path fill="#2e2a2b" d="M 16.175781 53.484375 C 16.175781 55.488281 13.949219 58.316406 12.546875 58.316406 C 11.144531 58.316406 9.210938 55.488281 9.210938 53.484375 C 9.210938 51.484375 11.183594 47.757812 12.585938 47.757812 C 13.988281 47.757812 16.175781 51.484375 16.175781 53.484375 " fill-opacity="1" fill-rule="nonzero"/><path stroke-linecap="round" transform="matrix(0.0333871, 0, 0, -0.0330223, -44.237058, 105.793206)" fill="none" stroke-linejoin="round" d="M 1809.466785 1584.047035 C 1809.466785 1523.363558 1742.77747 1437.7206 1700.774902 1437.7206 C 1658.772333 1437.7206 1600.857928 1523.363558 1600.857928 1584.047035 C 1600.857928 1644.61222 1659.942321 1757.462195 1701.94489 1757.462195 C 1743.947458 1757.462195 1809.466785 1644.61222 1809.466785 1584.047035 Z M 1809.466785 1584.047035 " stroke="#ffffff" stroke-width="22.174999" stroke-opacity="1" stroke-miterlimit="10"/><path fill="#2e2a2b" d="M 15.253906 59.246094 C 15.253906 60.640625 14.105469 61.769531 12.695312 61.769531 C 11.28125 61.769531 10.136719 60.640625 10.136719 59.246094 C 10.136719 57.847656 11.28125 56.714844 12.695312 56.714844 C 14.105469 56.714844 15.253906 57.847656 15.253906 59.246094 " fill-opacity="1" fill-rule="nonzero"/><path stroke-linecap="round" transform="matrix(0.0333871, 0, 0, -0.0330223, -44.237058, 105.793206)" fill="none" stroke-linejoin="round" d="M 1781.855069 1409.567252 C 1781.855069 1367.33723 1747.457422 1333.151022 1705.220856 1333.151022 C 1662.867291 1333.151022 1628.586643 1367.33723 1628.586643 1409.567252 C 1628.586643 1451.915566 1662.867291 1486.220065 1705.220856 1486.220065 C 1747.457422 1486.220065 1781.855069 1451.915566 1781.855069 1409.567252 Z M 1781.855069 1409.567252 " stroke="#ffffff" stroke-width="22.174999" stroke-opacity="1" stroke-miterlimit="10"/></g></g></g><g fill="#695125" fill-opacity="1"><g transform="translate(99.882692, 192.602536)"><g><path d="M 1.46875 -13.65625 L 4.203125 -13.65625 L 4.203125 0 L 1.46875 0 Z M 1.46875 -13.65625 "/></g></g></g><g fill="#695125" fill-opacity="1"><g transform="translate(106.322049, 192.602536)"><g><path d="M 1.46875 -13.65625 L 3.90625 -13.65625 L 11.3125 -3.8125 L 11.421875 -3.8125 L 11.421875 -13.65625 L 13.171875 -13.65625 L 13.171875 0 L 10.734375 0 L 3.3125 -9.859375 L 3.21875 -9.859375 L 3.21875 0 L 1.46875 0 Z M 1.46875 -13.65625 "/></g></g></g><g fill="#695125" fill-opacity="1"><g transform="translate(121.736767, 192.602536)"><g><path d="M 1.46875 -13.65625 L 3.90625 -13.65625 L 11.3125 -3.8125 L 11.421875 -3.8125 L 11.421875 -13.65625 L 13.171875 -13.65625 L 13.171875 0 L 10.734375 0 L 3.3125 -9.859375 L 3.21875 -9.859375 L 3.21875 0 L 1.46875 0 Z M 1.46875 -13.65625 "/></g></g></g><g fill="#695125" fill-opacity="1"><g transform="translate(137.151486, 192.602536)"><g><path d="M 1.46875 -13.65625 L 11.609375 -13.65625 L 11.3125 -12 L 4.203125 -12 L 4.203125 -7.90625 L 9.46875 -7.90625 L 9.171875 -6.25 L 4.203125 -6.25 L 4.203125 -1.65625 L 11.90625 -1.65625 L 11.90625 0 L 1.46875 0 Z M 1.46875 -13.65625 "/></g></g></g><g fill="#695125" fill-opacity="1"><g transform="translate(150.322362, 192.602536)"><g><path d="M 1.46875 -13.65625 L 6.4375 -13.65625 C 7.414062 -13.65625 8.269531 -13.539062 9 -13.3125 C 9.726562 -13.09375 10.332031 -12.78125 10.8125 -12.375 C 11.300781 -11.976562 11.671875 -11.515625 11.921875 -10.984375 C 12.171875 -10.453125 12.296875 -9.878906 12.296875 -9.265625 C 12.296875 -8.554688 12.148438 -7.972656 11.859375 -7.515625 C 11.578125 -7.066406 11.265625 -6.710938 10.921875 -6.453125 C 10.523438 -6.140625 10.070312 -5.90625 9.5625 -5.75 L 9.5625 -5.65625 L 13.46875 0 L 10.4375 0 L 7.0625 -4.96875 L 4.203125 -4.96875 L 4.203125 0 L 1.46875 0 Z M 6.4375 -6.53125 C 6.882812 -6.53125 7.285156 -6.597656 7.640625 -6.734375 C 7.992188 -6.878906 8.296875 -7.070312 8.546875 -7.3125 C 8.804688 -7.5625 9.007812 -7.851562 9.15625 -8.1875 C 9.300781 -8.519531 9.375 -8.878906 9.375 -9.265625 C 9.375 -9.660156 9.300781 -10.019531 9.15625 -10.34375 C 9.007812 -10.675781 8.804688 -10.96875 8.546875 -11.21875 C 8.296875 -11.46875 7.992188 -11.660156 7.640625 -11.796875 C 7.285156 -11.929688 6.882812 -12 6.4375 -12 L 4.203125 -12 L 4.203125 -6.53125 Z M 6.4375 -6.53125 "/></g></g></g><g fill="#695125" fill-opacity="1"><g transform="translate(164.761497, 192.602536)"><g/></g></g><g fill="#695125" fill-opacity="1"><g transform="translate(170.61551, 192.602536)"><g><path d="M 1.46875 -13.65625 L 6.4375 -13.65625 C 7.332031 -13.65625 8.109375 -13.5625 8.765625 -13.375 C 9.421875 -13.195312 9.957031 -12.945312 10.375 -12.625 C 10.789062 -12.300781 11.097656 -11.914062 11.296875 -11.46875 C 11.503906 -11.03125 11.609375 -10.554688 11.609375 -10.046875 C 11.609375 -9.523438 11.476562 -9.101562 11.21875 -8.78125 C 10.957031 -8.457031 10.675781 -8.203125 10.375 -8.015625 C 10.03125 -7.796875 9.628906 -7.628906 9.171875 -7.515625 L 9.171875 -7.421875 C 9.847656 -7.316406 10.445312 -7.125 10.96875 -6.84375 C 11.1875 -6.726562 11.40625 -6.585938 11.625 -6.421875 C 11.851562 -6.265625 12.050781 -6.070312 12.21875 -5.84375 C 12.382812 -5.613281 12.519531 -5.351562 12.625 -5.0625 C 12.726562 -4.78125 12.78125 -4.457031 12.78125 -4.09375 C 12.78125 -3.539062 12.660156 -3.007812 12.421875 -2.5 C 12.191406 -2 11.84375 -1.5625 11.375 -1.1875 C 10.90625 -0.820312 10.316406 -0.53125 9.609375 -0.3125 C 8.898438 -0.101562 8.070312 0 7.125 0 L 1.46875 0 Z M 7.125 -1.65625 C 7.539062 -1.65625 7.914062 -1.71875 8.25 -1.84375 C 8.59375 -1.96875 8.882812 -2.140625 9.125 -2.359375 C 9.363281 -2.578125 9.546875 -2.835938 9.671875 -3.140625 C 9.804688 -3.441406 9.875 -3.757812 9.875 -4.09375 C 9.875 -4.4375 9.804688 -4.753906 9.671875 -5.046875 C 9.546875 -5.347656 9.363281 -5.609375 9.125 -5.828125 C 8.882812 -6.054688 8.59375 -6.226562 8.25 -6.34375 C 7.914062 -6.46875 7.539062 -6.53125 7.125 -6.53125 L 4.203125 -6.53125 L 4.203125 -1.65625 Z M 6.4375 -8.09375 C 7.175781 -8.09375 7.734375 -8.269531 8.109375 -8.625 C 8.492188 -8.988281 8.6875 -9.460938 8.6875 -10.046875 C 8.6875 -10.628906 8.492188 -11.097656 8.109375 -11.453125 C 7.734375 -11.816406 7.175781 -12 6.4375 -12 L 4.203125 -12 L 4.203125 -8.09375 Z M 6.4375 -8.09375 "/></g></g></g><g fill="#695125" fill-opacity="1"><g transform="translate(184.859529, 192.602536)"><g><path d="M 1.46875 -13.65625 L 11.609375 -13.65625 L 11.3125 -12 L 4.203125 -12 L 4.203125 -7.90625 L 9.46875 -7.90625 L 9.171875 -6.25 L 4.203125 -6.25 L 4.203125 -1.65625 L 11.90625 -1.65625 L 11.90625 0 L 1.46875 0 Z M 1.46875 -13.65625 "/></g></g></g><g fill="#695125" fill-opacity="1"><g transform="translate(198.030408, 192.602536)"><g><path d="M 5.859375 -13.65625 L 8.203125 -13.65625 L 13.65625 0 L 10.734375 0 L 9.46875 -3.125 L 3.421875 -3.125 L 2.140625 0 L 0.1875 0 Z M 8.875 -4.78125 L 6.53125 -10.640625 L 6.4375 -10.640625 L 4.09375 -4.78125 Z M 8.875 -4.78125 "/></g></g></g><g fill="#695125" fill-opacity="1"><g transform="translate(212.664665, 192.602536)"><g><path d="M 7.21875 0.390625 C 6.363281 0.390625 5.582031 0.253906 4.875 -0.015625 C 4.175781 -0.285156 3.570312 -0.664062 3.0625 -1.15625 C 2.550781 -1.644531 2.15625 -2.222656 1.875 -2.890625 C 1.601562 -3.566406 1.46875 -4.296875 1.46875 -5.078125 L 1.46875 -13.65625 L 4.203125 -13.65625 L 4.203125 -5.078125 C 4.203125 -4.492188 4.289062 -3.957031 4.46875 -3.46875 C 4.65625 -2.988281 4.90625 -2.578125 5.21875 -2.234375 C 5.539062 -1.898438 5.910156 -1.640625 6.328125 -1.453125 C 6.753906 -1.265625 7.210938 -1.171875 7.703125 -1.171875 C 8.191406 -1.171875 8.648438 -1.265625 9.078125 -1.453125 C 9.503906 -1.640625 9.875 -1.898438 10.1875 -2.234375 C 10.507812 -2.578125 10.757812 -2.988281 10.9375 -3.46875 C 11.125 -3.957031 11.21875 -4.492188 11.21875 -5.078125 L 11.21875 -13.65625 L 12.984375 -13.65625 L 12.984375 -5.078125 C 12.984375 -4.296875 12.84375 -3.566406 12.5625 -2.890625 C 12.28125 -2.222656 11.882812 -1.644531 11.375 -1.15625 C 10.863281 -0.664062 10.257812 -0.285156 9.5625 -0.015625 C 8.863281 0.253906 8.082031 0.390625 7.21875 0.390625 Z M 7.21875 0.390625 "/></g></g></g><g fill="#695125" fill-opacity="1"><g transform="translate(227.884264, 192.602536)"><g><path d="M 4.6875 -12 L 0.1875 -12 L 0.1875 -13.65625 L 11.90625 -13.65625 L 11.609375 -12 L 7.421875 -12 L 7.421875 0 L 4.6875 0 Z M 4.6875 -12 "/></g></g></g><g fill="#695125" fill-opacity="1"><g transform="translate(240.762472, 192.602536)"><g><path d="M 5.078125 -4.484375 L 0 -13.65625 L 3.125 -13.65625 L 6.921875 -6.640625 L 7.03125 -6.640625 L 10.828125 -13.65625 L 12.78125 -13.65625 L 7.8125 -4.484375 L 7.8125 0 L 5.078125 0 Z M 5.078125 -4.484375 "/></g></g></g><g fill="#695125" fill-opacity="1"><g transform="translate(254.323582, 192.602536)"><g/></g></g><g fill="#695125" fill-opacity="1"><g transform="translate(260.177601, 192.602536)"><g><path d="M 6.046875 0.390625 C 5.035156 0.390625 4.171875 0.234375 3.453125 -0.078125 C 2.734375 -0.390625 2.140625 -0.734375 1.671875 -1.109375 C 1.128906 -1.554688 0.671875 -2.066406 0.296875 -2.640625 L 1.171875 -3.515625 C 1.492188 -3.066406 1.878906 -2.675781 2.328125 -2.34375 C 2.703125 -2.039062 3.164062 -1.769531 3.71875 -1.53125 C 4.269531 -1.289062 4.914062 -1.171875 5.65625 -1.171875 C 6.632812 -1.171875 7.382812 -1.414062 7.90625 -1.90625 C 8.425781 -2.394531 8.6875 -3.03125 8.6875 -3.8125 C 8.6875 -4.207031 8.5 -4.539062 8.125 -4.8125 C 7.757812 -5.09375 7.296875 -5.347656 6.734375 -5.578125 C 6.171875 -5.816406 5.566406 -6.054688 4.921875 -6.296875 C 4.285156 -6.546875 3.6875 -6.847656 3.125 -7.203125 C 2.5625 -7.554688 2.09375 -7.976562 1.71875 -8.46875 C 1.351562 -8.96875 1.171875 -9.59375 1.171875 -10.34375 C 1.171875 -10.8125 1.285156 -11.265625 1.515625 -11.703125 C 1.742188 -12.148438 2.070312 -12.546875 2.5 -12.890625 C 2.925781 -13.234375 3.453125 -13.507812 4.078125 -13.71875 C 4.710938 -13.9375 5.4375 -14.046875 6.25 -14.046875 C 7.101562 -14.046875 7.851562 -13.910156 8.5 -13.640625 C 9.144531 -13.367188 9.679688 -13.0625 10.109375 -12.71875 C 10.617188 -12.332031 11.054688 -11.898438 11.421875 -11.421875 L 10.53125 -10.640625 C 10.207031 -10.972656 9.835938 -11.273438 9.421875 -11.546875 C 9.078125 -11.785156 8.664062 -12 8.1875 -12.1875 C 7.707031 -12.382812 7.191406 -12.484375 6.640625 -12.484375 C 5.859375 -12.484375 5.238281 -12.269531 4.78125 -11.84375 C 4.320312 -11.425781 4.09375 -10.925781 4.09375 -10.34375 C 4.09375 -9.914062 4.273438 -9.5625 4.640625 -9.28125 C 5.015625 -9.007812 5.484375 -8.753906 6.046875 -8.515625 C 6.609375 -8.273438 7.210938 -8.035156 7.859375 -7.796875 C 8.503906 -7.566406 9.101562 -7.28125 9.65625 -6.9375 C 10.21875 -6.59375 10.679688 -6.171875 11.046875 -5.671875 C 11.421875 -5.171875 11.609375 -4.550781 11.609375 -3.8125 C 11.609375 -3.269531 11.484375 -2.742188 11.234375 -2.234375 C 10.992188 -1.734375 10.628906 -1.285156 10.140625 -0.890625 C 9.660156 -0.503906 9.078125 -0.195312 8.390625 0.03125 C 7.703125 0.269531 6.921875 0.390625 6.046875 0.390625 Z M 6.046875 0.390625 "/></g></g></g><g fill="#695125" fill-opacity="1"><g transform="translate(273.250918, 192.602536)"><g><path d="M 1.46875 -13.65625 L 6.828125 -13.65625 C 7.773438 -13.65625 8.609375 -13.539062 9.328125 -13.3125 C 10.054688 -13.09375 10.660156 -12.78125 11.140625 -12.375 C 11.617188 -11.96875 11.976562 -11.488281 12.21875 -10.9375 C 12.46875 -10.394531 12.59375 -9.804688 12.59375 -9.171875 C 12.59375 -8.523438 12.46875 -7.925781 12.21875 -7.375 C 11.976562 -6.832031 11.617188 -6.359375 11.140625 -5.953125 C 10.660156 -5.554688 10.054688 -5.242188 9.328125 -5.015625 C 8.609375 -4.796875 7.773438 -4.6875 6.828125 -4.6875 L 4.203125 -4.6875 L 4.203125 0 L 1.46875 0 Z M 6.828125 -6.34375 C 7.242188 -6.34375 7.625 -6.410156 7.96875 -6.546875 C 8.3125 -6.679688 8.609375 -6.875 8.859375 -7.125 C 9.117188 -7.382812 9.316406 -7.6875 9.453125 -8.03125 C 9.585938 -8.375 9.65625 -8.753906 9.65625 -9.171875 C 9.65625 -9.585938 9.585938 -9.96875 9.453125 -10.3125 C 9.316406 -10.65625 9.117188 -10.953125 8.859375 -11.203125 C 8.609375 -11.460938 8.3125 -11.660156 7.96875 -11.796875 C 7.625 -11.929688 7.242188 -12 6.828125 -12 L 4.203125 -12 L 4.203125 -6.34375 Z M 6.828125 -6.34375 "/></g></g></g><g fill="#695125" fill-opacity="1"><g transform="translate(287.299822, 192.602536)"><g><path d="M 5.859375 -13.65625 L 8.203125 -13.65625 L 13.65625 0 L 10.734375 0 L 9.46875 -3.125 L 3.421875 -3.125 L 2.140625 0 L 0.1875 0 Z M 8.875 -4.78125 L 6.53125 -10.640625 L 6.4375 -10.640625 L 4.09375 -4.78125 Z M 8.875 -4.78125 "/></g></g></g><g fill="#695125" fill-opacity="1"><g transform="translate(100.511071, 206.576691)"><g><path d="M 7.671875 0 L 7.65625 -5.1875 L 5.09375 -0.859375 L 4.625 -0.859375 L 2.046875 -5.15625 L 2.046875 0 L 1.0625 0 L 1.0625 -7.125 L 1.90625 -7.125 L 4.875 -2.109375 L 7.796875 -7.125 L 8.640625 -7.125 L 8.640625 0 Z M 7.671875 0 "/></g></g></g><g fill="#695125" fill-opacity="1"><g transform="translate(111.32464, 206.576691)"><g><path d="M 5.609375 -1.78125 L 1.828125 -1.78125 L 1.03125 0 L -0.015625 0 L 3.21875 -7.125 L 4.21875 -7.125 L 7.453125 0 L 6.390625 0 Z M 5.25 -2.59375 L 3.71875 -6.078125 L 2.171875 -2.59375 Z M 5.25 -2.59375 "/></g></g></g><g fill="#695125" fill-opacity="1"><g transform="translate(119.869887, 206.576691)"><g><path d="M 3.140625 0.078125 C 2.609375 0.078125 2.09375 -0.00390625 1.59375 -0.171875 C 1.09375 -0.335938 0.703125 -0.550781 0.421875 -0.8125 L 0.796875 -1.609375 C 1.066406 -1.359375 1.410156 -1.15625 1.828125 -1 C 2.253906 -0.851562 2.691406 -0.78125 3.140625 -0.78125 C 3.734375 -0.78125 4.175781 -0.878906 4.46875 -1.078125 C 4.757812 -1.285156 4.90625 -1.550781 4.90625 -1.875 C 4.90625 -2.125 4.820312 -2.320312 4.65625 -2.46875 C 4.5 -2.625 4.300781 -2.742188 4.0625 -2.828125 C 3.832031 -2.910156 3.503906 -3.003906 3.078125 -3.109375 C 2.546875 -3.234375 2.113281 -3.359375 1.78125 -3.484375 C 1.457031 -3.617188 1.175781 -3.816406 0.9375 -4.078125 C 0.707031 -4.347656 0.59375 -4.710938 0.59375 -5.171875 C 0.59375 -5.546875 0.691406 -5.882812 0.890625 -6.1875 C 1.085938 -6.5 1.390625 -6.742188 1.796875 -6.921875 C 2.203125 -7.109375 2.707031 -7.203125 3.3125 -7.203125 C 3.738281 -7.203125 4.15625 -7.144531 4.5625 -7.03125 C 4.96875 -6.925781 5.316406 -6.773438 5.609375 -6.578125 L 5.265625 -5.75 C 4.972656 -5.945312 4.65625 -6.09375 4.3125 -6.1875 C 3.96875 -6.289062 3.632812 -6.34375 3.3125 -6.34375 C 2.738281 -6.34375 2.304688 -6.234375 2.015625 -6.015625 C 1.734375 -5.804688 1.59375 -5.535156 1.59375 -5.203125 C 1.59375 -4.960938 1.671875 -4.765625 1.828125 -4.609375 C 1.992188 -4.460938 2.195312 -4.34375 2.4375 -4.25 C 2.675781 -4.164062 3.003906 -4.078125 3.421875 -3.984375 C 3.953125 -3.859375 4.378906 -3.726562 4.703125 -3.59375 C 5.035156 -3.46875 5.316406 -3.269531 5.546875 -3 C 5.785156 -2.738281 5.90625 -2.382812 5.90625 -1.9375 C 5.90625 -1.570312 5.800781 -1.234375 5.59375 -0.921875 C 5.394531 -0.609375 5.085938 -0.363281 4.671875 -0.1875 C 4.253906 -0.0078125 3.742188 0.078125 3.140625 0.078125 Z M 3.140625 0.078125 "/></g></g></g><g fill="#695125" fill-opacity="1"><g transform="translate(127.286062, 206.576691)"><g><path d="M 3.140625 0.078125 C 2.609375 0.078125 2.09375 -0.00390625 1.59375 -0.171875 C 1.09375 -0.335938 0.703125 -0.550781 0.421875 -0.8125 L 0.796875 -1.609375 C 1.066406 -1.359375 1.410156 -1.15625 1.828125 -1 C 2.253906 -0.851562 2.691406 -0.78125 3.140625 -0.78125 C 3.734375 -0.78125 4.175781 -0.878906 4.46875 -1.078125 C 4.757812 -1.285156 4.90625 -1.550781 4.90625 -1.875 C 4.90625 -2.125 4.820312 -2.320312 4.65625 -2.46875 C 4.5 -2.625 4.300781 -2.742188 4.0625 -2.828125 C 3.832031 -2.910156 3.503906 -3.003906 3.078125 -3.109375 C 2.546875 -3.234375 2.113281 -3.359375 1.78125 -3.484375 C 1.457031 -3.617188 1.175781 -3.816406 0.9375 -4.078125 C 0.707031 -4.347656 0.59375 -4.710938 0.59375 -5.171875 C 0.59375 -5.546875 0.691406 -5.882812 0.890625 -6.1875 C 1.085938 -6.5 1.390625 -6.742188 1.796875 -6.921875 C 2.203125 -7.109375 2.707031 -7.203125 3.3125 -7.203125 C 3.738281 -7.203125 4.15625 -7.144531 4.5625 -7.03125 C 4.96875 -6.925781 5.316406 -6.773438 5.609375 -6.578125 L 5.265625 -5.75 C 4.972656 -5.945312 4.65625 -6.09375 4.3125 -6.1875 C 3.96875 -6.289062 3.632812 -6.34375 3.3125 -6.34375 C 2.738281 -6.34375 2.304688 -6.234375 2.015625 -6.015625 C 1.734375 -5.804688 1.59375 -5.535156 1.59375 -5.203125 C 1.59375 -4.960938 1.671875 -4.765625 1.828125 -4.609375 C 1.992188 -4.460938 2.195312 -4.34375 2.4375 -4.25 C 2.675781 -4.164062 3.003906 -4.078125 3.421875 -3.984375 C 3.953125 -3.859375 4.378906 -3.726562 4.703125 -3.59375 C 5.035156 -3.46875 5.316406 -3.269531 5.546875 -3 C 5.785156 -2.738281 5.90625 -2.382812 5.90625 -1.9375 C 5.90625 -1.570312 5.800781 -1.234375 5.59375 -0.921875 C 5.394531 -0.609375 5.085938 -0.363281 4.671875 -0.1875 C 4.253906 -0.0078125 3.742188 0.078125 3.140625 0.078125 Z M 3.140625 0.078125 "/></g></g></g><g fill="#695125" fill-opacity="1"><g transform="translate(134.702233, 206.576691)"><g><path d="M 5.609375 -1.78125 L 1.828125 -1.78125 L 1.03125 0 L -0.015625 0 L 3.21875 -7.125 L 4.21875 -7.125 L 7.453125 0 L 6.390625 0 Z M 5.25 -2.59375 L 3.71875 -6.078125 L 2.171875 -2.59375 Z M 5.25 -2.59375 "/></g></g></g><g fill="#695125" fill-opacity="1"><g transform="translate(143.247479, 206.576691)"><g><path d="M 6 -3.59375 L 6.984375 -3.59375 L 6.984375 -0.828125 C 6.628906 -0.535156 6.21875 -0.3125 5.75 -0.15625 C 5.28125 0 4.789062 0.078125 4.28125 0.078125 C 3.5625 0.078125 2.910156 -0.078125 2.328125 -0.390625 C 1.753906 -0.703125 1.300781 -1.132812 0.96875 -1.6875 C 0.644531 -2.238281 0.484375 -2.863281 0.484375 -3.5625 C 0.484375 -4.25 0.644531 -4.867188 0.96875 -5.421875 C 1.300781 -5.984375 1.757812 -6.421875 2.34375 -6.734375 C 2.925781 -7.046875 3.578125 -7.203125 4.296875 -7.203125 C 4.867188 -7.203125 5.382812 -7.109375 5.84375 -6.921875 C 6.3125 -6.734375 6.707031 -6.460938 7.03125 -6.109375 L 6.40625 -5.46875 C 5.832031 -6.019531 5.144531 -6.296875 4.34375 -6.296875 C 3.800781 -6.296875 3.3125 -6.175781 2.875 -5.9375 C 2.445312 -5.707031 2.109375 -5.382812 1.859375 -4.96875 C 1.617188 -4.550781 1.5 -4.082031 1.5 -3.5625 C 1.5 -3.039062 1.617188 -2.570312 1.859375 -2.15625 C 2.109375 -1.738281 2.445312 -1.410156 2.875 -1.171875 C 3.3125 -0.941406 3.796875 -0.828125 4.328125 -0.828125 C 4.972656 -0.828125 5.53125 -0.976562 6 -1.28125 Z M 6 -3.59375 "/></g></g></g><g fill="#695125" fill-opacity="1"><g transform="translate(152.199596, 206.576691)"><g><path d="M 6.234375 -0.890625 L 6.234375 0 L 1.0625 0 L 1.0625 -7.125 L 6.09375 -7.125 L 6.09375 -6.234375 L 2.078125 -6.234375 L 2.078125 -4.046875 L 5.65625 -4.046875 L 5.65625 -3.1875 L 2.078125 -3.1875 L 2.078125 -0.890625 Z M 6.234375 -0.890625 "/></g></g></g><g fill="#695125" fill-opacity="1"><g transform="translate(160.114192, 206.576691)"><g/></g></g><g fill="#695125" fill-opacity="1"><g transform="translate(163.949885, 206.576691)"><g><path d="M 5.609375 -1.78125 L 1.828125 -1.78125 L 1.03125 0 L -0.015625 0 L 3.21875 -7.125 L 4.21875 -7.125 L 7.453125 0 L 6.390625 0 Z M 5.25 -2.59375 L 3.71875 -6.078125 L 2.171875 -2.59375 Z M 5.25 -2.59375 "/></g></g></g><g fill="#695125" fill-opacity="1"><g transform="translate(172.495131, 206.576691)"><g><path d="M 7.1875 -7.125 L 7.1875 0 L 6.359375 0 L 2.078125 -5.3125 L 2.078125 0 L 1.0625 0 L 1.0625 -7.125 L 1.90625 -7.125 L 6.171875 -1.8125 L 6.171875 -7.125 Z M 7.1875 -7.125 "/></g></g></g><g fill="#695125" fill-opacity="1"><g transform="translate(181.85412, 206.576691)"><g><path d="M 1.0625 -7.125 L 4.0625 -7.125 C 4.820312 -7.125 5.492188 -6.972656 6.078125 -6.671875 C 6.660156 -6.367188 7.109375 -5.945312 7.421875 -5.40625 C 7.742188 -4.875 7.90625 -4.257812 7.90625 -3.5625 C 7.90625 -2.863281 7.742188 -2.242188 7.421875 -1.703125 C 7.109375 -1.160156 6.660156 -0.738281 6.078125 -0.4375 C 5.492188 -0.144531 4.820312 0 4.0625 0 L 1.0625 0 Z M 4 -0.890625 C 4.582031 -0.890625 5.09375 -1 5.53125 -1.21875 C 5.96875 -1.445312 6.300781 -1.757812 6.53125 -2.15625 C 6.769531 -2.5625 6.890625 -3.03125 6.890625 -3.5625 C 6.890625 -4.09375 6.769531 -4.554688 6.53125 -4.953125 C 6.300781 -5.359375 5.96875 -5.671875 5.53125 -5.890625 C 5.09375 -6.117188 4.582031 -6.234375 4 -6.234375 L 2.078125 -6.234375 L 2.078125 -0.890625 Z M 4 -0.890625 "/></g></g></g><g fill="#695125" fill-opacity="1"><g transform="translate(191.355519, 206.576691)"><g/></g></g><g fill="#695125" fill-opacity="1"><g transform="translate(195.191212, 206.576691)"><g><path d="M 3.140625 0.078125 C 2.609375 0.078125 2.09375 -0.00390625 1.59375 -0.171875 C 1.09375 -0.335938 0.703125 -0.550781 0.421875 -0.8125 L 0.796875 -1.609375 C 1.066406 -1.359375 1.410156 -1.15625 1.828125 -1 C 2.253906 -0.851562 2.691406 -0.78125 3.140625 -0.78125 C 3.734375 -0.78125 4.175781 -0.878906 4.46875 -1.078125 C 4.757812 -1.285156 4.90625 -1.550781 4.90625 -1.875 C 4.90625 -2.125 4.820312 -2.320312 4.65625 -2.46875 C 4.5 -2.625 4.300781 -2.742188 4.0625 -2.828125 C 3.832031 -2.910156 3.503906 -3.003906 3.078125 -3.109375 C 2.546875 -3.234375 2.113281 -3.359375 1.78125 -3.484375 C 1.457031 -3.617188 1.175781 -3.816406 0.9375 -4.078125 C 0.707031 -4.347656 0.59375 -4.710938 0.59375 -5.171875 C 0.59375 -5.546875 0.691406 -5.882812 0.890625 -6.1875 C 1.085938 -6.5 1.390625 -6.742188 1.796875 -6.921875 C 2.203125 -7.109375 2.707031 -7.203125 3.3125 -7.203125 C 3.738281 -7.203125 4.15625 -7.144531 4.5625 -7.03125 C 4.96875 -6.925781 5.316406 -6.773438 5.609375 -6.578125 L 5.265625 -5.75 C 4.972656 -5.945312 4.65625 -6.09375 4.3125 -6.1875 C 3.96875 -6.289062 3.632812 -6.34375 3.3125 -6.34375 C 2.738281 -6.34375 2.304688 -6.234375 2.015625 -6.015625 C 1.734375 -5.804688 1.59375 -5.535156 1.59375 -5.203125 C 1.59375 -4.960938 1.671875 -4.765625 1.828125 -4.609375 C 1.992188 -4.460938 2.195312 -4.34375 2.4375 -4.25 C 2.675781 -4.164062 3.003906 -4.078125 3.421875 -3.984375 C 3.953125 -3.859375 4.378906 -3.726562 4.703125 -3.59375 C 5.035156 -3.46875 5.316406 -3.269531 5.546875 -3 C 5.785156 -2.738281 5.90625 -2.382812 5.90625 -1.9375 C 5.90625 -1.570312 5.800781 -1.234375 5.59375 -0.921875 C 5.394531 -0.609375 5.085938 -0.363281 4.671875 -0.1875 C 4.253906 -0.0078125 3.742188 0.078125 3.140625 0.078125 Z M 3.140625 0.078125 "/></g></g></g><g fill="#695125" fill-opacity="1"><g transform="translate(202.60739, 206.576691)"><g><path d="M 3.390625 -3.15625 L 2.078125 -1.84375 L 2.078125 0 L 1.0625 0 L 1.0625 -7.125 L 2.078125 -7.125 L 2.078125 -3.140625 L 5.953125 -7.125 L 7.109375 -7.125 L 4.0625 -3.921875 L 7.296875 0 L 6.109375 0 Z M 3.390625 -3.15625 "/></g></g></g><g fill="#695125" fill-opacity="1"><g transform="translate(211.020399, 206.576691)"><g><path d="M 1.0625 -7.125 L 2.078125 -7.125 L 2.078125 0 L 1.0625 0 Z M 1.0625 -7.125 "/></g></g></g><g fill="#695125" fill-opacity="1"><g transform="translate(215.273137, 206.576691)"><g><path d="M 7.1875 -7.125 L 7.1875 0 L 6.359375 0 L 2.078125 -5.3125 L 2.078125 0 L 1.0625 0 L 1.0625 -7.125 L 1.90625 -7.125 L 6.171875 -1.8125 L 6.171875 -7.125 Z M 7.1875 -7.125 "/></g></g></g><g fill="#695125" fill-opacity="1"><g transform="translate(224.632127, 206.576691)"><g/></g></g><g fill="#695125" fill-opacity="1"><g transform="translate(228.46782, 206.576691)"><g><path d="M 4.25 0.078125 C 3.539062 0.078125 2.898438 -0.078125 2.328125 -0.390625 C 1.753906 -0.703125 1.300781 -1.132812 0.96875 -1.6875 C 0.644531 -2.238281 0.484375 -2.863281 0.484375 -3.5625 C 0.484375 -4.25 0.644531 -4.867188 0.96875 -5.421875 C 1.300781 -5.972656 1.753906 -6.40625 2.328125 -6.71875 C 2.898438 -7.039062 3.546875 -7.203125 4.265625 -7.203125 C 4.816406 -7.203125 5.320312 -7.109375 5.78125 -6.921875 C 6.25 -6.734375 6.644531 -6.457031 6.96875 -6.09375 L 6.3125 -5.453125 C 5.769531 -6.015625 5.097656 -6.296875 4.296875 -6.296875 C 3.773438 -6.296875 3.300781 -6.175781 2.875 -5.9375 C 2.445312 -5.695312 2.109375 -5.367188 1.859375 -4.953125 C 1.617188 -4.535156 1.5 -4.070312 1.5 -3.5625 C 1.5 -3.039062 1.617188 -2.570312 1.859375 -2.15625 C 2.109375 -1.738281 2.445312 -1.410156 2.875 -1.171875 C 3.300781 -0.941406 3.773438 -0.828125 4.296875 -0.828125 C 5.097656 -0.828125 5.769531 -1.109375 6.3125 -1.671875 L 6.96875 -1.03125 C 6.644531 -0.664062 6.25 -0.390625 5.78125 -0.203125 C 5.320312 -0.015625 4.8125 0.078125 4.25 0.078125 Z M 4.25 0.078125 "/></g></g></g><g fill="#695125" fill-opacity="1"><g transform="translate(236.921524, 206.576691)"><g><path d="M 1.0625 -7.125 L 2.078125 -7.125 L 2.078125 -0.890625 L 5.9375 -0.890625 L 5.9375 0 L 1.0625 0 Z M 1.0625 -7.125 "/></g></g></g><g fill="#695125" fill-opacity="1"><g transform="translate(244.06306, 206.576691)"><g><path d="M 1.0625 -7.125 L 2.078125 -7.125 L 2.078125 0 L 1.0625 0 Z M 1.0625 -7.125 "/></g></g></g><g fill="#695125" fill-opacity="1"><g transform="translate(248.315799, 206.576691)"><g><path d="M 7.1875 -7.125 L 7.1875 0 L 6.359375 0 L 2.078125 -5.3125 L 2.078125 0 L 1.0625 0 L 1.0625 -7.125 L 1.90625 -7.125 L 6.171875 -1.8125 L 6.171875 -7.125 Z M 7.1875 -7.125 "/></g></g></g><g fill="#695125" fill-opacity="1"><g transform="translate(257.674788, 206.576691)"><g><path d="M 1.0625 -7.125 L 2.078125 -7.125 L 2.078125 0 L 1.0625 0 Z M 1.0625 -7.125 "/></g></g></g><g fill="#695125" fill-opacity="1"><g transform="translate(261.927527, 206.576691)"><g><path d="M 4.25 0.078125 C 3.539062 0.078125 2.898438 -0.078125 2.328125 -0.390625 C 1.753906 -0.703125 1.300781 -1.132812 0.96875 -1.6875 C 0.644531 -2.238281 0.484375 -2.863281 0.484375 -3.5625 C 0.484375 -4.25 0.644531 -4.867188 0.96875 -5.421875 C 1.300781 -5.972656 1.753906 -6.40625 2.328125 -6.71875 C 2.898438 -7.039062 3.546875 -7.203125 4.265625 -7.203125 C 4.816406 -7.203125 5.320312 -7.109375 5.78125 -6.921875 C 6.25 -6.734375 6.644531 -6.457031 6.96875 -6.09375 L 6.3125 -5.453125 C 5.769531 -6.015625 5.097656 -6.296875 4.296875 -6.296875 C 3.773438 -6.296875 3.300781 -6.175781 2.875 -5.9375 C 2.445312 -5.695312 2.109375 -5.367188 1.859375 -4.953125 C 1.617188 -4.535156 1.5 -4.070312 1.5 -3.5625 C 1.5 -3.039062 1.617188 -2.570312 1.859375 -2.15625 C 2.109375 -1.738281 2.445312 -1.410156 2.875 -1.171875 C 3.300781 -0.941406 3.773438 -0.828125 4.296875 -0.828125 C 5.097656 -0.828125 5.769531 -1.109375 6.3125 -1.671875 L 6.96875 -1.03125 C 6.644531 -0.664062 6.25 -0.390625 5.78125 -0.203125 C 5.320312 -0.015625 4.8125 0.078125 4.25 0.078125 Z M 4.25 0.078125 "/></g></g></g></svg>