<svg xmlns="http://www.w3.org/2000/svg" xmlns:xlink="http://www.w3.org/1999/xlink" width="500" zoomAndPan="magnify" viewBox="0 0 375 374.999991" height="500" preserveAspectRatio="xMidYMid meet" version="1.0"><path fill="#2e2a2b" d="M 239.183594 259.609375 C 239.152344 258.546875 239.132812 257.964844 239.132812 257.964844 C 238.109375 245.949219 228.648438 236.078125 216.640625 235.347656 C 216.117188 235.308594 215.59375 235.296875 215.0625 235.296875 L 206.5625 235.296875 L 206.5625 214.246094 L 186.273438 214.246094 L 186.273438 235.296875 L 175.53125 235.296875 C 175.023438 235.296875 174.515625 235.308594 174.007812 235.339844 C 161.933594 236.054688 152.453125 246.050781 151.5 258.136719 L 151.441406 259.609375 L 239.183594 259.609375 " fill-opacity="1" fill-rule="nonzero"/><path stroke-linecap="round" transform="matrix(0.0716129, 0, 0, -0.0717868, 34.971382, 340.692986)" fill="none" stroke-linejoin="round" d="M 2851.612318 1129.506064 C 2851.175944 1144.306838 2850.903211 1152.414615 2850.903211 1152.414615 C 2836.611965 1319.793955 2704.499758 1457.299675 2536.823077 1467.475207 C 2529.513814 1468.019353 2522.20455 1468.182597 2514.786193 1468.182597 L 2396.092485 1468.182597 L 2396.092485 1761.422931 L 2112.776713 1761.422931 L 2112.776713 1468.182597 L 1962.773176 1468.182597 C 1955.682099 1468.182597 1948.591023 1468.019353 1941.499947 1467.584036 C 1772.895971 1457.626163 1640.511031 1318.379175 1627.201626 1150.020372 L 1626.383425 1129.506064 Z M 2851.612318 1129.506064 " stroke="#ffffff" stroke-width="17.909" stroke-opacity="1" stroke-miterlimit="10"/><path fill="#2e2a2b" d="M 224.324219 170.621094 C 224.324219 154.773438 212.457031 146.078125 196.152344 146.078125 C 195.886719 146.078125 195.628906 146.085938 195.363281 146.085938 C 195.105469 146.085938 194.839844 146.078125 194.582031 146.078125 C 178.269531 146.078125 166.402344 154.773438 166.402344 170.621094 C 166.402344 177.480469 167.785156 200.644531 170.5 206.078125 C 172.367188 209.820312 175.699219 213.269531 180.753906 217.859375 C 188.085938 224.511719 195.113281 228.324219 203.734375 222.734375 C 211.339844 217.800781 218.402344 209.820312 220.269531 206.078125 C 222.976562 200.644531 224.324219 177.480469 224.324219 170.621094 " fill-opacity="1" fill-rule="nonzero"/><path stroke-linecap="round" transform="matrix(0.0716129, 0, 0, -0.0717868, 34.971382, 340.692986)" fill="none" stroke-linejoin="round" d="M 2644.116516 2369.125297 C 2644.116516 2589.885371 2478.403517 2711.012293 2250.725421 2711.012293 C 2247.016242 2711.012293 2243.416158 2710.903464 2239.706979 2710.903464 C 2236.106894 2710.903464 2232.397716 2711.012293 2228.797631 2711.012293 C 2001.010441 2711.012293 1835.297442 2589.885371 1835.297442 2369.125297 C 1835.297442 2273.573242 1854.606989 1950.894604 1892.516973 1875.203881 C 1918.590316 1823.074685 1965.118686 1775.026584 2035.702168 1711.089417 C 2138.086401 1618.421336 2236.215988 1565.312676 2356.600645 1643.179983 C 2462.803149 1711.905636 2561.423657 1823.074685 2587.496999 1875.203881 C 2625.29789 1950.894604 2644.116516 2273.573242 2644.116516 2369.125297 Z M 2644.116516 2369.125297 " stroke="#ffffff" stroke-width="17.909" stroke-opacity="1" stroke-miterlimit="10"/><path fill="#2e2a2b" d="M 167.390625 192.359375 C 167.390625 192.359375 149.574219 176.4375 153.726562 156.308594 C 156.792969 141.476562 168.523438 133.292969 177.195312 128.691406 C 180.34375 127.019531 183.007812 124.566406 185.378906 122.042969 C 191.8125 115.21875 201.929688 113.351562 210.273438 117.621094 C 218.464844 121.808594 227.882812 129.007812 232.285156 140.96875 C 242.148438 167.707031 223.378906 190.488281 223.378906 190.488281 C 223.378906 190.488281 220.550781 166.019531 198.621094 162.957031 C 198.621094 162.957031 184.335938 177.269531 173.621094 181.363281 C 165.996094 184.269531 167.390625 192.359375 167.390625 192.359375 " fill-opacity="1" fill-rule="nonzero"/><path stroke-linecap="round" transform="matrix(0.0716129, 0, 0, -0.0717868, 34.971382, 340.692986)" fill="none" stroke-linejoin="round" d="M 1849.097768 2066.307992 C 1849.097768 2066.307992 1600.310083 2288.101943 1658.293268 2568.500429 C 1701.11246 2775.112704 1864.916323 2889.111312 1986.010087 2953.211723 C 2029.974761 2976.501176 2067.175638 3010.673551 2100.28551 3045.825389 C 2190.123992 3140.887713 2331.400051 3166.897897 2447.911889 3107.422728 C 2562.296405 3049.090266 2693.808597 2948.804139 2755.282774 2782.186603 C 2893.013295 2409.718596 2630.916205 2092.427005 2630.916205 2092.427005 C 2630.916205 2092.427005 2591.424364 2433.225708 2285.198961 2475.886762 C 2285.198961 2475.886762 2085.72153 2276.511631 1936.099819 2219.485119 C 1829.624581 2179.000649 1849.097768 2066.307992 1849.097768 2066.307992 Z M 1849.097768 2066.307992 " stroke="#ffffff" stroke-width="17.909" stroke-opacity="1" stroke-miterlimit="10"/><path stroke-linecap="round" transform="matrix(0.0716129, 0, 0, -0.0717868, 34.971382, 340.692986)" fill-opacity="1" fill="#2e2a2b" fill-rule="nonzero" stroke-linejoin="round" d="M 2285.198961 2475.886762 C 2285.198961 2475.886762 2406.183632 2589.885371 2470.385146 2803.625959 " stroke="#ffffff" stroke-width="17.909" stroke-opacity="1" stroke-miterlimit="10"/><path stroke-linecap="round" transform="matrix(0.0716129, 0, 0, -0.0717868, 34.971382, 340.692986)" fill-opacity="1" fill="#2e2a2b" fill-rule="nonzero" stroke-linejoin="round" d="M 1986.010087 2953.211723 C 1986.010087 2953.211723 2171.196273 2981.724978 2285.198961 3052.899288 " stroke="#ffffff" stroke-width="17.909" stroke-opacity="1" stroke-miterlimit="10"/><path stroke-linecap="round" transform="matrix(0.0716129, 0, 0, -0.0717868, 34.971382, 340.692986)" fill-opacity="1" fill="#2e2a2b" fill-rule="nonzero" stroke-linejoin="round" d="M 1702.585222 2258.010663 C 1702.585222 2258.010663 1665.493438 2433.225708 1836.388377 2547.224316 " stroke="#ffffff" stroke-width="17.909" stroke-opacity="1" stroke-miterlimit="10"/><path stroke-linecap="round" transform="matrix(0.0716129, 0, 0, -0.0717868, 34.971382, 340.692986)" fill-opacity="1" fill="#2e2a2b" fill-rule="nonzero" stroke-linejoin="round" d="M 2085.72153 2711.012293 C 2085.72153 2711.012293 2256.725562 2746.599448 2327.909059 2874.909099 " stroke="#ffffff" stroke-width="17.909" stroke-opacity="1" stroke-miterlimit="10"/><path stroke-linecap="round" transform="matrix(0.0716129, 0, 0, -0.0717868, 34.971382, 340.692986)" fill-opacity="1" fill="#2e2a2b" fill-rule="nonzero" stroke-linejoin="round" d="M 2765.810295 2386.320314 C 2765.810295 2386.320314 2782.174317 2543.197635 2653.989476 2621.500259 " stroke="#ffffff" stroke-width="17.909" stroke-opacity="1" stroke-miterlimit="10"/><path fill="#2e2a2b" d="M 147.738281 229 C 151.808594 230.527344 155.882812 237.160156 154.828125 239.992188 C 153.777344 242.8125 146.574219 244.554688 142.503906 243.027344 C 138.445312 241.503906 132.902344 235.050781 133.953125 232.222656 C 135.007812 229.394531 143.679688 227.476562 147.738281 229 " fill-opacity="1" fill-rule="nonzero"/><path stroke-linecap="round" transform="matrix(0.0716129, 0, 0, -0.0717868, 34.971382, 340.692986)" fill="none" stroke-linejoin="round" d="M 1574.673114 1555.898949 C 1631.510818 1534.622836 1688.403069 1442.226828 1673.675449 1402.776236 C 1659.002376 1363.488887 1558.418186 1339.219971 1501.580482 1360.496084 C 1444.906418 1381.717782 1367.504592 1471.610718 1382.177666 1511.006895 C 1396.905286 1550.403073 1517.999051 1577.120647 1574.673114 1555.898949 Z M 1574.673114 1555.898949 " stroke="#ffffff" stroke-width="22.174999" stroke-opacity="1" stroke-miterlimit="10"/><path fill="#2e2a2b" d="M 143.9375 244.492188 C 146.84375 241.261719 154.5 239.90625 156.734375 241.929688 C 158.96875 243.945312 157.929688 251.304688 155.023438 254.535156 C 152.109375 257.765625 144.046875 261.253906 141.8125 259.230469 C 139.578125 257.203125 141.023438 247.722656 143.9375 244.492188 " fill-opacity="1" fill-rule="nonzero"/><path stroke-linecap="round" transform="matrix(0.0716129, 0, 0, -0.0717868, 34.971382, 340.692986)" fill="none" stroke-linejoin="round" d="M 1521.599135 1340.090605 C 1562.181911 1385.091488 1669.093523 1403.973357 1700.294259 1375.786589 C 1731.494994 1347.70865 1716.985561 1245.191525 1676.402786 1200.190642 C 1635.710917 1155.18976 1523.126444 1106.597513 1491.925708 1134.784281 C 1460.724973 1163.025464 1480.907267 1295.089722 1521.599135 1340.090605 Z M 1521.599135 1340.090605 " stroke="#ffffff" stroke-width="22.174999" stroke-opacity="1" stroke-miterlimit="10"/><path fill="#2e2a2b" d="M 159.082031 254.863281 C 156.203125 251.613281 155.695312 243.832031 157.953125 241.828125 C 160.199219 239.832031 167.375 241.671875 170.253906 244.921875 C 173.140625 248.175781 175.488281 257.226562 173.242188 259.230469 C 170.992188 261.230469 161.960938 258.117188 159.082031 254.863281 " fill-opacity="1" fill-rule="nonzero"/><path stroke-linecap="round" transform="matrix(0.0716129, 0, 0, -0.0717868, 34.971382, 340.692986)" fill="none" stroke-linejoin="round" d="M 1733.07685 1195.619815 C 1692.875902 1240.892771 1685.784826 1349.286674 1717.312842 1377.201369 C 1748.677218 1405.007235 1848.879581 1379.377953 1889.080529 1334.104998 C 1929.39057 1288.777628 1962.173162 1162.698976 1930.808786 1134.784281 C 1899.389863 1106.924 1773.277798 1150.292445 1733.07685 1195.619815 Z M 1733.07685 1195.619815 " stroke="#ffffff" stroke-width="22.174999" stroke-opacity="1" stroke-miterlimit="10"/><path fill="#2e2a2b" d="M 166.652344 229 C 162.585938 230.527344 158.511719 237.160156 159.5625 239.992188 C 160.617188 242.8125 167.828125 244.554688 171.886719 243.027344 C 175.957031 241.503906 180.988281 235.171875 179.9375 232.351562 C 178.882812 229.53125 170.722656 227.476562 166.652344 229 " fill-opacity="1" fill-rule="nonzero"/><path stroke-linecap="round" transform="matrix(0.0716129, 0, 0, -0.0717868, 34.971382, 340.692986)" fill="none" stroke-linejoin="round" d="M 1838.788434 1555.898949 C 1782.005276 1534.622836 1725.113026 1442.226828 1739.786099 1402.776236 C 1754.513719 1363.488887 1855.207003 1339.219971 1911.881066 1360.496084 C 1968.71877 1381.717782 2038.974973 1469.923865 2024.301899 1509.211213 C 2009.574279 1548.498562 1895.626138 1577.120647 1838.788434 1555.898949 Z M 1838.788434 1555.898949 " stroke="#ffffff" stroke-width="22.174999" stroke-opacity="1" stroke-miterlimit="10"/><path fill="#2e2a2b" d="M 164.554688 226.984375 C 164.554688 231.332031 159.777344 237.484375 156.769531 237.484375 C 153.761719 237.484375 149.617188 231.332031 149.617188 226.984375 C 149.617188 222.632812 153.839844 214.527344 156.855469 214.527344 C 159.855469 214.527344 164.554688 222.632812 164.554688 226.984375 " fill-opacity="1" fill-rule="nonzero"/><path stroke-linecap="round" transform="matrix(0.0716129, 0, 0, -0.0717868, 34.971382, 340.692986)" fill="none" stroke-linejoin="round" d="M 1809.496834 1583.976888 C 1809.496834 1523.413426 1742.78617 1437.710416 1700.785179 1437.710416 C 1658.784189 1437.710416 1600.910097 1523.413426 1600.910097 1583.976888 C 1600.910097 1644.594763 1659.875124 1757.505079 1701.985208 1757.505079 C 1743.877105 1757.505079 1809.496834 1644.594763 1809.496834 1583.976888 Z M 1809.496834 1583.976888 " stroke="#ffffff" stroke-width="22.174999" stroke-opacity="1" stroke-miterlimit="10"/><path fill="#2e2a2b" d="M 162.570312 239.503906 C 162.570312 242.539062 160.113281 244.992188 157.085938 244.992188 C 154.054688 244.992188 151.601562 242.539062 151.601562 239.503906 C 151.601562 236.464844 154.054688 234.003906 157.085938 234.003906 C 160.113281 234.003906 162.570312 236.464844 162.570312 239.503906 " fill-opacity="1" fill-rule="nonzero"/><path stroke-linecap="round" transform="matrix(0.0716129, 0, 0, -0.0717868, 34.971382, 340.692986)" fill="none" stroke-linejoin="round" d="M 1781.787089 1409.578062 C 1781.787089 1367.29791 1747.477189 1333.125535 1705.203465 1333.125535 C 1662.875194 1333.125535 1628.619841 1367.29791 1628.619841 1409.578062 C 1628.619841 1451.912629 1662.875194 1486.193833 1705.203465 1486.193833 C 1747.477189 1486.193833 1781.787089 1451.912629 1781.787089 1409.578062 Z M 1781.787089 1409.578062 " stroke="#ffffff" stroke-width="22.174999" stroke-opacity="1" stroke-miterlimit="10"/></svg>