<svg xmlns="http://www.w3.org/2000/svg" xmlns:xlink="http://www.w3.org/1999/xlink" width="500" zoomAndPan="magnify" viewBox="0 0 375 374.999991" height="500" preserveAspectRatio="xMidYMid meet" version="1.0"><defs><clipPath id="9817e0f5b2"><path d="M 174.996094 175.042969 L 199.746094 175.042969 L 199.746094 199.792969 L 174.996094 199.792969 Z M 174.996094 175.042969 " clip-rule="nonzero"/></clipPath></defs><g clip-path="url(#9817e0f5b2)"><path fill="#b89e6f" d="M 187.378906 175.050781 C 180.539062 175.050781 174.996094 180.613281 174.996094 187.476562 C 174.996094 193.644531 179.476562 198.765625 185.339844 199.730469 L 185.339844 191.308594 L 182.191406 191.308594 L 182.191406 187.617188 L 185.339844 187.617188 L 185.339844 184.9375 C 185.339844 182.035156 187.6875 180.0625 190.582031 180.0625 C 191.871094 180.0625 192.671875 180.257812 192.671875 180.257812 L 192.671875 183.355469 L 190.582031 183.355469 C 189.714844 183.355469 189.007812 184.066406 189.007812 184.9375 L 189.007812 187.617188 L 192.382812 187.617188 L 191.914062 191.308594 L 189.007812 191.308594 L 189.007812 199.785156 C 195.0625 198.980469 199.738281 193.773438 199.738281 187.476562 C 199.746094 180.613281 194.207031 175.050781 187.378906 175.050781 Z M 187.378906 175.050781 " fill-opacity="1" fill-rule="nonzero"/></g></svg>