<svg xmlns="http://www.w3.org/2000/svg" xmlns:xlink="http://www.w3.org/1999/xlink" width="226" zoomAndPan="magnify" viewBox="0 0 169.5 172.499994" height="230" preserveAspectRatio="xMidYMid meet" version="1.0"><defs><clipPath id="07dc48417e"><path d="M 37 77 L 169 77 L 169 171.621094 L 37 171.621094 Z M 37 77 " clip-rule="nonzero"/></clipPath><clipPath id="d4aa66997a"><path d="M 20 0.621094 L 164 0.621094 L 164 163 L 20 163 Z M 20 0.621094 " clip-rule="nonzero"/></clipPath><clipPath id="256f1c06f7"><path d="M 0.472656 51 L 59 51 L 59 113 L 0.472656 113 Z M 0.472656 51 " clip-rule="nonzero"/></clipPath><clipPath id="f067fae7cb"><path d="M 37 77 L 169 77 L 169 171.621094 L 37 171.621094 Z M 37 77 " clip-rule="nonzero"/></clipPath><clipPath id="8b2ff46324"><path d="M 20 0.621094 L 164 0.621094 L 164 163 L 20 163 Z M 20 0.621094 " clip-rule="nonzero"/></clipPath><clipPath id="ed1963afe9"><path d="M 0.472656 51 L 59 51 L 59 113 L 0.472656 113 Z M 0.472656 51 " clip-rule="nonzero"/></clipPath></defs><g clip-path="url(#07dc48417e)"><path fill="#000000" d="M 169.175781 96.371094 C 169.140625 96.5 169.074219 96.628906 169.070312 96.761719 C 169 98.492188 168.394531 100.078125 167.726562 101.636719 C 166.425781 104.664062 164.671875 107.433594 162.769531 110.113281 C 159.886719 114.175781 156.660156 117.96875 153.5 121.816406 C 151.230469 124.582031 148.886719 127.292969 146.753906 130.167969 C 146.402344 130.636719 146.078125 131.121094 145.839844 131.683594 C 146.023438 131.527344 146.207031 131.375 146.386719 131.210938 C 148.59375 129.203125 150.867188 127.269531 153.253906 125.476562 C 153.933594 124.964844 154.625 124.472656 155.390625 124.09375 C 155.742188 123.917969 156.097656 123.753906 156.496094 123.722656 C 157.132812 123.671875 157.441406 124.023438 157.316406 124.65625 C 157.242188 125.023438 157.046875 125.335938 156.835938 125.636719 C 156.375 126.292969 155.832031 126.890625 155.261719 127.457031 C 152.628906 130.074219 149.589844 132.101562 146.222656 133.652344 C 145.746094 133.871094 145.261719 134.117188 144.707031 133.96875 C 144.480469 133.90625 144.371094 134.074219 144.242188 134.199219 C 143.597656 134.820312 142.953125 135.441406 142.3125 136.066406 C 138.269531 140.046875 134.519531 144.292969 130.847656 148.613281 C 126.984375 153.164062 123.253906 157.816406 119.410156 162.378906 C 118.152344 163.871094 116.875 165.34375 115.613281 166.832031 C 115.269531 167.234375 114.949219 167.652344 114.632812 168.074219 C 113.230469 169.957031 111.449219 171.226562 109.0625 171.53125 C 109 171.539062 108.945312 171.59375 108.886719 171.625 C 108.289062 171.625 107.691406 171.625 107.09375 171.625 C 106.804688 171.449219 106.472656 171.5 106.160156 171.441406 C 105.046875 171.226562 103.988281 170.851562 102.980469 170.332031 C 100.128906 168.871094 97.507812 167.058594 94.960938 165.128906 C 90.996094 162.128906 87.335938 158.789062 83.761719 155.34375 C 79.914062 151.632812 76.148438 147.832031 72.199219 144.21875 C 67.800781 140.191406 63.164062 136.488281 57.941406 133.566406 C 54.085938 131.40625 50.113281 129.511719 45.867188 128.226562 C 44.480469 127.808594 43.074219 127.472656 41.617188 127.414062 C 40.96875 127.386719 40.328125 127.425781 39.703125 127.59375 C 39.457031 127.65625 39.222656 127.75 39.011719 127.894531 C 38.589844 128.179688 38.460938 128.527344 38.59375 129.023438 C 38.734375 129.542969 39.03125 129.980469 39.355469 130.402344 C 40.003906 131.238281 40.730469 132.003906 41.492188 132.738281 C 44.125 135.261719 46.769531 137.78125 49.414062 140.296875 C 54.152344 144.804688 58.429688 149.707031 62.074219 155.148438 C 62.726562 156.117188 63.398438 157.078125 63.949219 158.113281 C 64.1875 158.558594 64.414062 159.011719 64.484375 159.519531 C 64.582031 160.238281 64.28125 160.613281 63.554688 160.664062 C 62.722656 160.726562 61.910156 160.523438 61.089844 160.425781 C 58.535156 160.132812 55.976562 159.847656 53.402344 159.761719 C 52.21875 159.722656 51.054688 159.773438 49.964844 160.292969 C 49.90625 160.320312 49.832031 160.347656 49.746094 160.253906 C 50.339844 159.8125 51.011719 159.554688 51.722656 159.414062 C 52.238281 159.3125 52.765625 159.257812 53.296875 159.246094 C 56.457031 159.175781 59.585938 159.488281 62.699219 159.976562 C 63.074219 160.035156 63.546875 160.242188 63.792969 159.875 C 64.023438 159.535156 63.722656 159.132812 63.558594 158.792969 C 63.101562 157.8125 62.484375 156.925781 61.886719 156.027344 C 58.242188 150.53125 53.914062 145.613281 49.164062 141.050781 C 46.75 138.730469 44.332031 136.40625 41.917969 134.082031 C 40.972656 133.171875 40.046875 132.25 39.210938 131.238281 C 38.828125 130.78125 38.464844 130.304688 38.21875 129.757812 C 37.632812 128.464844 38.050781 127.496094 39.417969 127.089844 C 40.585938 126.738281 41.785156 126.804688 42.972656 126.984375 C 45.695312 127.398438 48.257812 128.355469 50.765625 129.449219 C 57.472656 132.371094 63.515625 136.347656 69.089844 141.054688 C 72.898438 144.269531 76.5 147.714844 80.078125 151.179688 C 84.253906 155.21875 88.460938 159.226562 92.984375 162.878906 C 95.773438 165.132812 98.65625 167.261719 101.816406 168.980469 C 103.109375 169.683594 104.4375 170.316406 105.902344 170.589844 C 108.71875 171.113281 111.1875 170.484375 113.230469 168.414062 C 113.777344 167.855469 114.285156 167.265625 114.800781 166.679688 C 120.839844 159.792969 126.210938 152.359375 132.308594 145.523438 C 136.023438 141.359375 139.8125 137.269531 143.925781 133.492188 C 144.21875 133.222656 144.445312 132.929688 144.597656 132.554688 C 144.972656 131.664062 145.527344 130.867188 146.078125 130.078125 C 147.84375 127.5625 149.804688 125.191406 151.722656 122.785156 C 154.84375 118.875 158.078125 115.058594 161.035156 111.015625 C 162.714844 108.71875 164.332031 106.378906 165.65625 103.855469 C 166.609375 102.046875 167.46875 100.199219 167.957031 98.199219 C 168.644531 95.402344 168.226562 92.792969 166.671875 90.363281 C 165.289062 88.203125 163.449219 86.488281 161.433594 84.941406 C 159.863281 83.742188 158.222656 82.644531 156.515625 81.644531 C 154.992188 80.746094 153.503906 79.789062 152.074219 78.75 C 151.710938 78.488281 151.3125 78.234375 151.175781 77.765625 C 151.328125 77.578125 151.492188 77.675781 151.628906 77.707031 C 152.3125 77.859375 152.9375 78.148438 153.523438 78.511719 C 156.414062 80.304688 159.289062 82.121094 161.996094 84.179688 C 163.570312 85.378906 165.039062 86.695312 166.292969 88.238281 C 167.535156 89.765625 168.511719 91.4375 168.957031 93.382812 C 169.0625 93.828125 168.929688 94.300781 169.171875 94.71875 C 169.175781 95.269531 169.175781 95.820312 169.175781 96.371094 Z M 156.695312 124.324219 C 156.15625 124.328125 155.757812 124.5625 155.367188 124.78125 C 154.582031 125.222656 153.871094 125.765625 153.167969 126.320312 C 150.460938 128.449219 147.890625 130.738281 145.390625 133.101562 C 145.25 133.234375 145.042969 133.332031 145.03125 133.609375 C 145.585938 133.585938 146.046875 133.34375 146.507812 133.105469 C 149.734375 131.433594 152.617188 129.296875 155.136719 126.679688 C 155.5625 126.234375 155.980469 125.773438 156.328125 125.261719 C 156.507812 125 156.710938 124.742188 156.695312 124.324219 Z M 156.695312 124.324219 " fill-opacity="1" fill-rule="nonzero"/></g><g clip-path="url(#d4aa66997a)"><path fill="#000000" d="M 72.722656 88.023438 C 72.371094 88.761719 71.441406 89.191406 70.644531 89.050781 C 70.230469 88.980469 69.855469 88.808594 69.496094 88.597656 C 67.277344 87.300781 65.621094 85.441406 64.289062 83.296875 C 63.441406 81.929688 62.769531 80.46875 62.21875 78.957031 C 62.132812 78.722656 62.0625 78.480469 61.976562 78.242188 C 61.625 77.222656 61.78125 76.265625 62.285156 75.328125 C 63.039062 73.9375 63.667969 72.484375 64.300781 71.035156 C 64.8125 69.878906 65.175781 68.667969 65.445312 67.4375 C 65.730469 66.121094 66.371094 65.007812 67.246094 64.011719 C 67.789062 63.390625 68.367188 62.800781 68.921875 62.1875 C 70.632812 60.292969 72.242188 58.320312 73.546875 56.121094 C 75.535156 52.769531 76.667969 49.132812 77.019531 45.269531 C 77.382812 41.3125 77.304688 37.347656 76.976562 33.386719 C 76.808594 31.398438 76.75 29.40625 76.746094 27.410156 C 76.730469 19.707031 76.726562 12.003906 76.722656 4.300781 C 76.722656 3.382812 76.761719 2.464844 76.890625 1.554688 C 76.929688 1.289062 76.949219 1.019531 77.144531 0.625 C 77.191406 1.472656 77.246094 2.160156 77.269531 2.855469 C 77.378906 5.96875 77.453125 9.089844 77.597656 12.203125 C 77.753906 15.570312 77.714844 18.941406 77.738281 22.3125 C 77.765625 26.644531 77.957031 30.972656 78.210938 35.300781 C 78.402344 38.527344 78.417969 41.769531 77.988281 44.984375 C 77.28125 50.292969 75.539062 55.21875 72.28125 59.546875 C 71.105469 61.105469 69.953125 62.679688 68.617188 64.105469 C 67.75 65.03125 67.238281 66.109375 66.851562 67.316406 C 65.914062 70.238281 64.972656 73.171875 63.320312 75.800781 C 62.859375 76.53125 62.785156 77.277344 63.082031 78.09375 C 63.796875 80.042969 64.710938 81.886719 65.996094 83.527344 C 66.746094 84.484375 67.496094 85.441406 68.386719 86.277344 C 69.011719 86.863281 69.6875 87.375 70.414062 87.8125 C 70.71875 87.996094 71.125 88.28125 71.421875 87.996094 C 71.738281 87.699219 71.511719 87.265625 71.328125 86.917969 C 71.003906 86.308594 70.566406 85.773438 70.089844 85.273438 C 69.839844 85.007812 69.589844 84.738281 69.351562 84.457031 C 69.171875 84.246094 69.015625 84.011719 68.988281 83.726562 C 68.851562 82.355469 68.480469 81.042969 68.003906 79.757812 C 67.828125 79.285156 67.617188 78.824219 67.386719 78.378906 C 66.703125 77.054688 66.640625 75.71875 67.179688 74.328125 C 67.734375 72.898438 68.550781 71.632812 69.460938 70.417969 C 70.207031 69.429688 70.949219 68.4375 71.816406 67.542969 C 71.910156 67.445312 71.984375 67.324219 72.160156 67.273438 C 72.25 67.574219 72.050781 67.789062 71.933594 68.007812 C 71.382812 69.046875 70.660156 69.96875 69.9375 70.894531 C 69.113281 71.949219 68.449219 73.09375 67.960938 74.34375 C 67.738281 74.902344 67.585938 75.472656 67.636719 76.082031 C 67.761719 77.632812 69.363281 78.871094 71 77.859375 C 71.332031 77.65625 71.667969 77.449219 71.96875 77.203125 C 72.683594 76.625 73.363281 76.003906 73.960938 75.304688 C 74.378906 74.820312 74.734375 74.269531 75.1875 73.820312 C 76.3125 72.695312 76.992188 71.296875 77.652344 69.894531 C 78.382812 68.347656 79.4375 67.132812 80.953125 66.320312 C 81.398438 66.085938 81.804688 65.777344 82.238281 65.523438 C 83.222656 64.9375 83.828125 64.097656 84.078125 62.980469 C 84.257812 62.175781 84.4375 61.367188 84.730469 60.59375 C 84.890625 60.164062 85.054688 59.738281 85.246094 59.320312 C 85.757812 58.222656 86.535156 57.378906 87.660156 56.878906 C 87.785156 56.824219 87.90625 56.753906 88.03125 56.695312 C 89.625 55.996094 90.917969 54.929688 91.941406 53.527344 C 92.5 52.769531 93.117188 52.054688 93.789062 51.394531 C 97.050781 48.214844 100.992188 46.457031 105.488281 45.925781 C 107.476562 45.691406 109.375 46.121094 111.15625 47.035156 C 112.242188 47.59375 113.273438 48.238281 114.257812 48.957031 C 116.984375 50.949219 118.804688 53.582031 119.890625 56.753906 C 120.652344 58.976562 121.078125 61.261719 121.328125 63.597656 C 121.65625 66.648438 121.558594 69.6875 121.316406 72.730469 C 121.300781 72.9375 121.296875 73.140625 121.292969 73.347656 C 121.292969 73.390625 121.328125 73.429688 121.367188 73.523438 C 122.546875 73.3125 123.742188 73.140625 124.894531 72.742188 C 127.898438 71.691406 130.742188 70.296875 133.457031 68.648438 C 135.890625 67.171875 138.265625 65.59375 140.628906 64.007812 C 141.289062 63.5625 141.257812 63.660156 140.929688 62.996094 C 139.816406 60.757812 138.710938 58.515625 137.339844 56.417969 C 136.109375 54.53125 134.550781 52.945312 132.714844 51.652344 C 130.476562 50.078125 128.191406 48.570312 125.761719 47.316406 C 122.238281 45.5 118.53125 44.269531 114.527344 44.058594 C 112.738281 43.964844 110.949219 43.824219 109.15625 43.824219 C 108.171875 43.824219 107.195312 43.890625 106.210938 44.0625 C 106.925781 44.199219 107.636719 44.34375 108.355469 44.472656 C 110.992188 44.960938 113.375 46.070312 115.683594 47.382812 C 115.960938 47.539062 116.234375 47.714844 116.433594 47.976562 C 116.550781 48.128906 116.617188 48.300781 116.472656 48.476562 C 116.324219 48.65625 116.148438 48.613281 115.976562 48.523438 C 115.875 48.46875 115.773438 48.410156 115.679688 48.34375 C 113.105469 46.683594 110.242188 45.816406 107.246094 45.328125 C 106.476562 45.199219 105.695312 45.136719 104.921875 45.046875 C 103.21875 44.84375 101.578125 45.117188 99.976562 45.683594 C 99.042969 46.015625 98.140625 46.414062 97.242188 46.824219 C 94.011719 48.285156 91.726562 50.722656 90.007812 53.75 C 89.675781 54.328125 89.34375 54.90625 89.019531 55.484375 C 88.949219 55.605469 88.875 55.714844 88.753906 55.789062 C 88.402344 56.007812 88.203125 55.925781 88.167969 55.503906 C 88.117188 54.839844 88.074219 54.175781 88.066406 53.511719 C 88.050781 51.859375 87.984375 50.207031 88.066406 48.558594 C 88.269531 44.402344 88.785156 40.296875 90.441406 36.414062 C 91.074219 34.9375 91.652344 33.441406 92.28125 31.964844 C 93.894531 28.203125 95.105469 24.320312 95.921875 20.304688 C 96.71875 16.378906 97.566406 12.457031 98.398438 8.539062 C 98.539062 7.871094 98.722656 7.214844 98.925781 6.5625 C 99.015625 6.957031 98.871094 7.320312 98.808594 7.691406 C 98.050781 12 97.324219 16.3125 96.519531 20.613281 C 95.820312 24.371094 94.691406 27.992188 93.242188 31.523438 C 92.410156 33.558594 91.578125 35.597656 90.757812 37.636719 C 89.839844 39.933594 89.394531 42.328125 89.132812 44.785156 C 88.832031 47.625 88.992188 50.464844 89.019531 53.304688 C 89.019531 53.390625 89.039062 53.480469 89.046875 53.570312 C 89.285156 53.601562 89.320312 53.402344 89.398438 53.285156 C 89.929688 52.480469 90.484375 51.695312 91.054688 50.917969 C 92.484375 48.964844 94.324219 47.519531 96.472656 46.441406 C 97.765625 45.792969 99.101562 45.234375 100.492188 44.816406 C 100.746094 44.742188 100.964844 44.683594 101 44.359375 C 101.027344 44.128906 101.234375 44.027344 101.441406 43.96875 C 101.726562 43.886719 102.019531 43.8125 102.324219 43.832031 C 103.179688 43.882812 104.011719 43.714844 104.84375 43.546875 C 107.480469 43.023438 110.144531 43.019531 112.8125 43.179688 C 114.050781 43.253906 115.289062 43.371094 116.523438 43.492188 C 118.273438 43.664062 119.945312 44.160156 121.601562 44.71875 C 125.847656 46.160156 129.609375 48.480469 133.242188 51.050781 C 134.757812 52.121094 136.085938 53.371094 137.261719 54.796875 C 137.730469 55.363281 138.164062 55.953125 138.542969 56.582031 C 139.753906 58.582031 140.988281 60.570312 142.042969 62.664062 C 142.082031 62.742188 142.144531 62.808594 142.214844 62.90625 C 149.21875 58.125 156.296875 53.488281 163.207031 48.578125 C 163.082031 48.71875 162.964844 48.871094 162.832031 49.007812 C 161.777344 50.097656 160.570312 51.023438 159.367188 51.941406 C 154.988281 55.292969 150.40625 58.359375 145.902344 61.535156 C 145.078125 62.117188 144.226562 62.660156 143.398438 63.230469 C 141.449219 64.574219 139.53125 65.953125 137.570312 67.277344 C 134.015625 69.679688 130.289062 71.730469 126.296875 73.316406 C 124.664062 73.96875 122.96875 74.324219 121.230469 74.570312 C 120.3125 74.703125 119.398438 74.617188 118.484375 74.722656 C 116.773438 74.917969 115.238281 75.511719 113.894531 76.597656 C 112.375 77.832031 110.996094 79.210938 109.714844 80.6875 C 108.257812 82.371094 106.898438 84.136719 105.550781 85.90625 C 104.421875 87.390625 103.167969 88.761719 101.78125 90.007812 C 101.703125 90.078125 101.582031 90.125 101.605469 90.3125 C 102.449219 90.402344 103.28125 90.242188 104.113281 90.140625 C 105.484375 89.972656 106.75 89.488281 107.890625 88.726562 C 109.6875 87.519531 111.390625 86.199219 112.785156 84.527344 C 112.816406 84.492188 112.84375 84.453125 112.875 84.421875 C 113.171875 84.117188 113.425781 84.058594 113.652344 84.242188 C 113.886719 84.433594 113.890625 84.695312 113.644531 85.03125 C 113.382812 85.382812 113.101562 85.714844 112.847656 86.070312 C 111.035156 88.609375 109.234375 91.160156 107.421875 93.699219 C 106.5 94.988281 105.445312 96.167969 104.328125 97.296875 C 102.722656 98.925781 100.792969 99.878906 98.535156 100.230469 C 97.125 100.449219 95.742188 100.800781 94.476562 101.5 C 94.179688 101.664062 93.859375 101.800781 93.554688 102.085938 C 95.074219 102.8125 96.570312 103.367188 98.257812 103.070312 C 99.640625 102.828125 101.023438 102.59375 102.386719 102.265625 C 103.644531 101.964844 104.828125 101.472656 105.972656 100.871094 C 108.007812 99.808594 109.988281 98.640625 111.890625 97.351562 C 112.460938 96.964844 113.042969 96.597656 113.625 96.230469 C 113.816406 96.109375 114.03125 96.015625 114.238281 95.921875 C 114.441406 95.824219 114.652344 95.808594 114.789062 96.019531 C 114.925781 96.226562 114.824219 96.417969 114.675781 96.578125 C 114.578125 96.675781 114.480469 96.773438 114.375 96.863281 C 114.144531 97.050781 113.917969 97.25 113.671875 97.414062 C 110.6875 99.398438 107.726562 101.417969 104.417969 102.847656 C 104.359375 102.875 104.308594 102.925781 104.246094 102.96875 C 104.34375 103.175781 104.527344 103.085938 104.667969 103.097656 C 107.1875 103.351562 109.550781 102.804688 111.804688 101.699219 C 112.464844 101.378906 113.144531 101.09375 113.816406 100.792969 C 113.960938 100.730469 114.113281 100.671875 114.269531 100.640625 C 114.410156 100.605469 114.542969 100.65625 114.617188 100.796875 C 114.691406 100.941406 114.628906 101.070312 114.523438 101.164062 C 114.390625 101.289062 114.242188 101.398438 114.089844 101.503906 C 113.449219 101.957031 112.738281 102.28125 112.003906 102.554688 C 111.289062 102.816406 110.636719 103.191406 109.988281 103.585938 C 110.429688 103.585938 110.828125 103.433594 111.238281 103.3125 C 113.351562 102.675781 115.238281 101.582031 117.046875 100.355469 C 118.378906 99.453125 119.652344 98.46875 120.824219 97.367188 C 123.738281 94.628906 126.664062 91.910156 129.550781 89.148438 C 131.292969 87.484375 133.328125 86.234375 135.515625 85.234375 C 135.722656 85.140625 135.933594 85.042969 136.148438 84.960938 C 138.207031 84.167969 140.042969 83.023438 141.730469 81.609375 C 144.378906 79.386719 147.246094 77.476562 150.300781 75.867188 C 154.347656 73.738281 158.523438 71.871094 162.703125 70.027344 C 163.03125 69.882812 163.359375 69.710938 163.78125 69.691406 C 163.652344 69.988281 163.40625 70.078125 163.203125 70.199219 C 161.945312 70.96875 160.628906 71.613281 159.308594 72.265625 C 156.984375 73.414062 154.667969 74.589844 152.371094 75.792969 C 148.894531 77.609375 145.628906 79.730469 142.613281 82.234375 C 140.816406 83.730469 138.828125 84.902344 136.652344 85.757812 C 135.382812 86.257812 134.238281 86.988281 133.109375 87.738281 C 132.898438 87.878906 132.703125 88.039062 132.488281 88.171875 C 129.734375 89.890625 127.519531 92.234375 125.203125 94.457031 C 123.167969 96.414062 121.121094 98.359375 119.0625 100.292969 C 117.023438 102.203125 114.789062 103.84375 112.273438 105.078125 C 111.71875 105.351562 111.148438 105.601562 110.570312 105.828125 C 109.40625 106.285156 108.210938 106.386719 106.984375 106.085938 C 106.382812 105.9375 105.765625 105.859375 105.148438 105.808594 C 104.234375 105.726562 103.476562 105.976562 102.964844 106.789062 C 102.175781 108.027344 101.382812 109.257812 100.753906 110.59375 C 99.800781 112.621094 99.378906 114.757812 99.300781 116.984375 C 99.207031 119.597656 99.542969 122.148438 100.328125 124.644531 C 100.757812 126.015625 101.441406 127.257812 102.3125 128.398438 C 103.765625 130.300781 105.378906 132.054688 107.207031 133.605469 C 109.171875 135.273438 111.054688 137.019531 112.820312 138.890625 C 114.042969 140.1875 115.0625 141.625 115.859375 143.210938 C 117.039062 145.558594 117.445312 148.027344 116.898438 150.621094 C 116.789062 151.140625 116.636719 151.644531 116.40625 152.121094 C 114.976562 155.078125 113.191406 157.78125 110.695312 159.972656 C 109.867188 160.703125 108.972656 161.335938 107.933594 161.757812 C 106.667969 162.269531 105.476562 162.195312 104.3125 161.46875 C 103.351562 160.875 102.464844 160.1875 101.617188 159.449219 C 98.582031 156.8125 95.574219 154.148438 92.660156 151.382812 C 88.839844 147.757812 84.6875 144.53125 80.550781 141.28125 C 74.566406 136.585938 68.320312 132.25 62.222656 127.710938 C 58.757812 125.132812 55.40625 122.410156 51.976562 119.785156 C 47.453125 116.324219 42.746094 113.117188 38.097656 109.820312 C 34.6875 107.402344 31.164062 105.152344 27.550781 103.050781 C 27.175781 102.832031 26.8125 102.46875 26.394531 102.484375 C 26 102.5 25.75 102.960938 25.429688 103.210938 C 24.886719 103.640625 24.351562 104.070312 23.746094 104.40625 C 23.175781 104.722656 22.574219 104.945312 21.910156 104.894531 C 21.195312 104.84375 20.820312 104.398438 20.902344 103.703125 C 21.011719 102.8125 21.359375 101.980469 21.972656 101.363281 C 22.792969 100.535156 23.816406 100.101562 25.03125 100.511719 C 25.335938 100.613281 25.675781 100.640625 25.949219 100.792969 C 26.5 101.101562 26.839844 100.902344 27.238281 100.488281 C 28.113281 99.578125 28.988281 98.667969 29.777344 97.679688 C 30.605469 96.636719 31.492188 95.640625 32.378906 94.65625 C 34.351562 92.460938 36.859375 91.207031 39.769531 90.714844 C 41.933594 90.351562 44.035156 90.691406 46.117188 91.207031 C 49.582031 92.0625 52.957031 93.175781 56.109375 94.894531 C 58.105469 95.980469 60.214844 96.839844 62.292969 97.757812 C 63.339844 98.222656 64.433594 98.460938 65.5625 98.527344 C 66.523438 98.578125 67.488281 98.632812 68.449219 98.457031 C 69.574219 98.25 70.542969 97.765625 71.296875 96.90625 C 72.382812 95.667969 73.277344 94.320312 73.535156 92.640625 C 73.5625 92.460938 73.574219 92.234375 73.6875 92.125 C 74.097656 91.722656 73.855469 91.421875 73.621094 91.0625 C 73.050781 90.183594 72.824219 89.179688 72.722656 88.023438 Z M 81.648438 77.722656 C 81.0625 77.941406 80.449219 78.101562 79.992188 78.578125 C 80.550781 78.363281 81.085938 78.101562 81.621094 77.835938 C 81.644531 77.824219 81.632812 77.753906 81.644531 77.714844 C 81.898438 77.855469 82.167969 77.839844 82.546875 77.863281 C 82.203125 77.527344 81.914062 77.71875 81.648438 77.722656 Z M 89.265625 56.808594 C 90.375 57.054688 91.203125 57.496094 92.007812 57.992188 C 93.230469 58.742188 94.257812 59.726562 95.308594 60.6875 C 96.785156 62.042969 98.34375 63.28125 100.121094 64.234375 C 100.453125 64.414062 100.777344 64.496094 101.167969 64.453125 C 103.117188 64.246094 105.011719 64.460938 106.867188 65.125 C 109.136719 65.9375 110.726562 67.382812 111.410156 69.734375 C 111.539062 70.183594 111.613281 70.628906 111.527344 71.089844 C 111.492188 71.261719 111.390625 71.398438 111.207031 71.394531 C 111.058594 71.394531 110.960938 71.28125 110.921875 71.136719 C 110.847656 70.875 110.785156 70.605469 110.714844 70.339844 C 110.414062 69.230469 109.878906 68.238281 109.007812 67.488281 C 108.226562 66.820312 107.351562 66.363281 106.238281 66.351562 C 105.351562 66.339844 104.453125 66.203125 103.5625 66.109375 C 102.675781 66.019531 101.789062 65.871094 100.90625 65.71875 C 100.488281 65.648438 100.082031 65.515625 100.0625 64.976562 C 100.054688 64.769531 99.898438 64.71875 99.757812 64.644531 C 97.839844 63.625 96.140625 62.300781 94.558594 60.820312 C 93.703125 60.019531 92.851562 59.214844 91.847656 58.59375 C 91.191406 58.1875 90.507812 57.835938 89.640625 57.585938 C 89.863281 57.894531 90.097656 58 90.300781 58.128906 C 91.652344 58.988281 92.664062 60.152344 93.429688 61.546875 C 94.058594 62.695312 94.011719 63.828125 93.335938 64.941406 C 92.765625 65.878906 92 66.628906 91.0625 67.199219 C 89.042969 68.433594 87.121094 69.820312 85.136719 71.101562 C 84.84375 71.289062 84.574219 71.503906 84.355469 71.773438 C 84.144531 72.03125 84.050781 72.332031 84.058594 72.667969 C 84.0625 72.933594 84.109375 73.152344 84.375 73.296875 C 84.527344 73.378906 84.5 73.578125 84.527344 73.734375 C 84.578125 73.980469 84.601562 74.238281 84.683594 74.472656 C 84.839844 74.945312 85.074219 75.035156 85.523438 74.816406 C 85.75 74.707031 85.949219 74.546875 86.203125 74.488281 C 87.320312 74.230469 88.574219 75.332031 88.519531 76.523438 C 88.503906 76.816406 88.3125 76.925781 88.058594 76.734375 C 87.480469 76.3125 86.816406 76.042969 86.21875 75.648438 C 85.53125 75.191406 85.523438 75.199219 85.238281 75.960938 C 85.15625 76.175781 85.082031 76.394531 84.980469 76.597656 C 84.632812 77.304688 84.269531 78.007812 83.484375 78.441406 C 84.652344 78.5 84.847656 78.605469 85.484375 79.515625 C 85.800781 79.964844 86.109375 80.421875 86.40625 80.882812 C 87.003906 81.8125 87.652344 82.703125 88.160156 83.679688 C 88.292969 83.933594 88.46875 84.1875 88.386719 84.550781 C 87.960938 84.421875 87.808594 84.085938 87.648438 83.773438 C 87.105469 82.730469 86.472656 81.75 85.714844 80.851562 C 85.332031 80.394531 84.972656 79.914062 84.738281 79.359375 C 84.566406 78.949219 84.25 78.75 83.820312 78.757812 C 83.410156 78.761719 83.066406 78.636719 82.742188 78.386719 C 82.34375 78.085938 81.898438 78.050781 81.445312 78.253906 C 80.792969 78.542969 80.148438 78.84375 79.570312 79.269531 C 79.472656 79.335938 79.296875 79.378906 79.402344 79.601562 C 79.527344 79.601562 79.664062 79.605469 79.800781 79.597656 C 80.527344 79.566406 81.230469 79.648438 81.871094 80.011719 C 82.6875 80.476562 83.496094 80.960938 84.234375 81.546875 C 85.53125 82.574219 86.742188 83.703125 88.078125 84.679688 C 88.261719 84.8125 88.417969 84.984375 88.570312 85.15625 C 88.730469 85.332031 88.851562 85.539062 88.730469 85.78125 C 88.628906 85.988281 88.414062 86.019531 88.203125 86.03125 C 87.640625 86.070312 87.101562 85.945312 86.585938 85.738281 C 86.058594 85.519531 85.527344 85.292969 85.011719 85.042969 C 83.816406 84.460938 82.558594 83.992188 81.488281 83.179688 C 80.644531 82.539062 79.824219 81.875 79 81.21875 C 78.816406 81.074219 78.628906 80.90625 78.582031 80.6875 C 78.515625 80.378906 78.351562 80.234375 78.074219 80.109375 C 77.777344 79.980469 77.765625 79.753906 78.003906 79.503906 C 78.179688 79.324219 78.378906 79.167969 78.582031 79.015625 C 79.464844 78.34375 80.394531 77.75 81.46875 77.4375 C 81.964844 77.296875 82.433594 77.253906 82.859375 77.707031 C 83.335938 78.21875 83.621094 78.167969 83.96875 77.546875 C 84.269531 77.011719 84.507812 76.433594 84.792969 75.886719 C 84.9375 75.609375 84.941406 75.425781 84.601562 75.3125 C 84.421875 75.253906 84.332031 75.074219 84.210938 74.9375 C 83.699219 74.355469 83.589844 73.628906 83.4375 72.914062 C 83.230469 71.96875 83.550781 71.246094 84.332031 70.710938 C 84.578125 70.542969 84.84375 70.410156 85.109375 70.269531 C 85.472656 70.078125 85.863281 69.925781 86.210938 69.703125 C 87.800781 68.695312 89.378906 67.671875 90.960938 66.652344 C 91.488281 66.3125 91.941406 65.886719 92.347656 65.417969 C 93.417969 64.179688 93.453125 62.929688 92.492188 61.597656 C 91.894531 60.769531 91.140625 60.105469 90.351562 59.464844 C 89.660156 58.902344 88.910156 58.398438 88.359375 57.675781 C 88.210938 57.480469 88.085938 57.5 87.898438 57.59375 C 87.039062 58.019531 86.449219 58.699219 86.015625 59.535156 C 85.390625 60.742188 84.914062 62.007812 84.589844 63.324219 C 84.320312 64.425781 83.734375 65.289062 82.816406 65.941406 C 82.101562 66.445312 81.390625 66.949219 80.671875 67.445312 C 79.671875 68.136719 78.890625 69.003906 78.3125 70.085938 C 77.1875 72.199219 76.289062 74.402344 75.597656 76.691406 C 74.773438 79.433594 73.972656 82.183594 73.632812 85.042969 C 73.480469 86.324219 73.433594 87.597656 73.691406 88.875 C 73.914062 89.992188 74.492188 90.914062 75.21875 91.757812 C 75.339844 91.902344 75.496094 91.996094 75.65625 92.089844 C 77.046875 92.898438 78.316406 93.886719 79.582031 94.875 C 79.652344 94.933594 79.71875 95 79.785156 95.0625 C 79.90625 95.183594 79.996094 95.332031 79.875 95.488281 C 79.75 95.644531 79.582031 95.574219 79.4375 95.496094 C 78.972656 95.238281 78.527344 94.945312 78.050781 94.726562 C 76.953125 94.226562 75.96875 93.570312 75.066406 92.769531 C 74.398438 92.175781 74.203125 92.238281 74.023438 93.105469 C 73.714844 94.59375 73.085938 95.921875 72.1875 97.140625 C 71.253906 98.410156 69.992188 99.199219 68.476562 99.453125 C 66.066406 99.859375 63.675781 99.789062 61.382812 98.75 C 59.664062 97.96875 57.992188 97.105469 56.371094 96.144531 C 52.507812 93.859375 48.332031 92.445312 43.941406 91.613281 C 40.394531 90.9375 37.128906 91.683594 34.214844 93.808594 C 33 94.691406 32.042969 95.863281 31.171875 97.066406 C 30.1875 98.433594 29.085938 99.683594 27.917969 100.890625 C 27.761719 101.050781 27.5625 101.179688 27.464844 101.457031 C 28.183594 101.886719 28.914062 102.308594 29.632812 102.753906 C 37.25 107.488281 44.511719 112.730469 51.738281 118.019531 C 55.539062 120.800781 59.152344 123.828125 62.9375 126.625 C 68.863281 131.007812 74.84375 135.324219 80.65625 139.859375 C 85.496094 143.632812 90.285156 147.460938 94.628906 151.804688 C 97.101562 154.269531 99.683594 156.621094 102.257812 158.976562 C 102.988281 159.640625 103.753906 160.261719 104.570312 160.820312 C 105.617188 161.535156 106.691406 161.597656 107.839844 161.097656 C 108.691406 160.722656 109.425781 160.179688 110.125 159.582031 C 112.472656 157.566406 114.101562 155.03125 115.425781 152.285156 C 115.757812 151.601562 115.980469 150.878906 116.082031 150.121094 C 116.394531 147.816406 115.953125 145.648438 114.898438 143.597656 C 114.183594 142.199219 113.269531 140.941406 112.167969 139.816406 C 110.609375 138.226562 108.988281 136.699219 107.308594 135.234375 C 105.824219 133.933594 104.371094 132.601562 103.070312 131.105469 C 101.070312 128.800781 99.515625 126.285156 98.867188 123.25 C 98.171875 120 97.992188 116.753906 98.695312 113.496094 C 99.355469 110.425781 100.992188 107.824219 102.832031 105.339844 C 103.253906 104.769531 103.84375 104.441406 104.597656 104.457031 C 104.988281 104.464844 105.375 104.386719 105.765625 104.339844 C 105.953125 104.316406 106.152344 104.308594 106.308594 104.058594 C 104.40625 103.980469 102.574219 103.855469 100.738281 104.070312 C 100.625 104.082031 100.511719 104.101562 100.398438 104.128906 C 99.320312 104.382812 98.222656 104.484375 97.121094 104.527344 C 96.519531 104.550781 95.925781 104.492188 95.347656 104.320312 C 94.179688 103.980469 93.105469 103.386719 91.914062 103.082031 C 91.367188 102.945312 91.246094 102.382812 91.59375 101.917969 C 91.726562 101.738281 91.910156 101.585938 92.089844 101.445312 C 92.636719 101.027344 93.230469 100.679688 93.839844 100.347656 C 95.320312 99.546875 96.933594 99.207031 98.582031 99 C 100.445312 98.769531 102.058594 98.015625 103.457031 96.773438 C 104.523438 95.824219 105.480469 94.777344 106.304688 93.609375 C 107.390625 92.070312 108.476562 90.535156 109.558594 88.996094 C 109.640625 88.875 109.78125 88.777344 109.742188 88.511719 C 109.421875 88.757812 109.132812 88.96875 108.855469 89.195312 C 106.25 91.3125 103.207031 91.6875 100.003906 91.425781 C 99.71875 91.402344 99.445312 91.328125 99.351562 91.011719 C 99.246094 90.664062 99.464844 90.457031 99.714844 90.269531 C 101.226562 89.160156 102.488281 87.792969 103.664062 86.351562 C 105.042969 84.660156 106.378906 82.941406 107.773438 81.261719 C 109.3125 79.402344 110.992188 77.675781 112.84375 76.117188 C 113.617188 75.464844 114.441406 74.878906 115.378906 74.476562 C 116.75 73.890625 118.160156 73.535156 119.671875 73.71875 C 120.1875 73.78125 120.257812 73.695312 120.3125 73.171875 C 120.320312 73.101562 120.320312 73.035156 120.324219 72.964844 C 120.410156 69.960938 120.5 66.964844 120.199219 63.960938 C 119.964844 61.625 119.5625 59.34375 118.824219 57.105469 C 117.527344 53.195312 115.09375 50.292969 111.460938 48.3125 C 109.011719 46.976562 106.492188 46.652344 103.796875 47.183594 C 101.933594 47.554688 100.214844 48.308594 98.496094 49.085938 C 96.191406 50.132812 94.253906 51.636719 92.628906 53.5625 C 91.65625 54.714844 90.773438 55.957031 89.265625 56.808594 Z M 73.347656 82.171875 C 73.980469 79.492188 74.847656 76.96875 75.570312 74.402344 C 75.414062 74.527344 75.304688 74.671875 75.195312 74.816406 C 74.226562 76.078125 73.144531 77.230469 71.941406 78.269531 C 71.246094 78.863281 70.457031 79.15625 69.527344 79.054688 C 69.132812 79.011719 68.804688 78.804688 68.386719 78.628906 C 68.441406 79 68.582031 79.257812 68.726562 79.503906 C 69.214844 80.324219 69.480469 81.214844 69.613281 82.15625 C 69.820312 83.644531 70.910156 84.46875 72.039062 85.242188 C 72.351562 85.457031 72.519531 85.367188 72.65625 84.996094 C 72.832031 84.503906 72.804688 83.996094 72.679688 83.503906 C 72.507812 82.816406 72.3125 82.132812 71.976562 81.496094 C 71.640625 80.859375 71.492188 80.164062 71.363281 79.464844 C 71.335938 79.308594 71.308594 79.121094 71.5 79.050781 C 71.738281 78.964844 71.820312 79.15625 71.886719 79.332031 C 72.039062 79.742188 72.167969 80.15625 72.332031 80.558594 C 72.566406 81.125 72.863281 81.652344 73.347656 82.171875 Z M 87.890625 85.476562 C 87.792969 85.226562 87.644531 85.113281 87.507812 85 C 86.160156 83.898438 84.851562 82.75 83.46875 81.691406 C 82.105469 80.648438 80.515625 80.441406 78.832031 80.339844 C 78.925781 80.847656 79.296875 81.097656 79.617188 81.371094 C 81.699219 83.148438 84.089844 84.386719 86.648438 85.324219 C 87.03125 85.460938 87.425781 85.59375 87.890625 85.476562 Z M 25.566406 102.085938 C 24.988281 101.769531 24.433594 101.636719 23.863281 101.628906 C 23.476562 101.621094 23.082031 101.691406 22.8125 102.03125 C 22.515625 102.40625 22.210938 102.777344 21.933594 103.167969 C 21.742188 103.445312 21.492188 103.800781 21.710938 104.105469 C 21.964844 104.457031 22.394531 104.269531 22.71875 104.132812 C 23.8125 103.679688 24.675781 102.90625 25.566406 102.085938 Z M 107.828125 104.976562 C 108.847656 105.347656 110.847656 104.855469 111.6875 104.0625 C 110.425781 104.484375 109.183594 104.6875 107.828125 104.976562 Z M 87.753906 76.136719 C 87.433594 75.046875 86.910156 74.738281 86.011719 75.128906 C 86.558594 75.550781 87.09375 75.902344 87.753906 76.136719 Z M 72.683594 87.109375 C 72.675781 86.859375 72.855469 86.589844 72.609375 86.367188 C 72.601562 86.359375 72.558594 86.363281 72.550781 86.375 C 72.367188 86.664062 72.617188 86.867188 72.683594 87.109375 Z M 72.683594 87.109375 " fill-opacity="1" fill-rule="nonzero"/></g><g clip-path="url(#256f1c06f7)"><path fill="#000000" d="M 58.777344 51.640625 C 58.429688 52.027344 58.085938 52.417969 57.730469 52.796875 C 51.652344 59.246094 45.25 65.375 39.179688 71.832031 C 34.304688 77.015625 29.320312 82.097656 24.394531 87.230469 C 21.011719 90.757812 17.816406 94.460938 14.5625 98.113281 C 11.144531 101.949219 7.75 105.8125 4.164062 109.5 C 3.0625 110.632812 1.957031 111.769531 0.652344 112.726562 C 0.511719 112.402344 0.746094 112.246094 0.902344 112.078125 C 1.308594 111.636719 1.726562 111.214844 2.136719 110.78125 C 6.730469 105.957031 11.066406 100.90625 15.441406 95.894531 C 20.441406 90.167969 25.660156 84.648438 30.988281 79.230469 C 35.160156 74.992188 39.195312 70.628906 43.355469 66.382812 C 47.871094 61.773438 52.476562 57.257812 57.214844 52.878906 C 57.699219 52.425781 58.222656 52.015625 58.726562 51.589844 C 58.746094 51.605469 58.761719 51.625 58.777344 51.640625 Z M 58.777344 51.640625 " fill-opacity="1" fill-rule="nonzero"/></g><g clip-path="url(#f067fae7cb)"><path fill="#000000" d="M 169.175781 96.371094 C 169.140625 96.5 169.074219 96.628906 169.070312 96.761719 C 169 98.492188 168.394531 100.078125 167.726562 101.636719 C 166.425781 104.664062 164.671875 107.433594 162.769531 110.113281 C 159.886719 114.175781 156.660156 117.96875 153.5 121.816406 C 151.230469 124.582031 148.886719 127.292969 146.753906 130.167969 C 146.402344 130.636719 146.078125 131.121094 145.839844 131.683594 C 146.023438 131.527344 146.207031 131.375 146.386719 131.210938 C 148.59375 129.203125 150.867188 127.269531 153.253906 125.476562 C 153.933594 124.964844 154.625 124.472656 155.390625 124.09375 C 155.742188 123.917969 156.097656 123.753906 156.496094 123.722656 C 157.132812 123.671875 157.441406 124.023438 157.316406 124.65625 C 157.242188 125.023438 157.046875 125.335938 156.835938 125.636719 C 156.375 126.292969 155.832031 126.890625 155.261719 127.457031 C 152.628906 130.074219 149.589844 132.101562 146.222656 133.652344 C 145.746094 133.871094 145.261719 134.117188 144.707031 133.96875 C 144.480469 133.90625 144.371094 134.074219 144.242188 134.199219 C 143.597656 134.820312 142.953125 135.441406 142.3125 136.066406 C 138.269531 140.046875 134.519531 144.292969 130.847656 148.613281 C 126.984375 153.164062 123.253906 157.816406 119.410156 162.378906 C 118.152344 163.871094 116.875 165.34375 115.613281 166.832031 C 115.269531 167.234375 114.949219 167.652344 114.632812 168.074219 C 113.230469 169.957031 111.449219 171.226562 109.0625 171.53125 C 109 171.539062 108.945312 171.59375 108.886719 171.625 C 108.289062 171.625 107.691406 171.625 107.09375 171.625 C 106.804688 171.449219 106.472656 171.5 106.160156 171.441406 C 105.046875 171.226562 103.988281 170.851562 102.980469 170.332031 C 100.128906 168.871094 97.507812 167.058594 94.960938 165.128906 C 90.996094 162.128906 87.335938 158.789062 83.761719 155.34375 C 79.914062 151.632812 76.148438 147.832031 72.199219 144.21875 C 67.800781 140.191406 63.164062 136.488281 57.941406 133.566406 C 54.085938 131.40625 50.113281 129.511719 45.867188 128.226562 C 44.480469 127.808594 43.074219 127.472656 41.617188 127.414062 C 40.96875 127.386719 40.328125 127.425781 39.703125 127.59375 C 39.457031 127.65625 39.222656 127.75 39.011719 127.894531 C 38.589844 128.179688 38.460938 128.527344 38.59375 129.023438 C 38.734375 129.542969 39.03125 129.980469 39.355469 130.402344 C 40.003906 131.238281 40.730469 132.003906 41.492188 132.738281 C 44.125 135.261719 46.769531 137.78125 49.414062 140.296875 C 54.152344 144.804688 58.429688 149.707031 62.074219 155.148438 C 62.726562 156.117188 63.398438 157.078125 63.949219 158.113281 C 64.1875 158.558594 64.414062 159.011719 64.484375 159.519531 C 64.582031 160.238281 64.28125 160.613281 63.554688 160.664062 C 62.722656 160.726562 61.910156 160.523438 61.089844 160.425781 C 58.535156 160.132812 55.976562 159.847656 53.402344 159.761719 C 52.21875 159.722656 51.054688 159.773438 49.964844 160.292969 C 49.90625 160.320312 49.832031 160.347656 49.746094 160.253906 C 50.339844 159.8125 51.011719 159.554688 51.722656 159.414062 C 52.238281 159.3125 52.765625 159.257812 53.296875 159.246094 C 56.457031 159.175781 59.585938 159.488281 62.699219 159.976562 C 63.074219 160.035156 63.546875 160.242188 63.792969 159.875 C 64.023438 159.535156 63.722656 159.132812 63.558594 158.792969 C 63.101562 157.8125 62.484375 156.925781 61.886719 156.027344 C 58.242188 150.53125 53.914062 145.613281 49.164062 141.050781 C 46.75 138.730469 44.332031 136.40625 41.917969 134.082031 C 40.972656 133.171875 40.046875 132.25 39.210938 131.238281 C 38.828125 130.78125 38.464844 130.304688 38.21875 129.757812 C 37.632812 128.464844 38.050781 127.496094 39.417969 127.089844 C 40.585938 126.738281 41.785156 126.804688 42.972656 126.984375 C 45.695312 127.398438 48.257812 128.355469 50.765625 129.449219 C 57.472656 132.371094 63.515625 136.347656 69.089844 141.054688 C 72.898438 144.269531 76.5 147.714844 80.078125 151.179688 C 84.253906 155.21875 88.460938 159.226562 92.984375 162.878906 C 95.773438 165.132812 98.65625 167.261719 101.816406 168.980469 C 103.109375 169.683594 104.4375 170.316406 105.902344 170.589844 C 108.71875 171.113281 111.1875 170.484375 113.230469 168.414062 C 113.777344 167.855469 114.285156 167.265625 114.800781 166.679688 C 120.839844 159.792969 126.210938 152.359375 132.308594 145.523438 C 136.023438 141.359375 139.8125 137.269531 143.925781 133.492188 C 144.21875 133.222656 144.445312 132.929688 144.597656 132.554688 C 144.972656 131.664062 145.527344 130.867188 146.078125 130.078125 C 147.84375 127.5625 149.804688 125.191406 151.722656 122.785156 C 154.84375 118.875 158.078125 115.058594 161.035156 111.015625 C 162.714844 108.71875 164.332031 106.378906 165.65625 103.855469 C 166.609375 102.046875 167.46875 100.199219 167.957031 98.199219 C 168.644531 95.402344 168.226562 92.792969 166.671875 90.363281 C 165.289062 88.203125 163.449219 86.488281 161.433594 84.941406 C 159.863281 83.742188 158.222656 82.644531 156.515625 81.644531 C 154.992188 80.746094 153.503906 79.789062 152.074219 78.75 C 151.710938 78.488281 151.3125 78.234375 151.175781 77.765625 C 151.328125 77.578125 151.492188 77.675781 151.628906 77.707031 C 152.3125 77.859375 152.9375 78.148438 153.523438 78.511719 C 156.414062 80.304688 159.289062 82.121094 161.996094 84.179688 C 163.570312 85.378906 165.039062 86.695312 166.292969 88.238281 C 167.535156 89.765625 168.511719 91.4375 168.957031 93.382812 C 169.0625 93.828125 168.929688 94.300781 169.171875 94.71875 C 169.175781 95.269531 169.175781 95.820312 169.175781 96.371094 Z M 156.695312 124.324219 C 156.15625 124.328125 155.757812 124.5625 155.367188 124.78125 C 154.582031 125.222656 153.871094 125.765625 153.167969 126.320312 C 150.460938 128.449219 147.890625 130.738281 145.390625 133.101562 C 145.25 133.234375 145.042969 133.332031 145.03125 133.609375 C 145.585938 133.585938 146.046875 133.34375 146.507812 133.105469 C 149.734375 131.433594 152.617188 129.296875 155.136719 126.679688 C 155.5625 126.234375 155.980469 125.773438 156.328125 125.261719 C 156.507812 125 156.710938 124.742188 156.695312 124.324219 Z M 156.695312 124.324219 " fill-opacity="1" fill-rule="nonzero"/></g><g clip-path="url(#8b2ff46324)"><path fill="#000000" d="M 72.722656 88.023438 C 72.371094 88.761719 71.441406 89.191406 70.644531 89.050781 C 70.230469 88.980469 69.855469 88.808594 69.496094 88.597656 C 67.277344 87.300781 65.621094 85.441406 64.289062 83.296875 C 63.441406 81.929688 62.769531 80.46875 62.21875 78.957031 C 62.132812 78.722656 62.0625 78.480469 61.976562 78.242188 C 61.625 77.222656 61.78125 76.265625 62.285156 75.328125 C 63.039062 73.9375 63.667969 72.484375 64.300781 71.035156 C 64.8125 69.878906 65.175781 68.667969 65.445312 67.4375 C 65.730469 66.121094 66.371094 65.007812 67.246094 64.011719 C 67.789062 63.390625 68.367188 62.800781 68.921875 62.1875 C 70.632812 60.292969 72.242188 58.320312 73.546875 56.121094 C 75.535156 52.769531 76.667969 49.132812 77.019531 45.269531 C 77.382812 41.3125 77.304688 37.347656 76.976562 33.386719 C 76.808594 31.398438 76.75 29.40625 76.746094 27.410156 C 76.730469 19.707031 76.726562 12.003906 76.722656 4.300781 C 76.722656 3.382812 76.761719 2.464844 76.890625 1.554688 C 76.929688 1.289062 76.949219 1.019531 77.144531 0.625 C 77.191406 1.472656 77.246094 2.160156 77.269531 2.855469 C 77.378906 5.96875 77.453125 9.089844 77.597656 12.203125 C 77.753906 15.570312 77.714844 18.941406 77.738281 22.3125 C 77.765625 26.644531 77.957031 30.972656 78.210938 35.300781 C 78.402344 38.527344 78.417969 41.769531 77.988281 44.984375 C 77.28125 50.292969 75.539062 55.21875 72.28125 59.546875 C 71.105469 61.105469 69.953125 62.679688 68.617188 64.105469 C 67.75 65.03125 67.238281 66.109375 66.851562 67.316406 C 65.914062 70.238281 64.972656 73.171875 63.320312 75.800781 C 62.859375 76.53125 62.785156 77.277344 63.082031 78.09375 C 63.796875 80.042969 64.710938 81.886719 65.996094 83.527344 C 66.746094 84.484375 67.496094 85.441406 68.386719 86.277344 C 69.011719 86.863281 69.6875 87.375 70.414062 87.8125 C 70.71875 87.996094 71.125 88.28125 71.421875 87.996094 C 71.738281 87.699219 71.511719 87.265625 71.328125 86.917969 C 71.003906 86.308594 70.566406 85.773438 70.089844 85.273438 C 69.839844 85.007812 69.589844 84.738281 69.351562 84.457031 C 69.171875 84.246094 69.015625 84.011719 68.988281 83.726562 C 68.851562 82.355469 68.480469 81.042969 68.003906 79.757812 C 67.828125 79.285156 67.617188 78.824219 67.386719 78.378906 C 66.703125 77.054688 66.640625 75.71875 67.179688 74.328125 C 67.734375 72.898438 68.550781 71.632812 69.460938 70.417969 C 70.207031 69.429688 70.949219 68.4375 71.816406 67.542969 C 71.910156 67.445312 71.984375 67.324219 72.160156 67.273438 C 72.25 67.574219 72.050781 67.789062 71.933594 68.007812 C 71.382812 69.046875 70.660156 69.96875 69.9375 70.894531 C 69.113281 71.949219 68.449219 73.09375 67.960938 74.34375 C 67.738281 74.902344 67.585938 75.472656 67.636719 76.082031 C 67.761719 77.632812 69.363281 78.871094 71 77.859375 C 71.332031 77.65625 71.667969 77.449219 71.96875 77.203125 C 72.683594 76.625 73.363281 76.003906 73.960938 75.304688 C 74.378906 74.820312 74.734375 74.269531 75.1875 73.820312 C 76.3125 72.695312 76.992188 71.296875 77.652344 69.894531 C 78.382812 68.347656 79.4375 67.132812 80.953125 66.320312 C 81.398438 66.085938 81.804688 65.777344 82.238281 65.523438 C 83.222656 64.9375 83.828125 64.097656 84.078125 62.980469 C 84.257812 62.175781 84.4375 61.367188 84.730469 60.59375 C 84.890625 60.164062 85.054688 59.738281 85.246094 59.320312 C 85.757812 58.222656 86.535156 57.378906 87.660156 56.878906 C 87.785156 56.824219 87.90625 56.753906 88.03125 56.695312 C 89.625 55.996094 90.917969 54.929688 91.941406 53.527344 C 92.5 52.769531 93.117188 52.054688 93.789062 51.394531 C 97.050781 48.214844 100.992188 46.457031 105.488281 45.925781 C 107.476562 45.691406 109.375 46.121094 111.15625 47.035156 C 112.242188 47.59375 113.273438 48.238281 114.257812 48.957031 C 116.984375 50.949219 118.804688 53.582031 119.890625 56.753906 C 120.652344 58.976562 121.078125 61.261719 121.328125 63.597656 C 121.65625 66.648438 121.558594 69.6875 121.316406 72.730469 C 121.300781 72.9375 121.296875 73.140625 121.292969 73.347656 C 121.292969 73.390625 121.328125 73.429688 121.367188 73.523438 C 122.546875 73.3125 123.742188 73.140625 124.894531 72.742188 C 127.898438 71.691406 130.742188 70.296875 133.457031 68.648438 C 135.890625 67.171875 138.265625 65.59375 140.628906 64.007812 C 141.289062 63.5625 141.257812 63.660156 140.929688 62.996094 C 139.816406 60.757812 138.710938 58.515625 137.339844 56.417969 C 136.109375 54.53125 134.550781 52.945312 132.714844 51.652344 C 130.476562 50.078125 128.191406 48.570312 125.761719 47.316406 C 122.238281 45.5 118.53125 44.269531 114.527344 44.058594 C 112.738281 43.964844 110.949219 43.824219 109.15625 43.824219 C 108.171875 43.824219 107.195312 43.890625 106.210938 44.0625 C 106.925781 44.199219 107.636719 44.34375 108.355469 44.472656 C 110.992188 44.960938 113.375 46.070312 115.683594 47.382812 C 115.960938 47.539062 116.234375 47.714844 116.433594 47.976562 C 116.550781 48.128906 116.617188 48.300781 116.472656 48.476562 C 116.324219 48.65625 116.148438 48.613281 115.976562 48.523438 C 115.875 48.46875 115.773438 48.410156 115.679688 48.34375 C 113.105469 46.683594 110.242188 45.816406 107.246094 45.328125 C 106.476562 45.199219 105.695312 45.136719 104.921875 45.046875 C 103.21875 44.84375 101.578125 45.117188 99.976562 45.683594 C 99.042969 46.015625 98.140625 46.414062 97.242188 46.824219 C 94.011719 48.285156 91.726562 50.722656 90.007812 53.75 C 89.675781 54.328125 89.34375 54.90625 89.019531 55.484375 C 88.949219 55.605469 88.875 55.714844 88.753906 55.789062 C 88.402344 56.007812 88.203125 55.925781 88.167969 55.503906 C 88.117188 54.839844 88.074219 54.175781 88.066406 53.511719 C 88.050781 51.859375 87.984375 50.207031 88.066406 48.558594 C 88.269531 44.402344 88.785156 40.296875 90.441406 36.414062 C 91.074219 34.9375 91.652344 33.441406 92.28125 31.964844 C 93.894531 28.203125 95.105469 24.320312 95.921875 20.304688 C 96.71875 16.378906 97.566406 12.457031 98.398438 8.539062 C 98.539062 7.871094 98.722656 7.214844 98.925781 6.5625 C 99.015625 6.957031 98.871094 7.320312 98.808594 7.691406 C 98.050781 12 97.324219 16.3125 96.519531 20.613281 C 95.820312 24.371094 94.691406 27.992188 93.242188 31.523438 C 92.410156 33.558594 91.578125 35.597656 90.757812 37.636719 C 89.839844 39.933594 89.394531 42.328125 89.132812 44.785156 C 88.832031 47.625 88.992188 50.464844 89.019531 53.304688 C 89.019531 53.390625 89.039062 53.480469 89.046875 53.570312 C 89.285156 53.601562 89.320312 53.402344 89.398438 53.285156 C 89.929688 52.480469 90.484375 51.695312 91.054688 50.917969 C 92.484375 48.964844 94.324219 47.519531 96.472656 46.441406 C 97.765625 45.792969 99.101562 45.234375 100.492188 44.816406 C 100.746094 44.742188 100.964844 44.683594 101 44.359375 C 101.027344 44.128906 101.234375 44.027344 101.441406 43.96875 C 101.726562 43.886719 102.019531 43.8125 102.324219 43.832031 C 103.179688 43.882812 104.011719 43.714844 104.84375 43.546875 C 107.480469 43.023438 110.144531 43.019531 112.8125 43.179688 C 114.050781 43.253906 115.289062 43.371094 116.523438 43.492188 C 118.273438 43.664062 119.945312 44.160156 121.601562 44.71875 C 125.847656 46.160156 129.609375 48.480469 133.242188 51.050781 C 134.757812 52.121094 136.085938 53.371094 137.261719 54.796875 C 137.730469 55.363281 138.164062 55.953125 138.542969 56.582031 C 139.753906 58.582031 140.988281 60.570312 142.042969 62.664062 C 142.082031 62.742188 142.144531 62.808594 142.214844 62.90625 C 149.21875 58.125 156.296875 53.488281 163.207031 48.578125 C 163.082031 48.71875 162.964844 48.871094 162.832031 49.007812 C 161.777344 50.097656 160.570312 51.023438 159.367188 51.941406 C 154.988281 55.292969 150.40625 58.359375 145.902344 61.535156 C 145.078125 62.117188 144.226562 62.660156 143.398438 63.230469 C 141.449219 64.574219 139.53125 65.953125 137.570312 67.277344 C 134.015625 69.679688 130.289062 71.730469 126.296875 73.316406 C 124.664062 73.96875 122.96875 74.324219 121.230469 74.570312 C 120.3125 74.703125 119.398438 74.617188 118.484375 74.722656 C 116.773438 74.917969 115.238281 75.511719 113.894531 76.597656 C 112.375 77.832031 110.996094 79.210938 109.714844 80.6875 C 108.257812 82.371094 106.898438 84.136719 105.550781 85.90625 C 104.421875 87.390625 103.167969 88.761719 101.78125 90.007812 C 101.703125 90.078125 101.582031 90.125 101.605469 90.3125 C 102.449219 90.402344 103.28125 90.242188 104.113281 90.140625 C 105.484375 89.972656 106.75 89.488281 107.890625 88.726562 C 109.6875 87.519531 111.390625 86.199219 112.785156 84.527344 C 112.816406 84.492188 112.84375 84.453125 112.875 84.421875 C 113.171875 84.117188 113.425781 84.058594 113.652344 84.242188 C 113.886719 84.433594 113.890625 84.695312 113.644531 85.03125 C 113.382812 85.382812 113.101562 85.714844 112.847656 86.070312 C 111.035156 88.609375 109.234375 91.160156 107.421875 93.699219 C 106.5 94.988281 105.445312 96.167969 104.328125 97.296875 C 102.722656 98.925781 100.792969 99.878906 98.535156 100.230469 C 97.125 100.449219 95.742188 100.800781 94.476562 101.5 C 94.179688 101.664062 93.859375 101.800781 93.554688 102.085938 C 95.074219 102.8125 96.570312 103.367188 98.257812 103.070312 C 99.640625 102.828125 101.023438 102.59375 102.386719 102.265625 C 103.644531 101.964844 104.828125 101.472656 105.972656 100.871094 C 108.007812 99.808594 109.988281 98.640625 111.890625 97.351562 C 112.460938 96.964844 113.042969 96.597656 113.625 96.230469 C 113.816406 96.109375 114.03125 96.015625 114.238281 95.921875 C 114.441406 95.824219 114.652344 95.808594 114.789062 96.019531 C 114.925781 96.226562 114.824219 96.417969 114.675781 96.578125 C 114.578125 96.675781 114.480469 96.773438 114.375 96.863281 C 114.144531 97.050781 113.917969 97.25 113.671875 97.414062 C 110.6875 99.398438 107.726562 101.417969 104.417969 102.847656 C 104.359375 102.875 104.308594 102.925781 104.246094 102.96875 C 104.34375 103.175781 104.527344 103.085938 104.667969 103.097656 C 107.1875 103.351562 109.550781 102.804688 111.804688 101.699219 C 112.464844 101.378906 113.144531 101.09375 113.816406 100.792969 C 113.960938 100.730469 114.113281 100.671875 114.269531 100.640625 C 114.410156 100.605469 114.542969 100.65625 114.617188 100.796875 C 114.691406 100.941406 114.628906 101.070312 114.523438 101.164062 C 114.390625 101.289062 114.242188 101.398438 114.089844 101.503906 C 113.449219 101.957031 112.738281 102.28125 112.003906 102.554688 C 111.289062 102.816406 110.636719 103.191406 109.988281 103.585938 C 110.429688 103.585938 110.828125 103.433594 111.238281 103.3125 C 113.351562 102.675781 115.238281 101.582031 117.046875 100.355469 C 118.378906 99.453125 119.652344 98.46875 120.824219 97.367188 C 123.738281 94.628906 126.664062 91.910156 129.550781 89.148438 C 131.292969 87.484375 133.328125 86.234375 135.515625 85.234375 C 135.722656 85.140625 135.933594 85.042969 136.148438 84.960938 C 138.207031 84.167969 140.042969 83.023438 141.730469 81.609375 C 144.378906 79.386719 147.246094 77.476562 150.300781 75.867188 C 154.347656 73.738281 158.523438 71.871094 162.703125 70.027344 C 163.03125 69.882812 163.359375 69.710938 163.78125 69.691406 C 163.652344 69.988281 163.40625 70.078125 163.203125 70.199219 C 161.945312 70.96875 160.628906 71.613281 159.308594 72.265625 C 156.984375 73.414062 154.667969 74.589844 152.371094 75.792969 C 148.894531 77.609375 145.628906 79.730469 142.613281 82.234375 C 140.816406 83.730469 138.828125 84.902344 136.652344 85.757812 C 135.382812 86.257812 134.238281 86.988281 133.109375 87.738281 C 132.898438 87.878906 132.703125 88.039062 132.488281 88.171875 C 129.734375 89.890625 127.519531 92.234375 125.203125 94.457031 C 123.167969 96.414062 121.121094 98.359375 119.0625 100.292969 C 117.023438 102.203125 114.789062 103.84375 112.273438 105.078125 C 111.71875 105.351562 111.148438 105.601562 110.570312 105.828125 C 109.40625 106.285156 108.210938 106.386719 106.984375 106.085938 C 106.382812 105.9375 105.765625 105.859375 105.148438 105.808594 C 104.234375 105.726562 103.476562 105.976562 102.964844 106.789062 C 102.175781 108.027344 101.382812 109.257812 100.753906 110.59375 C 99.800781 112.621094 99.378906 114.757812 99.300781 116.984375 C 99.207031 119.597656 99.542969 122.148438 100.328125 124.644531 C 100.757812 126.015625 101.441406 127.257812 102.3125 128.398438 C 103.765625 130.300781 105.378906 132.054688 107.207031 133.605469 C 109.171875 135.273438 111.054688 137.019531 112.820312 138.890625 C 114.042969 140.1875 115.0625 141.625 115.859375 143.210938 C 117.039062 145.558594 117.445312 148.027344 116.898438 150.621094 C 116.789062 151.140625 116.636719 151.644531 116.40625 152.121094 C 114.976562 155.078125 113.191406 157.78125 110.695312 159.972656 C 109.867188 160.703125 108.972656 161.335938 107.933594 161.757812 C 106.667969 162.269531 105.476562 162.195312 104.3125 161.46875 C 103.351562 160.875 102.464844 160.1875 101.617188 159.449219 C 98.582031 156.8125 95.574219 154.148438 92.660156 151.382812 C 88.839844 147.757812 84.6875 144.53125 80.550781 141.28125 C 74.566406 136.585938 68.320312 132.25 62.222656 127.710938 C 58.757812 125.132812 55.40625 122.410156 51.976562 119.785156 C 47.453125 116.324219 42.746094 113.117188 38.097656 109.820312 C 34.6875 107.402344 31.164062 105.152344 27.550781 103.050781 C 27.175781 102.832031 26.8125 102.46875 26.394531 102.484375 C 26 102.5 25.75 102.960938 25.429688 103.210938 C 24.886719 103.640625 24.351562 104.070312 23.746094 104.40625 C 23.175781 104.722656 22.574219 104.945312 21.910156 104.894531 C 21.195312 104.84375 20.820312 104.398438 20.902344 103.703125 C 21.011719 102.8125 21.359375 101.980469 21.972656 101.363281 C 22.792969 100.535156 23.816406 100.101562 25.03125 100.511719 C 25.335938 100.613281 25.675781 100.640625 25.949219 100.792969 C 26.5 101.101562 26.839844 100.902344 27.238281 100.488281 C 28.113281 99.578125 28.988281 98.667969 29.777344 97.679688 C 30.605469 96.636719 31.492188 95.640625 32.378906 94.65625 C 34.351562 92.460938 36.859375 91.207031 39.769531 90.714844 C 41.933594 90.351562 44.035156 90.691406 46.117188 91.207031 C 49.582031 92.0625 52.957031 93.175781 56.109375 94.894531 C 58.105469 95.980469 60.214844 96.839844 62.292969 97.757812 C 63.339844 98.222656 64.433594 98.460938 65.5625 98.527344 C 66.523438 98.578125 67.488281 98.632812 68.449219 98.457031 C 69.574219 98.25 70.542969 97.765625 71.296875 96.90625 C 72.382812 95.667969 73.277344 94.320312 73.535156 92.640625 C 73.5625 92.460938 73.574219 92.234375 73.6875 92.125 C 74.097656 91.722656 73.855469 91.421875 73.621094 91.0625 C 73.050781 90.183594 72.824219 89.179688 72.722656 88.023438 Z M 81.648438 77.722656 C 81.0625 77.941406 80.449219 78.101562 79.992188 78.578125 C 80.550781 78.363281 81.085938 78.101562 81.621094 77.835938 C 81.644531 77.824219 81.632812 77.753906 81.644531 77.714844 C 81.898438 77.855469 82.167969 77.839844 82.546875 77.863281 C 82.203125 77.527344 81.914062 77.71875 81.648438 77.722656 Z M 89.265625 56.808594 C 90.375 57.054688 91.203125 57.496094 92.007812 57.992188 C 93.230469 58.742188 94.257812 59.726562 95.308594 60.6875 C 96.785156 62.042969 98.34375 63.28125 100.121094 64.234375 C 100.453125 64.414062 100.777344 64.496094 101.167969 64.453125 C 103.117188 64.246094 105.011719 64.460938 106.867188 65.125 C 109.136719 65.9375 110.726562 67.382812 111.410156 69.734375 C 111.539062 70.183594 111.613281 70.628906 111.527344 71.089844 C 111.492188 71.261719 111.390625 71.398438 111.207031 71.394531 C 111.058594 71.394531 110.960938 71.28125 110.921875 71.136719 C 110.847656 70.875 110.785156 70.605469 110.714844 70.339844 C 110.414062 69.230469 109.878906 68.238281 109.007812 67.488281 C 108.226562 66.820312 107.351562 66.363281 106.238281 66.351562 C 105.351562 66.339844 104.453125 66.203125 103.5625 66.109375 C 102.675781 66.019531 101.789062 65.871094 100.90625 65.71875 C 100.488281 65.648438 100.082031 65.515625 100.0625 64.976562 C 100.054688 64.769531 99.898438 64.71875 99.757812 64.644531 C 97.839844 63.625 96.140625 62.300781 94.558594 60.820312 C 93.703125 60.019531 92.851562 59.214844 91.847656 58.59375 C 91.191406 58.1875 90.507812 57.835938 89.640625 57.585938 C 89.863281 57.894531 90.097656 58 90.300781 58.128906 C 91.652344 58.988281 92.664062 60.152344 93.429688 61.546875 C 94.058594 62.695312 94.011719 63.828125 93.335938 64.941406 C 92.765625 65.878906 92 66.628906 91.0625 67.199219 C 89.042969 68.433594 87.121094 69.820312 85.136719 71.101562 C 84.84375 71.289062 84.574219 71.503906 84.355469 71.773438 C 84.144531 72.03125 84.050781 72.332031 84.058594 72.667969 C 84.0625 72.933594 84.109375 73.152344 84.375 73.296875 C 84.527344 73.378906 84.5 73.578125 84.527344 73.734375 C 84.578125 73.980469 84.601562 74.238281 84.683594 74.472656 C 84.839844 74.945312 85.074219 75.035156 85.523438 74.816406 C 85.75 74.707031 85.949219 74.546875 86.203125 74.488281 C 87.320312 74.230469 88.574219 75.332031 88.519531 76.523438 C 88.503906 76.816406 88.3125 76.925781 88.058594 76.734375 C 87.480469 76.3125 86.816406 76.042969 86.21875 75.648438 C 85.53125 75.191406 85.523438 75.199219 85.238281 75.960938 C 85.15625 76.175781 85.082031 76.394531 84.980469 76.597656 C 84.632812 77.304688 84.269531 78.007812 83.484375 78.441406 C 84.652344 78.5 84.847656 78.605469 85.484375 79.515625 C 85.800781 79.964844 86.109375 80.421875 86.40625 80.882812 C 87.003906 81.8125 87.652344 82.703125 88.160156 83.679688 C 88.292969 83.933594 88.46875 84.1875 88.386719 84.550781 C 87.960938 84.421875 87.808594 84.085938 87.648438 83.773438 C 87.105469 82.730469 86.472656 81.75 85.714844 80.851562 C 85.332031 80.394531 84.972656 79.914062 84.738281 79.359375 C 84.566406 78.949219 84.25 78.75 83.820312 78.757812 C 83.410156 78.761719 83.066406 78.636719 82.742188 78.386719 C 82.34375 78.085938 81.898438 78.050781 81.445312 78.253906 C 80.792969 78.542969 80.148438 78.84375 79.570312 79.269531 C 79.472656 79.335938 79.296875 79.378906 79.402344 79.601562 C 79.527344 79.601562 79.664062 79.605469 79.800781 79.597656 C 80.527344 79.566406 81.230469 79.648438 81.871094 80.011719 C 82.6875 80.476562 83.496094 80.960938 84.234375 81.546875 C 85.53125 82.574219 86.742188 83.703125 88.078125 84.679688 C 88.261719 84.8125 88.417969 84.984375 88.570312 85.15625 C 88.730469 85.332031 88.851562 85.539062 88.730469 85.78125 C 88.628906 85.988281 88.414062 86.019531 88.203125 86.03125 C 87.640625 86.070312 87.101562 85.945312 86.585938 85.738281 C 86.058594 85.519531 85.527344 85.292969 85.011719 85.042969 C 83.816406 84.460938 82.558594 83.992188 81.488281 83.179688 C 80.644531 82.539062 79.824219 81.875 79 81.21875 C 78.816406 81.074219 78.628906 80.90625 78.582031 80.6875 C 78.515625 80.378906 78.351562 80.234375 78.074219 80.109375 C 77.777344 79.980469 77.765625 79.753906 78.003906 79.503906 C 78.179688 79.324219 78.378906 79.167969 78.582031 79.015625 C 79.464844 78.34375 80.394531 77.75 81.46875 77.4375 C 81.964844 77.296875 82.433594 77.253906 82.859375 77.707031 C 83.335938 78.21875 83.621094 78.167969 83.96875 77.546875 C 84.269531 77.011719 84.507812 76.433594 84.792969 75.886719 C 84.9375 75.609375 84.941406 75.425781 84.601562 75.3125 C 84.421875 75.253906 84.332031 75.074219 84.210938 74.9375 C 83.699219 74.355469 83.589844 73.628906 83.4375 72.914062 C 83.230469 71.96875 83.550781 71.246094 84.332031 70.710938 C 84.578125 70.542969 84.84375 70.410156 85.109375 70.269531 C 85.472656 70.078125 85.863281 69.925781 86.210938 69.703125 C 87.800781 68.695312 89.378906 67.671875 90.960938 66.652344 C 91.488281 66.3125 91.941406 65.886719 92.347656 65.417969 C 93.417969 64.179688 93.453125 62.929688 92.492188 61.597656 C 91.894531 60.769531 91.140625 60.105469 90.351562 59.464844 C 89.660156 58.902344 88.910156 58.398438 88.359375 57.675781 C 88.210938 57.480469 88.085938 57.5 87.898438 57.59375 C 87.039062 58.019531 86.449219 58.699219 86.015625 59.535156 C 85.390625 60.742188 84.914062 62.007812 84.589844 63.324219 C 84.320312 64.425781 83.734375 65.289062 82.816406 65.941406 C 82.101562 66.445312 81.390625 66.949219 80.671875 67.445312 C 79.671875 68.136719 78.890625 69.003906 78.3125 70.085938 C 77.1875 72.199219 76.289062 74.402344 75.597656 76.691406 C 74.773438 79.433594 73.972656 82.183594 73.632812 85.042969 C 73.480469 86.324219 73.433594 87.597656 73.691406 88.875 C 73.914062 89.992188 74.492188 90.914062 75.21875 91.757812 C 75.339844 91.902344 75.496094 91.996094 75.65625 92.089844 C 77.046875 92.898438 78.316406 93.886719 79.582031 94.875 C 79.652344 94.933594 79.71875 95 79.785156 95.0625 C 79.90625 95.183594 79.996094 95.332031 79.875 95.488281 C 79.75 95.644531 79.582031 95.574219 79.4375 95.496094 C 78.972656 95.238281 78.527344 94.945312 78.050781 94.726562 C 76.953125 94.226562 75.96875 93.570312 75.066406 92.769531 C 74.398438 92.175781 74.203125 92.238281 74.023438 93.105469 C 73.714844 94.59375 73.085938 95.921875 72.1875 97.140625 C 71.253906 98.410156 69.992188 99.199219 68.476562 99.453125 C 66.066406 99.859375 63.675781 99.789062 61.382812 98.75 C 59.664062 97.96875 57.992188 97.105469 56.371094 96.144531 C 52.507812 93.859375 48.332031 92.445312 43.941406 91.613281 C 40.394531 90.9375 37.128906 91.683594 34.214844 93.808594 C 33 94.691406 32.042969 95.863281 31.171875 97.066406 C 30.1875 98.433594 29.085938 99.683594 27.917969 100.890625 C 27.761719 101.050781 27.5625 101.179688 27.464844 101.457031 C 28.183594 101.886719 28.914062 102.308594 29.632812 102.753906 C 37.25 107.488281 44.511719 112.730469 51.738281 118.019531 C 55.539062 120.800781 59.152344 123.828125 62.9375 126.625 C 68.863281 131.007812 74.84375 135.324219 80.65625 139.859375 C 85.496094 143.632812 90.285156 147.460938 94.628906 151.804688 C 97.101562 154.269531 99.683594 156.621094 102.257812 158.976562 C 102.988281 159.640625 103.753906 160.261719 104.570312 160.820312 C 105.617188 161.535156 106.691406 161.597656 107.839844 161.097656 C 108.691406 160.722656 109.425781 160.179688 110.125 159.582031 C 112.472656 157.566406 114.101562 155.03125 115.425781 152.285156 C 115.757812 151.601562 115.980469 150.878906 116.082031 150.121094 C 116.394531 147.816406 115.953125 145.648438 114.898438 143.597656 C 114.183594 142.199219 113.269531 140.941406 112.167969 139.816406 C 110.609375 138.226562 108.988281 136.699219 107.308594 135.234375 C 105.824219 133.933594 104.371094 132.601562 103.070312 131.105469 C 101.070312 128.800781 99.515625 126.285156 98.867188 123.25 C 98.171875 120 97.992188 116.753906 98.695312 113.496094 C 99.355469 110.425781 100.992188 107.824219 102.832031 105.339844 C 103.253906 104.769531 103.84375 104.441406 104.597656 104.457031 C 104.988281 104.464844 105.375 104.386719 105.765625 104.339844 C 105.953125 104.316406 106.152344 104.308594 106.308594 104.058594 C 104.40625 103.980469 102.574219 103.855469 100.738281 104.070312 C 100.625 104.082031 100.511719 104.101562 100.398438 104.128906 C 99.320312 104.382812 98.222656 104.484375 97.121094 104.527344 C 96.519531 104.550781 95.925781 104.492188 95.347656 104.320312 C 94.179688 103.980469 93.105469 103.386719 91.914062 103.082031 C 91.367188 102.945312 91.246094 102.382812 91.59375 101.917969 C 91.726562 101.738281 91.910156 101.585938 92.089844 101.445312 C 92.636719 101.027344 93.230469 100.679688 93.839844 100.347656 C 95.320312 99.546875 96.933594 99.207031 98.582031 99 C 100.445312 98.769531 102.058594 98.015625 103.457031 96.773438 C 104.523438 95.824219 105.480469 94.777344 106.304688 93.609375 C 107.390625 92.070312 108.476562 90.535156 109.558594 88.996094 C 109.640625 88.875 109.78125 88.777344 109.742188 88.511719 C 109.421875 88.757812 109.132812 88.96875 108.855469 89.195312 C 106.25 91.3125 103.207031 91.6875 100.003906 91.425781 C 99.71875 91.402344 99.445312 91.328125 99.351562 91.011719 C 99.246094 90.664062 99.464844 90.457031 99.714844 90.269531 C 101.226562 89.160156 102.488281 87.792969 103.664062 86.351562 C 105.042969 84.660156 106.378906 82.941406 107.773438 81.261719 C 109.3125 79.402344 110.992188 77.675781 112.84375 76.117188 C 113.617188 75.464844 114.441406 74.878906 115.378906 74.476562 C 116.75 73.890625 118.160156 73.535156 119.671875 73.71875 C 120.1875 73.78125 120.257812 73.695312 120.3125 73.171875 C 120.320312 73.101562 120.320312 73.035156 120.324219 72.964844 C 120.410156 69.960938 120.5 66.964844 120.199219 63.960938 C 119.964844 61.625 119.5625 59.34375 118.824219 57.105469 C 117.527344 53.195312 115.09375 50.292969 111.460938 48.3125 C 109.011719 46.976562 106.492188 46.652344 103.796875 47.183594 C 101.933594 47.554688 100.214844 48.308594 98.496094 49.085938 C 96.191406 50.132812 94.253906 51.636719 92.628906 53.5625 C 91.65625 54.714844 90.773438 55.957031 89.265625 56.808594 Z M 73.347656 82.171875 C 73.980469 79.492188 74.847656 76.96875 75.570312 74.402344 C 75.414062 74.527344 75.304688 74.671875 75.195312 74.816406 C 74.226562 76.078125 73.144531 77.230469 71.941406 78.269531 C 71.246094 78.863281 70.457031 79.15625 69.527344 79.054688 C 69.132812 79.011719 68.804688 78.804688 68.386719 78.628906 C 68.441406 79 68.582031 79.257812 68.726562 79.503906 C 69.214844 80.324219 69.480469 81.214844 69.613281 82.15625 C 69.820312 83.644531 70.910156 84.46875 72.039062 85.242188 C 72.351562 85.457031 72.519531 85.367188 72.65625 84.996094 C 72.832031 84.503906 72.804688 83.996094 72.679688 83.503906 C 72.507812 82.816406 72.3125 82.132812 71.976562 81.496094 C 71.640625 80.859375 71.492188 80.164062 71.363281 79.464844 C 71.335938 79.308594 71.308594 79.121094 71.5 79.050781 C 71.738281 78.964844 71.820312 79.15625 71.886719 79.332031 C 72.039062 79.742188 72.167969 80.15625 72.332031 80.558594 C 72.566406 81.125 72.863281 81.652344 73.347656 82.171875 Z M 87.890625 85.476562 C 87.792969 85.226562 87.644531 85.113281 87.507812 85 C 86.160156 83.898438 84.851562 82.75 83.46875 81.691406 C 82.105469 80.648438 80.515625 80.441406 78.832031 80.339844 C 78.925781 80.847656 79.296875 81.097656 79.617188 81.371094 C 81.699219 83.148438 84.089844 84.386719 86.648438 85.324219 C 87.03125 85.460938 87.425781 85.59375 87.890625 85.476562 Z M 25.566406 102.085938 C 24.988281 101.769531 24.433594 101.636719 23.863281 101.628906 C 23.476562 101.621094 23.082031 101.691406 22.8125 102.03125 C 22.515625 102.40625 22.210938 102.777344 21.933594 103.167969 C 21.742188 103.445312 21.492188 103.800781 21.710938 104.105469 C 21.964844 104.457031 22.394531 104.269531 22.71875 104.132812 C 23.8125 103.679688 24.675781 102.90625 25.566406 102.085938 Z M 107.828125 104.976562 C 108.847656 105.347656 110.847656 104.855469 111.6875 104.0625 C 110.425781 104.484375 109.183594 104.6875 107.828125 104.976562 Z M 87.753906 76.136719 C 87.433594 75.046875 86.910156 74.738281 86.011719 75.128906 C 86.558594 75.550781 87.09375 75.902344 87.753906 76.136719 Z M 72.683594 87.109375 C 72.675781 86.859375 72.855469 86.589844 72.609375 86.367188 C 72.601562 86.359375 72.558594 86.363281 72.550781 86.375 C 72.367188 86.664062 72.617188 86.867188 72.683594 87.109375 Z M 72.683594 87.109375 " fill-opacity="1" fill-rule="nonzero"/></g><g clip-path="url(#ed1963afe9)"><path fill="#000000" d="M 58.777344 51.640625 C 58.429688 52.027344 58.085938 52.417969 57.730469 52.796875 C 51.652344 59.246094 45.25 65.375 39.179688 71.832031 C 34.304688 77.015625 29.320312 82.097656 24.394531 87.230469 C 21.011719 90.757812 17.816406 94.460938 14.5625 98.113281 C 11.144531 101.949219 7.75 105.8125 4.164062 109.5 C 3.0625 110.632812 1.957031 111.769531 0.652344 112.726562 C 0.511719 112.402344 0.746094 112.246094 0.902344 112.078125 C 1.308594 111.636719 1.726562 111.214844 2.136719 110.78125 C 6.730469 105.957031 11.066406 100.90625 15.441406 95.894531 C 20.441406 90.167969 25.660156 84.648438 30.988281 79.230469 C 35.160156 74.992188 39.195312 70.628906 43.355469 66.382812 C 47.871094 61.773438 52.476562 57.257812 57.214844 52.878906 C 57.699219 52.425781 58.222656 52.015625 58.726562 51.589844 C 58.746094 51.605469 58.761719 51.625 58.777344 51.640625 Z M 58.777344 51.640625 " fill-opacity="1" fill-rule="nonzero"/></g></svg>