<svg xmlns="http://www.w3.org/2000/svg" xmlns:xlink="http://www.w3.org/1999/xlink" width="500" zoomAndPan="magnify" viewBox="0 0 375 374.999991" height="500" preserveAspectRatio="xMidYMid meet" version="1.0"><defs><clipPath id="5807ae35f0"><path d="M 140 178 L 271.972656 178 L 271.972656 272.867188 L 140 272.867188 Z M 140 178 " clip-rule="nonzero"/></clipPath><clipPath id="b19548d72d"><path d="M 123 101.867188 L 267 101.867188 L 267 264 L 123 264 Z M 123 101.867188 " clip-rule="nonzero"/></clipPath><clipPath id="3b28824327"><path d="M 103.222656 152 L 162 152 L 162 214 L 103.222656 214 Z M 103.222656 152 " clip-rule="nonzero"/></clipPath></defs><g clip-path="url(#5807ae35f0)"><path fill="#000000" d="M 271.925781 197.613281 C 271.890625 197.746094 271.824219 197.875 271.820312 198.007812 C 271.75 199.734375 271.144531 201.320312 270.476562 202.882812 C 269.175781 205.910156 267.421875 208.679688 265.519531 211.359375 C 262.636719 215.421875 259.410156 219.214844 256.25 223.0625 C 253.980469 225.828125 251.636719 228.539062 249.503906 231.414062 C 249.152344 231.882812 248.828125 232.367188 248.589844 232.929688 C 248.773438 232.773438 248.957031 232.621094 249.136719 232.457031 C 251.34375 230.449219 253.617188 228.515625 256.003906 226.722656 C 256.683594 226.210938 257.375 225.71875 258.140625 225.339844 C 258.492188 225.164062 258.847656 225 259.246094 224.96875 C 259.882812 224.917969 260.191406 225.269531 260.066406 225.902344 C 259.992188 226.269531 259.796875 226.582031 259.585938 226.882812 C 259.125 227.539062 258.582031 228.132812 258.011719 228.703125 C 255.378906 231.320312 252.339844 233.347656 248.972656 234.898438 C 248.496094 235.117188 248.011719 235.363281 247.457031 235.214844 C 247.230469 235.152344 247.121094 235.320312 246.992188 235.441406 C 246.347656 236.0625 245.703125 236.683594 245.0625 237.3125 C 241.019531 241.292969 237.269531 245.539062 233.597656 249.859375 C 229.734375 254.40625 226.003906 259.0625 222.160156 263.625 C 220.902344 265.117188 219.625 266.589844 218.363281 268.078125 C 218.019531 268.480469 217.699219 268.898438 217.382812 269.320312 C 215.980469 271.203125 214.199219 272.472656 211.8125 272.773438 C 211.75 272.785156 211.695312 272.839844 211.636719 272.871094 C 211.039062 272.871094 210.441406 272.871094 209.84375 272.871094 C 209.554688 272.691406 209.222656 272.746094 208.910156 272.6875 C 207.796875 272.472656 206.738281 272.097656 205.730469 271.578125 C 202.878906 270.113281 200.257812 268.300781 197.710938 266.375 C 193.746094 263.375 190.085938 260.035156 186.511719 256.589844 C 182.664062 252.878906 178.898438 249.078125 174.949219 245.464844 C 170.550781 241.4375 165.914062 237.734375 160.691406 234.8125 C 156.835938 232.652344 152.863281 230.757812 148.617188 229.472656 C 147.230469 229.054688 145.824219 228.71875 144.367188 228.660156 C 143.71875 228.632812 143.078125 228.671875 142.453125 228.835938 C 142.207031 228.902344 141.972656 228.996094 141.761719 229.140625 C 141.339844 229.425781 141.210938 229.773438 141.34375 230.269531 C 141.484375 230.789062 141.78125 231.226562 142.105469 231.648438 C 142.753906 232.484375 143.480469 233.25 144.242188 233.980469 C 146.875 236.507812 149.519531 239.027344 152.164062 241.542969 C 156.902344 246.050781 161.179688 250.953125 164.824219 256.394531 C 165.476562 257.363281 166.148438 258.324219 166.699219 259.355469 C 166.9375 259.800781 167.164062 260.253906 167.234375 260.765625 C 167.332031 261.480469 167.03125 261.859375 166.304688 261.910156 C 165.472656 261.972656 164.660156 261.765625 163.839844 261.671875 C 161.285156 261.378906 158.726562 261.09375 156.152344 261.007812 C 154.96875 260.96875 153.804688 261.019531 152.714844 261.539062 C 152.65625 261.566406 152.582031 261.59375 152.496094 261.5 C 153.089844 261.058594 153.761719 260.800781 154.472656 260.660156 C 154.988281 260.558594 155.515625 260.503906 156.046875 260.492188 C 159.207031 260.421875 162.335938 260.734375 165.449219 261.21875 C 165.824219 261.277344 166.296875 261.488281 166.542969 261.121094 C 166.773438 260.78125 166.472656 260.378906 166.308594 260.035156 C 165.851562 259.058594 165.234375 258.171875 164.636719 257.273438 C 160.992188 251.777344 156.664062 246.859375 151.914062 242.296875 C 149.5 239.972656 147.082031 237.652344 144.667969 235.324219 C 143.722656 234.417969 142.796875 233.496094 141.960938 232.484375 C 141.578125 232.027344 141.214844 231.550781 140.96875 231.003906 C 140.382812 229.710938 140.800781 228.742188 142.167969 228.335938 C 143.335938 227.984375 144.535156 228.046875 145.722656 228.230469 C 148.445312 228.644531 151.007812 229.601562 153.515625 230.691406 C 160.222656 233.617188 166.265625 237.59375 171.839844 242.300781 C 175.648438 245.515625 179.25 248.960938 182.828125 252.425781 C 187.003906 256.460938 191.210938 260.472656 195.734375 264.125 C 198.523438 266.378906 201.40625 268.507812 204.566406 270.226562 C 205.859375 270.929688 207.1875 271.558594 208.652344 271.835938 C 211.46875 272.359375 213.9375 271.730469 215.980469 269.660156 C 216.527344 269.101562 217.035156 268.511719 217.550781 267.925781 C 223.589844 261.039062 228.960938 253.605469 235.058594 246.769531 C 238.773438 242.605469 242.5625 238.515625 246.675781 234.738281 C 246.96875 234.46875 247.195312 234.175781 247.347656 233.800781 C 247.722656 232.90625 248.277344 232.113281 248.828125 231.324219 C 250.59375 228.804688 252.554688 226.4375 254.472656 224.03125 C 257.59375 220.121094 260.828125 216.300781 263.785156 212.261719 C 265.464844 209.964844 267.082031 207.625 268.40625 205.101562 C 269.359375 203.292969 270.21875 201.445312 270.707031 199.445312 C 271.394531 196.648438 270.976562 194.039062 269.421875 191.605469 C 268.039062 189.449219 266.199219 187.734375 264.183594 186.1875 C 262.613281 184.984375 260.972656 183.890625 259.265625 182.890625 C 257.742188 181.992188 256.253906 181.035156 254.824219 179.996094 C 254.460938 179.730469 254.0625 179.480469 253.925781 179.007812 C 254.078125 178.824219 254.242188 178.921875 254.378906 178.953125 C 255.0625 179.101562 255.6875 179.394531 256.273438 179.757812 C 259.164062 181.550781 262.039062 183.363281 264.746094 185.425781 C 266.320312 186.625 267.789062 187.941406 269.042969 189.480469 C 270.285156 191.011719 271.261719 192.679688 271.707031 194.625 C 271.8125 195.070312 271.679688 195.546875 271.921875 195.964844 C 271.925781 196.515625 271.925781 197.066406 271.925781 197.613281 Z M 259.445312 225.570312 C 258.90625 225.574219 258.507812 225.808594 258.117188 226.027344 C 257.332031 226.46875 256.621094 227.011719 255.917969 227.566406 C 253.210938 229.695312 250.640625 231.984375 248.140625 234.347656 C 248 234.480469 247.792969 234.578125 247.78125 234.855469 C 248.335938 234.832031 248.796875 234.585938 249.257812 234.351562 C 252.484375 232.679688 255.367188 230.542969 257.886719 227.925781 C 258.3125 227.476562 258.730469 227.015625 259.078125 226.503906 C 259.257812 226.246094 259.460938 225.988281 259.445312 225.570312 Z M 259.445312 225.570312 " fill-opacity="1" fill-rule="nonzero"/></g><g clip-path="url(#b19548d72d)"><path fill="#000000" d="M 175.472656 189.269531 C 175.121094 190.007812 174.191406 190.4375 173.394531 190.296875 C 172.980469 190.226562 172.605469 190.054688 172.246094 189.84375 C 170.027344 188.546875 168.371094 186.6875 167.039062 184.539062 C 166.191406 183.175781 165.519531 181.714844 164.96875 180.203125 C 164.882812 179.964844 164.8125 179.722656 164.726562 179.488281 C 164.375 178.46875 164.53125 177.511719 165.035156 176.574219 C 165.789062 175.183594 166.417969 173.730469 167.050781 172.28125 C 167.5625 171.125 167.925781 169.914062 168.195312 168.683594 C 168.480469 167.367188 169.121094 166.253906 169.996094 165.257812 C 170.539062 164.636719 171.117188 164.046875 171.671875 163.433594 C 173.382812 161.539062 174.992188 159.566406 176.296875 157.367188 C 178.285156 154.015625 179.417969 150.378906 179.769531 146.515625 C 180.132812 142.558594 180.054688 138.59375 179.726562 134.632812 C 179.558594 132.644531 179.5 130.648438 179.496094 128.65625 C 179.480469 120.953125 179.476562 113.246094 179.472656 105.542969 C 179.472656 104.628906 179.511719 103.710938 179.640625 102.800781 C 179.679688 102.535156 179.699219 102.265625 179.894531 101.871094 C 179.941406 102.714844 179.996094 103.40625 180.019531 104.097656 C 180.128906 107.214844 180.203125 110.335938 180.347656 113.449219 C 180.503906 116.816406 180.464844 120.1875 180.488281 123.558594 C 180.515625 127.890625 180.707031 132.21875 180.960938 136.546875 C 181.152344 139.773438 181.167969 143.015625 180.738281 146.230469 C 180.03125 151.539062 178.289062 156.464844 175.03125 160.792969 C 173.855469 162.351562 172.703125 163.925781 171.367188 165.351562 C 170.5 166.277344 169.988281 167.355469 169.601562 168.5625 C 168.664062 171.484375 167.722656 174.417969 166.070312 177.046875 C 165.609375 177.777344 165.535156 178.523438 165.832031 179.339844 C 166.546875 181.289062 167.460938 183.128906 168.746094 184.773438 C 169.496094 185.730469 170.246094 186.6875 171.136719 187.523438 C 171.761719 188.109375 172.4375 188.621094 173.164062 189.058594 C 173.46875 189.238281 173.875 189.523438 174.171875 189.242188 C 174.488281 188.945312 174.261719 188.511719 174.078125 188.164062 C 173.753906 187.550781 173.316406 187.019531 172.839844 186.519531 C 172.589844 186.25 172.339844 185.984375 172.101562 185.703125 C 171.921875 185.492188 171.765625 185.257812 171.738281 184.972656 C 171.601562 183.601562 171.230469 182.289062 170.753906 181.003906 C 170.578125 180.53125 170.367188 180.070312 170.136719 179.625 C 169.453125 178.300781 169.390625 176.964844 169.929688 175.574219 C 170.484375 174.144531 171.300781 172.875 172.210938 171.664062 C 172.957031 170.675781 173.699219 169.683594 174.566406 168.789062 C 174.660156 168.691406 174.734375 168.570312 174.910156 168.519531 C 175 168.820312 174.800781 169.035156 174.683594 169.253906 C 174.132812 170.292969 173.410156 171.214844 172.6875 172.136719 C 171.863281 173.195312 171.199219 174.339844 170.710938 175.585938 C 170.488281 176.148438 170.335938 176.71875 170.386719 177.328125 C 170.511719 178.875 172.113281 180.117188 173.75 179.105469 C 174.082031 178.902344 174.417969 178.695312 174.71875 178.449219 C 175.433594 177.867188 176.113281 177.25 176.710938 176.550781 C 177.128906 176.0625 177.484375 175.515625 177.9375 175.066406 C 179.0625 173.941406 179.742188 172.542969 180.402344 171.140625 C 181.132812 169.59375 182.1875 168.378906 183.703125 167.566406 C 184.148438 167.328125 184.554688 167.023438 184.988281 166.765625 C 185.972656 166.183594 186.578125 165.339844 186.828125 164.226562 C 187.007812 163.421875 187.1875 162.613281 187.480469 161.839844 C 187.640625 161.410156 187.804688 160.984375 187.996094 160.566406 C 188.507812 159.46875 189.285156 158.625 190.410156 158.125 C 190.535156 158.070312 190.65625 157.996094 190.78125 157.941406 C 192.375 157.242188 193.667969 156.175781 194.691406 154.773438 C 195.25 154.011719 195.867188 153.296875 196.539062 152.640625 C 199.800781 149.460938 203.742188 147.703125 208.238281 147.171875 C 210.226562 146.9375 212.125 147.367188 213.90625 148.28125 C 214.992188 148.839844 216.023438 149.484375 217.007812 150.203125 C 219.734375 152.195312 221.554688 154.828125 222.640625 158 C 223.402344 160.222656 223.828125 162.507812 224.078125 164.84375 C 224.40625 167.894531 224.308594 170.933594 224.066406 173.976562 C 224.050781 174.183594 224.046875 174.386719 224.042969 174.59375 C 224.042969 174.636719 224.078125 174.675781 224.117188 174.769531 C 225.296875 174.558594 226.492188 174.386719 227.644531 173.988281 C 230.648438 172.9375 233.492188 171.539062 236.207031 169.894531 C 238.640625 168.417969 241.015625 166.839844 243.378906 165.253906 C 244.039062 164.808594 244.007812 164.902344 243.679688 164.242188 C 242.566406 162.003906 241.460938 159.757812 240.089844 157.660156 C 238.859375 155.777344 237.300781 154.191406 235.464844 152.898438 C 233.226562 151.324219 230.941406 149.816406 228.511719 148.5625 C 224.988281 146.746094 221.28125 145.515625 217.277344 145.304688 C 215.488281 145.210938 213.699219 145.066406 211.90625 145.070312 C 210.921875 145.070312 209.945312 145.132812 208.960938 145.308594 C 209.675781 145.445312 210.386719 145.585938 211.105469 145.71875 C 213.742188 146.207031 216.125 147.316406 218.433594 148.628906 C 218.710938 148.785156 218.984375 148.960938 219.183594 149.21875 C 219.300781 149.375 219.367188 149.546875 219.222656 149.722656 C 219.074219 149.898438 218.898438 149.859375 218.726562 149.765625 C 218.625 149.714844 218.523438 149.65625 218.429688 149.589844 C 215.855469 147.929688 212.992188 147.0625 209.996094 146.574219 C 209.226562 146.445312 208.445312 146.382812 207.671875 146.292969 C 205.96875 146.089844 204.328125 146.363281 202.726562 146.929688 C 201.792969 147.261719 200.890625 147.660156 199.992188 148.070312 C 196.761719 149.53125 194.476562 151.96875 192.757812 154.996094 C 192.425781 155.574219 192.09375 156.152344 191.769531 156.730469 C 191.699219 156.851562 191.625 156.957031 191.503906 157.035156 C 191.152344 157.253906 190.953125 157.171875 190.917969 156.746094 C 190.867188 156.085938 190.824219 155.421875 190.816406 154.757812 C 190.800781 153.105469 190.734375 151.453125 190.816406 149.804688 C 191.019531 145.644531 191.535156 141.542969 193.191406 137.660156 C 193.824219 136.183594 194.402344 134.6875 195.03125 133.210938 C 196.644531 129.449219 197.855469 125.5625 198.671875 121.550781 C 199.46875 117.625 200.316406 113.703125 201.148438 109.785156 C 201.289062 109.117188 201.472656 108.460938 201.675781 107.808594 C 201.765625 108.203125 201.621094 108.566406 201.558594 108.9375 C 200.800781 113.246094 200.074219 117.558594 199.269531 121.859375 C 198.570312 125.617188 197.441406 129.238281 195.992188 132.769531 C 195.160156 134.804688 194.328125 136.84375 193.507812 138.882812 C 192.589844 141.179688 192.144531 143.574219 191.882812 146.03125 C 191.582031 148.871094 191.742188 151.710938 191.769531 154.550781 C 191.769531 154.636719 191.789062 154.722656 191.796875 154.816406 C 192.035156 154.847656 192.070312 154.648438 192.148438 154.53125 C 192.679688 153.726562 193.234375 152.941406 193.804688 152.164062 C 195.234375 150.210938 197.074219 148.765625 199.222656 147.6875 C 200.515625 147.039062 201.851562 146.480469 203.242188 146.0625 C 203.496094 145.988281 203.714844 145.929688 203.75 145.601562 C 203.777344 145.375 203.984375 145.273438 204.191406 145.214844 C 204.476562 145.132812 204.769531 145.058594 205.074219 145.078125 C 205.929688 145.128906 206.761719 144.960938 207.59375 144.792969 C 210.230469 144.269531 212.894531 144.265625 215.5625 144.425781 C 216.800781 144.5 218.039062 144.617188 219.273438 144.738281 C 221.023438 144.910156 222.695312 145.40625 224.351562 145.964844 C 228.597656 147.40625 232.359375 149.726562 235.992188 152.296875 C 237.507812 153.363281 238.835938 154.617188 240.011719 156.042969 C 240.480469 156.609375 240.914062 157.199219 241.292969 157.828125 C 242.503906 159.828125 243.738281 161.816406 244.792969 163.910156 C 244.832031 163.988281 244.894531 164.054688 244.964844 164.148438 C 251.96875 159.371094 259.046875 154.734375 265.957031 149.824219 C 265.832031 149.964844 265.714844 150.117188 265.582031 150.25 C 264.527344 151.34375 263.320312 152.265625 262.117188 153.1875 C 257.738281 156.535156 253.15625 159.605469 248.652344 162.78125 C 247.828125 163.363281 246.976562 163.90625 246.148438 164.476562 C 244.199219 165.820312 242.28125 167.199219 240.320312 168.523438 C 236.765625 170.925781 233.039062 172.976562 229.046875 174.5625 C 227.414062 175.214844 225.71875 175.570312 223.980469 175.816406 C 223.0625 175.945312 222.148438 175.863281 221.234375 175.96875 C 219.523438 176.164062 217.988281 176.757812 216.644531 177.84375 C 215.125 179.078125 213.746094 180.453125 212.464844 181.933594 C 211.007812 183.617188 209.648438 185.382812 208.300781 187.152344 C 207.171875 188.636719 205.917969 190.007812 204.53125 191.253906 C 204.453125 191.324219 204.332031 191.371094 204.355469 191.554688 C 205.199219 191.648438 206.03125 191.488281 206.863281 191.386719 C 208.234375 191.21875 209.5 190.734375 210.640625 189.972656 C 212.4375 188.765625 214.140625 187.445312 215.535156 185.773438 C 215.566406 185.738281 215.59375 185.699219 215.625 185.667969 C 215.921875 185.363281 216.175781 185.304688 216.402344 185.488281 C 216.636719 185.679688 216.640625 185.941406 216.394531 186.277344 C 216.132812 186.628906 215.851562 186.960938 215.597656 187.316406 C 213.785156 189.855469 211.984375 192.402344 210.171875 194.945312 C 209.25 196.234375 208.195312 197.414062 207.078125 198.542969 C 205.472656 200.171875 203.542969 201.125 201.285156 201.476562 C 199.875 201.695312 198.492188 202.046875 197.226562 202.746094 C 196.929688 202.910156 196.609375 203.046875 196.304688 203.328125 C 197.824219 204.058594 199.320312 204.613281 201.007812 204.316406 C 202.390625 204.074219 203.773438 203.839844 205.136719 203.511719 C 206.394531 203.210938 207.578125 202.714844 208.722656 202.117188 C 210.757812 201.054688 212.738281 199.886719 214.640625 198.597656 C 215.210938 198.210938 215.792969 197.839844 216.375 197.476562 C 216.566406 197.351562 216.78125 197.261719 216.988281 197.167969 C 217.191406 197.070312 217.402344 197.054688 217.539062 197.265625 C 217.675781 197.472656 217.574219 197.664062 217.425781 197.824219 C 217.328125 197.921875 217.230469 198.019531 217.125 198.109375 C 216.894531 198.296875 216.667969 198.492188 216.421875 198.660156 C 213.4375 200.644531 210.476562 202.664062 207.167969 204.09375 C 207.109375 204.121094 207.058594 204.171875 206.996094 204.214844 C 207.09375 204.421875 207.277344 204.332031 207.417969 204.34375 C 209.9375 204.597656 212.300781 204.050781 214.554688 202.945312 C 215.214844 202.621094 215.894531 202.335938 216.566406 202.039062 C 216.710938 201.976562 216.863281 201.917969 217.019531 201.882812 C 217.160156 201.851562 217.292969 201.902344 217.367188 202.042969 C 217.441406 202.1875 217.378906 202.316406 217.273438 202.410156 C 217.140625 202.535156 216.992188 202.644531 216.839844 202.75 C 216.199219 203.203125 215.488281 203.527344 214.753906 203.796875 C 214.039062 204.0625 213.386719 204.4375 212.738281 204.828125 C 213.179688 204.832031 213.578125 204.679688 213.988281 204.558594 C 216.101562 203.921875 217.988281 202.828125 219.796875 201.601562 C 221.128906 200.699219 222.402344 199.714844 223.574219 198.613281 C 226.488281 195.875 229.414062 193.15625 232.300781 190.394531 C 234.042969 188.730469 236.078125 187.480469 238.265625 186.480469 C 238.472656 186.386719 238.683594 186.289062 238.898438 186.207031 C 240.957031 185.414062 242.792969 184.269531 244.480469 182.851562 C 247.128906 180.632812 249.996094 178.722656 253.050781 177.113281 C 257.097656 174.980469 261.273438 173.117188 265.453125 171.273438 C 265.78125 171.128906 266.109375 170.957031 266.53125 170.9375 C 266.402344 171.234375 266.15625 171.324219 265.953125 171.445312 C 264.695312 172.210938 263.378906 172.859375 262.058594 173.511719 C 259.734375 174.660156 257.417969 175.835938 255.121094 177.039062 C 251.644531 178.855469 248.378906 180.976562 245.363281 183.480469 C 243.566406 184.976562 241.578125 186.148438 239.402344 187.003906 C 238.132812 187.503906 236.988281 188.234375 235.859375 188.984375 C 235.648438 189.121094 235.453125 189.285156 235.238281 189.417969 C 232.484375 191.136719 230.269531 193.480469 227.953125 195.703125 C 225.917969 197.660156 223.871094 199.605469 221.8125 201.539062 C 219.773438 203.449219 217.539062 205.089844 215.023438 206.324219 C 214.46875 206.597656 213.898438 206.84375 213.320312 207.070312 C 212.15625 207.53125 210.960938 207.632812 209.734375 207.332031 C 209.132812 207.183594 208.515625 207.105469 207.898438 207.054688 C 206.984375 206.972656 206.226562 207.222656 205.714844 208.035156 C 204.925781 209.273438 204.132812 210.503906 203.503906 211.839844 C 202.550781 213.867188 202.128906 216.003906 202.050781 218.230469 C 201.957031 220.84375 202.292969 223.394531 203.078125 225.890625 C 203.507812 227.261719 204.191406 228.503906 205.0625 229.644531 C 206.515625 231.546875 208.128906 233.300781 209.957031 234.851562 C 211.921875 236.515625 213.804688 238.265625 215.570312 240.136719 C 216.792969 241.433594 217.8125 242.871094 218.609375 244.457031 C 219.789062 246.804688 220.195312 249.273438 219.648438 251.867188 C 219.539062 252.386719 219.386719 252.890625 219.15625 253.367188 C 217.726562 256.324219 215.941406 259.027344 213.445312 261.21875 C 212.617188 261.949219 211.722656 262.582031 210.683594 263.003906 C 209.417969 263.515625 208.226562 263.441406 207.0625 262.714844 C 206.101562 262.121094 205.214844 261.433594 204.367188 260.695312 C 201.332031 258.058594 198.324219 255.394531 195.410156 252.628906 C 191.589844 249.003906 187.4375 245.777344 183.300781 242.527344 C 177.316406 237.832031 171.070312 233.496094 164.972656 228.957031 C 161.507812 226.378906 158.15625 223.65625 154.726562 221.03125 C 150.203125 217.566406 145.496094 214.363281 140.847656 211.066406 C 137.4375 208.648438 133.914062 206.398438 130.300781 204.292969 C 129.925781 204.074219 129.5625 203.714844 129.144531 203.730469 C 128.75 203.746094 128.5 204.207031 128.179688 204.457031 C 127.636719 204.886719 127.101562 205.316406 126.496094 205.652344 C 125.925781 205.96875 125.324219 206.1875 124.660156 206.140625 C 123.945312 206.089844 123.570312 205.644531 123.652344 204.949219 C 123.761719 204.058594 124.109375 203.226562 124.722656 202.609375 C 125.542969 201.78125 126.566406 201.347656 127.78125 201.757812 C 128.085938 201.859375 128.425781 201.886719 128.699219 202.039062 C 129.25 202.347656 129.589844 202.148438 129.988281 201.734375 C 130.863281 200.824219 131.738281 199.914062 132.527344 198.925781 C 133.355469 197.882812 134.242188 196.886719 135.128906 195.902344 C 137.101562 193.707031 139.609375 192.453125 142.519531 191.960938 C 144.683594 191.597656 146.785156 191.9375 148.867188 192.453125 C 152.332031 193.308594 155.707031 194.421875 158.859375 196.136719 C 160.855469 197.226562 162.964844 198.082031 165.042969 199.003906 C 166.089844 199.46875 167.183594 199.707031 168.3125 199.769531 C 169.273438 199.824219 170.238281 199.878906 171.199219 199.703125 C 172.324219 199.496094 173.292969 199.011719 174.046875 198.152344 C 175.132812 196.914062 176.027344 195.566406 176.285156 193.886719 C 176.3125 193.707031 176.324219 193.480469 176.4375 193.367188 C 176.847656 192.964844 176.605469 192.667969 176.371094 192.308594 C 175.800781 191.429688 175.574219 190.421875 175.472656 189.269531 Z M 184.398438 178.96875 C 183.8125 179.1875 183.199219 179.347656 182.742188 179.824219 C 183.300781 179.609375 183.835938 179.347656 184.371094 179.082031 C 184.394531 179.070312 184.382812 179 184.394531 178.960938 C 184.648438 179.101562 184.917969 179.085938 185.296875 179.109375 C 184.953125 178.773438 184.664062 178.964844 184.398438 178.96875 Z M 192.015625 158.054688 C 193.125 158.300781 193.953125 158.742188 194.757812 159.238281 C 195.980469 159.988281 197.007812 160.972656 198.058594 161.933594 C 199.535156 163.289062 201.09375 164.527344 202.871094 165.480469 C 203.203125 165.660156 203.527344 165.742188 203.917969 165.699219 C 205.867188 165.492188 207.761719 165.707031 209.617188 166.371094 C 211.886719 167.183594 213.476562 168.628906 214.160156 170.980469 C 214.289062 171.429688 214.363281 171.875 214.277344 172.335938 C 214.242188 172.507812 214.140625 172.640625 213.957031 172.640625 C 213.808594 172.640625 213.710938 172.523438 213.671875 172.382812 C 213.597656 172.121094 213.535156 171.851562 213.464844 171.585938 C 213.164062 170.476562 212.628906 169.484375 211.757812 168.734375 C 210.976562 168.066406 210.101562 167.609375 208.988281 167.597656 C 208.101562 167.585938 207.203125 167.445312 206.3125 167.355469 C 205.425781 167.265625 204.539062 167.117188 203.65625 166.964844 C 203.238281 166.894531 202.832031 166.757812 202.8125 166.222656 C 202.804688 166.015625 202.648438 165.964844 202.507812 165.890625 C 200.589844 164.871094 198.890625 163.546875 197.308594 162.066406 C 196.453125 161.265625 195.601562 160.460938 194.597656 159.839844 C 193.941406 159.433594 193.257812 159.078125 192.390625 158.832031 C 192.613281 159.140625 192.847656 159.246094 193.050781 159.375 C 194.402344 160.234375 195.414062 161.398438 196.179688 162.792969 C 196.808594 163.941406 196.761719 165.074219 196.085938 166.1875 C 195.515625 167.125 194.75 167.875 193.8125 168.445312 C 191.792969 169.679688 189.871094 171.0625 187.886719 172.347656 C 187.59375 172.535156 187.324219 172.75 187.105469 173.019531 C 186.894531 173.277344 186.800781 173.578125 186.808594 173.914062 C 186.8125 174.179688 186.859375 174.398438 187.125 174.542969 C 187.277344 174.625 187.25 174.824219 187.277344 174.980469 C 187.328125 175.226562 187.351562 175.484375 187.433594 175.71875 C 187.589844 176.191406 187.824219 176.28125 188.273438 176.0625 C 188.5 175.953125 188.699219 175.792969 188.953125 175.734375 C 190.070312 175.476562 191.324219 176.574219 191.269531 177.765625 C 191.253906 178.0625 191.0625 178.171875 190.808594 177.980469 C 190.230469 177.558594 189.566406 177.289062 188.96875 176.894531 C 188.28125 176.433594 188.273438 176.445312 187.988281 177.207031 C 187.90625 177.421875 187.832031 177.640625 187.730469 177.84375 C 187.382812 178.550781 187.019531 179.253906 186.234375 179.6875 C 187.402344 179.746094 187.597656 179.847656 188.234375 180.761719 C 188.550781 181.210938 188.859375 181.667969 189.15625 182.128906 C 189.753906 183.054688 190.402344 183.949219 190.910156 184.925781 C 191.042969 185.175781 191.21875 185.433594 191.136719 185.796875 C 190.710938 185.667969 190.558594 185.328125 190.398438 185.019531 C 189.855469 183.976562 189.222656 182.996094 188.464844 182.097656 C 188.082031 181.640625 187.722656 181.15625 187.488281 180.605469 C 187.316406 180.195312 187 179.996094 186.570312 180.003906 C 186.160156 180.007812 185.816406 179.882812 185.492188 179.632812 C 185.09375 179.332031 184.648438 179.296875 184.195312 179.5 C 183.542969 179.789062 182.898438 180.089844 182.320312 180.511719 C 182.222656 180.582031 182.046875 180.621094 182.152344 180.847656 C 182.277344 180.847656 182.414062 180.851562 182.550781 180.84375 C 183.277344 180.8125 183.980469 180.894531 184.621094 181.257812 C 185.4375 181.722656 186.246094 182.207031 186.984375 182.792969 C 188.28125 183.820312 189.492188 184.949219 190.828125 185.925781 C 191.011719 186.058594 191.167969 186.230469 191.320312 186.402344 C 191.480469 186.578125 191.601562 186.785156 191.480469 187.023438 C 191.378906 187.234375 191.164062 187.265625 190.953125 187.277344 C 190.390625 187.316406 189.851562 187.191406 189.335938 186.980469 C 188.808594 186.765625 188.277344 186.539062 187.761719 186.289062 C 186.566406 185.707031 185.308594 185.238281 184.238281 184.425781 C 183.394531 183.785156 182.574219 183.121094 181.75 182.464844 C 181.566406 182.320312 181.378906 182.152344 181.332031 181.929688 C 181.265625 181.625 181.101562 181.480469 180.824219 181.355469 C 180.527344 181.226562 180.515625 181 180.753906 180.75 C 180.929688 180.570312 181.128906 180.414062 181.332031 180.257812 C 182.214844 179.589844 183.144531 178.996094 184.21875 178.683594 C 184.714844 178.539062 185.183594 178.496094 185.609375 178.953125 C 186.085938 179.464844 186.371094 179.414062 186.71875 178.792969 C 187.019531 178.253906 187.257812 177.679688 187.542969 177.128906 C 187.6875 176.851562 187.691406 176.667969 187.351562 176.558594 C 187.171875 176.5 187.082031 176.320312 186.960938 176.183594 C 186.449219 175.601562 186.339844 174.875 186.1875 174.160156 C 185.980469 173.214844 186.300781 172.492188 187.082031 171.957031 C 187.328125 171.789062 187.59375 171.65625 187.859375 171.515625 C 188.222656 171.324219 188.613281 171.171875 188.960938 170.949219 C 190.550781 169.941406 192.128906 168.917969 193.710938 167.898438 C 194.238281 167.558594 194.691406 167.132812 195.097656 166.664062 C 196.167969 165.421875 196.203125 164.175781 195.242188 162.84375 C 194.644531 162.015625 193.890625 161.351562 193.101562 160.710938 C 192.410156 160.144531 191.660156 159.640625 191.109375 158.921875 C 190.960938 158.726562 190.835938 158.746094 190.648438 158.835938 C 189.789062 159.265625 189.199219 159.945312 188.765625 160.78125 C 188.140625 161.988281 187.664062 163.253906 187.339844 164.570312 C 187.070312 165.671875 186.484375 166.535156 185.566406 167.1875 C 184.851562 167.6875 184.140625 168.195312 183.421875 168.691406 C 182.421875 169.382812 181.640625 170.25 181.0625 171.332031 C 179.9375 173.445312 179.039062 175.644531 178.347656 177.933594 C 177.523438 180.679688 176.722656 183.429688 176.382812 186.289062 C 176.230469 187.570312 176.183594 188.84375 176.441406 190.121094 C 176.664062 191.238281 177.242188 192.160156 177.96875 193.003906 C 178.089844 193.148438 178.246094 193.242188 178.40625 193.332031 C 179.796875 194.144531 181.066406 195.128906 182.332031 196.121094 C 182.402344 196.179688 182.46875 196.246094 182.535156 196.308594 C 182.65625 196.429688 182.746094 196.578125 182.625 196.730469 C 182.5 196.890625 182.332031 196.820312 182.1875 196.742188 C 181.722656 196.484375 181.277344 196.191406 180.800781 195.972656 C 179.703125 195.472656 178.71875 194.816406 177.816406 194.015625 C 177.148438 193.421875 176.953125 193.484375 176.773438 194.351562 C 176.464844 195.839844 175.835938 197.167969 174.9375 198.386719 C 174.003906 199.65625 172.742188 200.445312 171.226562 200.699219 C 168.816406 201.105469 166.425781 201.035156 164.132812 199.996094 C 162.414062 199.214844 160.742188 198.351562 159.121094 197.390625 C 155.257812 195.105469 151.082031 193.691406 146.691406 192.855469 C 143.144531 192.183594 139.878906 192.929688 136.964844 195.054688 C 135.75 195.9375 134.792969 197.109375 133.921875 198.3125 C 132.9375 199.675781 131.835938 200.929688 130.667969 202.136719 C 130.511719 202.296875 130.3125 202.421875 130.214844 202.703125 C 130.933594 203.132812 131.664062 203.554688 132.382812 204 C 140 208.734375 147.261719 213.976562 154.488281 219.265625 C 158.289062 222.046875 161.902344 225.070312 165.6875 227.871094 C 171.613281 232.253906 177.59375 236.570312 183.40625 241.105469 C 188.246094 244.878906 193.035156 248.707031 197.378906 253.046875 C 199.851562 255.515625 202.433594 257.863281 205.007812 260.222656 C 205.738281 260.886719 206.503906 261.507812 207.320312 262.066406 C 208.367188 262.78125 209.441406 262.839844 210.589844 262.34375 C 211.441406 261.96875 212.175781 261.425781 212.875 260.824219 C 215.222656 258.8125 216.851562 256.277344 218.175781 253.53125 C 218.507812 252.847656 218.730469 252.125 218.832031 251.367188 C 219.144531 249.0625 218.703125 246.894531 217.648438 244.839844 C 216.933594 243.445312 216.019531 242.1875 214.917969 241.0625 C 213.359375 239.46875 211.738281 237.945312 210.058594 236.480469 C 208.574219 235.179688 207.121094 233.847656 205.820312 232.351562 C 203.820312 230.046875 202.265625 227.53125 201.617188 224.496094 C 200.921875 221.246094 200.742188 217.996094 201.445312 214.742188 C 202.105469 211.671875 203.742188 209.070312 205.582031 206.585938 C 206.003906 206.015625 206.59375 205.6875 207.347656 205.703125 C 207.738281 205.710938 208.125 205.632812 208.515625 205.585938 C 208.703125 205.5625 208.902344 205.550781 209.058594 205.304688 C 207.15625 205.226562 205.324219 205.101562 203.488281 205.316406 C 203.375 205.328125 203.261719 205.347656 203.148438 205.375 C 202.070312 205.628906 200.972656 205.730469 199.871094 205.773438 C 199.269531 205.796875 198.675781 205.734375 198.097656 205.566406 C 196.929688 205.222656 195.855469 204.628906 194.664062 204.328125 C 194.117188 204.191406 193.996094 203.628906 194.34375 203.164062 C 194.476562 202.984375 194.660156 202.832031 194.839844 202.691406 C 195.386719 202.269531 195.980469 201.925781 196.589844 201.59375 C 198.070312 200.792969 199.683594 200.453125 201.332031 200.246094 C 203.195312 200.015625 204.808594 199.261719 206.207031 198.019531 C 207.273438 197.070312 208.230469 196.019531 209.054688 194.851562 C 210.140625 193.316406 211.226562 191.78125 212.308594 190.242188 C 212.390625 190.121094 212.53125 190.019531 212.492188 189.757812 C 212.171875 190.003906 211.882812 190.214844 211.605469 190.441406 C 209 192.558594 205.957031 192.929688 202.753906 192.671875 C 202.46875 192.644531 202.195312 192.570312 202.101562 192.257812 C 201.996094 191.910156 202.214844 191.703125 202.464844 191.515625 C 203.976562 190.40625 205.238281 189.039062 206.414062 187.597656 C 207.792969 185.90625 209.128906 184.1875 210.523438 182.507812 C 212.0625 180.648438 213.742188 178.921875 215.59375 177.363281 C 216.367188 176.710938 217.191406 176.125 218.128906 175.722656 C 219.5 175.136719 220.910156 174.78125 222.421875 174.964844 C 222.9375 175.027344 223.007812 174.941406 223.0625 174.417969 C 223.070312 174.347656 223.070312 174.277344 223.074219 174.210938 C 223.160156 171.207031 223.25 168.210938 222.949219 165.207031 C 222.714844 162.871094 222.3125 160.589844 221.574219 158.351562 C 220.277344 154.441406 217.84375 151.539062 214.210938 149.554688 C 211.761719 148.222656 209.242188 147.894531 206.546875 148.429688 C 204.683594 148.800781 202.964844 149.554688 201.246094 150.332031 C 198.941406 151.378906 197.003906 152.882812 195.378906 154.808594 C 194.40625 155.957031 193.523438 157.199219 192.015625 158.054688 Z M 176.097656 183.417969 C 176.730469 180.738281 177.597656 178.214844 178.320312 175.644531 C 178.164062 175.773438 178.054688 175.917969 177.945312 176.0625 C 176.976562 177.324219 175.894531 178.476562 174.691406 179.511719 C 173.996094 180.109375 173.207031 180.402344 172.277344 180.300781 C 171.882812 180.257812 171.554688 180.050781 171.136719 179.875 C 171.191406 180.246094 171.332031 180.503906 171.476562 180.75 C 171.964844 181.570312 172.230469 182.460938 172.363281 183.402344 C 172.570312 184.890625 173.660156 185.714844 174.789062 186.488281 C 175.101562 186.703125 175.269531 186.613281 175.40625 186.242188 C 175.582031 185.75 175.554688 185.242188 175.429688 184.75 C 175.257812 184.0625 175.0625 183.378906 174.726562 182.742188 C 174.390625 182.105469 174.242188 181.410156 174.113281 180.710938 C 174.085938 180.554688 174.058594 180.367188 174.25 180.296875 C 174.488281 180.210938 174.570312 180.402344 174.636719 180.578125 C 174.789062 180.988281 174.917969 181.402344 175.082031 181.804688 C 175.316406 182.371094 175.613281 182.898438 176.097656 183.417969 Z M 190.640625 186.722656 C 190.542969 186.472656 190.394531 186.359375 190.257812 186.246094 C 188.910156 185.144531 187.601562 183.996094 186.21875 182.9375 C 184.855469 181.894531 183.265625 181.6875 181.582031 181.585938 C 181.675781 182.09375 182.046875 182.339844 182.367188 182.617188 C 184.449219 184.394531 186.839844 185.632812 189.398438 186.570312 C 189.78125 186.703125 190.175781 186.839844 190.640625 186.722656 Z M 128.316406 203.332031 C 127.738281 203.015625 127.183594 202.882812 126.613281 202.875 C 126.226562 202.867188 125.832031 202.9375 125.5625 203.277344 C 125.265625 203.652344 124.960938 204.023438 124.683594 204.414062 C 124.492188 204.691406 124.242188 205.046875 124.460938 205.351562 C 124.714844 205.703125 125.144531 205.515625 125.46875 205.378906 C 126.5625 204.925781 127.425781 204.152344 128.316406 203.332031 Z M 210.578125 206.222656 C 211.597656 206.59375 213.597656 206.101562 214.441406 205.308594 C 213.175781 205.730469 211.933594 205.933594 210.578125 206.222656 Z M 190.503906 177.382812 C 190.183594 176.292969 189.660156 175.980469 188.761719 176.375 C 189.308594 176.792969 189.84375 177.144531 190.503906 177.382812 Z M 175.433594 188.355469 C 175.425781 188.105469 175.605469 187.835938 175.359375 187.613281 C 175.351562 187.601562 175.308594 187.609375 175.300781 187.621094 C 175.117188 187.910156 175.367188 188.113281 175.433594 188.355469 Z M 175.433594 188.355469 " fill-opacity="1" fill-rule="nonzero"/></g><g clip-path="url(#3b28824327)"><path fill="#000000" d="M 161.527344 152.886719 C 161.179688 153.273438 160.835938 153.664062 160.480469 154.042969 C 154.402344 160.492188 148 166.621094 141.929688 173.078125 C 137.054688 178.261719 132.070312 183.34375 127.144531 188.476562 C 123.761719 192.003906 120.566406 195.707031 117.3125 199.359375 C 113.894531 203.195312 110.5 207.058594 106.914062 210.746094 C 105.8125 211.878906 104.707031 213.011719 103.402344 213.972656 C 103.261719 213.648438 103.496094 213.492188 103.652344 213.320312 C 104.058594 212.882812 104.476562 212.457031 104.886719 212.027344 C 109.480469 207.203125 113.816406 202.152344 118.191406 197.140625 C 123.191406 191.414062 128.410156 185.894531 133.738281 180.476562 C 137.910156 176.238281 141.945312 171.875 146.105469 167.628906 C 150.621094 163.019531 155.226562 158.5 159.964844 154.121094 C 160.449219 153.671875 160.972656 153.261719 161.476562 152.835938 C 161.496094 152.851562 161.511719 152.871094 161.527344 152.886719 Z M 161.527344 152.886719 " fill-opacity="1" fill-rule="nonzero"/></g></svg>