<svg xmlns="http://www.w3.org/2000/svg" xmlns:xlink="http://www.w3.org/1999/xlink" width="500" zoomAndPan="magnify" viewBox="0 0 375 374.999991" height="500" preserveAspectRatio="xMidYMid meet" version="1.0"><defs><clipPath id="a48ed7c540"><path d="M 173.550781 173.550781 L 201.300781 173.550781 L 201.300781 201.300781 L 173.550781 201.300781 Z M 173.550781 173.550781 " clip-rule="nonzero"/></clipPath></defs><path fill="#b89e6f" d="M 187.425781 184.347656 C 185.730469 184.347656 184.347656 185.730469 184.347656 187.425781 C 184.347656 189.117188 185.730469 190.5 187.425781 190.5 C 189.117188 190.5 190.5 189.117188 190.5 187.425781 C 190.5 185.730469 189.117188 184.347656 187.425781 184.347656 Z M 187.425781 184.347656 " fill-opacity="1" fill-rule="nonzero"/><path fill="#b89e6f" d="M 191.558594 179.878906 L 183.292969 179.878906 C 181.417969 179.878906 179.878906 181.40625 179.878906 183.292969 L 179.878906 191.558594 C 179.878906 193.429688 181.40625 194.96875 183.292969 194.96875 L 191.558594 194.96875 C 193.429688 194.96875 194.96875 193.441406 194.96875 191.558594 L 194.96875 183.292969 C 194.957031 181.40625 193.429688 179.878906 191.558594 179.878906 Z M 187.425781 192.050781 C 184.867188 192.050781 182.789062 189.972656 182.789062 187.414062 C 182.789062 184.851562 184.867188 182.773438 187.425781 182.773438 C 189.984375 182.773438 192.0625 184.851562 192.0625 187.414062 C 192.050781 189.972656 189.972656 192.050781 187.425781 192.050781 Z M 192.386719 183.554688 C 191.773438 183.554688 191.269531 183.050781 191.269531 182.4375 C 191.269531 181.828125 191.773438 181.320312 192.386719 181.320312 C 193 181.320312 193.503906 181.828125 193.503906 182.4375 C 193.503906 183.0625 193.011719 183.554688 192.386719 183.554688 Z M 192.386719 183.554688 " fill-opacity="1" fill-rule="nonzero"/><g clip-path="url(#a48ed7c540)"><path fill="#b89e6f" d="M 187.425781 173.550781 C 179.761719 173.550781 173.550781 179.761719 173.550781 187.425781 C 173.550781 195.089844 179.761719 201.300781 187.425781 201.300781 C 195.089844 201.300781 201.300781 195.089844 201.300781 187.425781 C 201.289062 179.761719 195.078125 173.550781 187.425781 173.550781 Z M 196.519531 191.558594 C 196.519531 194.296875 194.285156 196.53125 191.542969 196.53125 L 183.292969 196.53125 C 180.554688 196.53125 178.320312 194.296875 178.320312 191.558594 L 178.320312 183.292969 C 178.320312 180.554688 180.554688 178.320312 183.292969 178.320312 L 191.558594 178.320312 C 194.296875 178.320312 196.53125 180.554688 196.53125 183.292969 L 196.53125 191.558594 Z M 196.519531 191.558594 " fill-opacity="1" fill-rule="nonzero"/></g></svg>