<svg xmlns="http://www.w3.org/2000/svg" xmlns:xlink="http://www.w3.org/1999/xlink" width="500" zoomAndPan="magnify" viewBox="0 0 375 374.999991" height="500" preserveAspectRatio="xMidYMid meet" version="1.0"><defs><clipPath id="4d585b3b31"><path d="M 178.957031 175.296875 L 196.207031 175.296875 L 196.207031 200.046875 L 178.957031 200.046875 Z M 178.957031 175.296875 " clip-rule="nonzero"/></clipPath></defs><g clip-path="url(#4d585b3b31)"><path fill="#b89e6f" d="M 187.582031 175.300781 C 182.820312 175.300781 178.957031 179.179688 178.957031 183.960938 C 178.957031 190.457031 187.582031 200.042969 187.582031 200.042969 C 187.582031 200.042969 196.207031 190.457031 196.207031 183.960938 C 196.207031 179.179688 192.34375 175.300781 187.582031 175.300781 Z M 187.582031 187.054688 C 185.882812 187.054688 184.503906 185.667969 184.503906 183.960938 C 184.503906 182.253906 185.882812 180.867188 187.582031 180.867188 C 189.28125 180.867188 190.664062 182.253906 190.664062 183.960938 C 190.664062 185.667969 189.28125 187.054688 187.582031 187.054688 Z M 187.582031 187.054688 " fill-opacity="1" fill-rule="nonzero"/></g></svg>