<svg xmlns="http://www.w3.org/2000/svg" xmlns:xlink="http://www.w3.org/1999/xlink" width="280" zoomAndPan="magnify" viewBox="0 0 210 151.500001" height="202" preserveAspectRatio="xMidYMid meet" version="1.0"><defs><clipPath id="575967b367"><path d="M 0.449219 0.09375 L 209.652344 0.09375 L 209.652344 151 L 0.449219 151 Z M 0.449219 0.09375 " clip-rule="nonzero"/></clipPath></defs><g clip-path="url(#575967b367)"><path stroke-linecap="butt" transform="matrix(0.0128449, 0, 0, -0.0128479, 0.383219, 151.102036)" fill="none" stroke-linejoin="miter" d="M 14.26148 22.839755 C 439.406962 202.830715 864.856554 383.125714 1322.541783 518.118934 C 1780.227012 653.112154 2270.451989 743.107634 2630.517976 938.300533 C 2990.583964 1133.493432 3220.795073 1433.579712 3163.318323 1683.499592 C 3105.841573 1933.723511 2760.676965 2133.781031 2507.961732 2218.91189 C 2255.246499 2303.738711 2095.284751 2273.94291 2040.24088 2156.279901 C 1985.197009 2038.616892 2035.375123 1833.694751 1937.755882 1638.501852 C 1840.13664 1443.612992 1595.024152 1258.453372 1302.470537 1078.462412 C 1009.916922 898.167414 669.618071 723.041074 497.187822 610.546724 C 324.453463 498.052374 319.587706 448.190014 571.998829 467.952535 C 824.714062 488.019094 1335.010284 578.014574 1717.580396 685.644304 C 2100.150508 793.274033 2355.298619 918.233973 2515.564477 1075.726063 C 2675.526225 1233.522192 2740.605719 1423.546432 2702.896106 1613.570672 C 2665.490602 1803.594912 2525.29599 1993.619152 2397.873989 2091.215601 C 2270.451989 2188.812051 2155.194379 2193.676671 2090.418995 2091.215601 C 2025.3395 1988.754531 2010.134011 1778.663731 1960.260006 1646.102822 C 1910.081891 1513.541912 1825.235261 1458.510892 1715.147518 1468.544172 C 1605.059775 1478.577452 1470.03503 1553.370993 1384.884289 1756.164861 C 1300.037659 1958.654691 1264.760924 2288.840811 1329.840418 2543.92935 C 1394.919912 2799.01789 1560.051527 2979.00885 1765.021523 3091.807239 C 1970.295629 3204.301589 2215.408117 3249.299329 2407.909612 3271.798199 C 2600.411107 3294.297069 2740.605719 3294.297069 2892.964722 3261.764919 C 3045.627835 3229.232769 3210.75945 3164.168469 3428.197947 3131.636319 C 3645.940555 3099.104169 3915.990045 3099.104169 3995.970919 3046.809499 C 4075.951793 2994.210789 3966.16816 2889.01337 4016.042165 2701.42144 C 4066.22028 2513.829511 4276.056033 2243.843071 4343.568406 2053.818831 C 4411.080778 1863.794591 4336.269771 1753.732551 4213.713527 1601.105082 C 4091.157283 1448.477612 3921.159912 1253.284713 3711.020049 1100.961282 C 3500.880186 948.333813 3250.597832 838.271773 3073.301826 800.570964 C 2895.70171 763.174194 2790.479724 798.138654 2860.729085 855.601984 C 2930.674336 913.369353 3175.786824 993.331553 3385.926687 1120.723803 C 3595.76244 1248.420092 3770.929677 1423.546432 3888.620165 1611.138362 C 4006.006542 1798.730291 4066.22028 1998.787811 3993.538041 2048.650171 C 3921.159912 2098.816571 3715.885806 1998.787811 3510.915809 1976.288941 C 3305.641703 1953.790071 3100.671707 2008.821091 3015.520966 2041.353241 C 2930.674336 2073.88539 2965.646961 2083.91867 3088.203206 2106.41754 C 3210.75945 2128.91641 3420.899312 2163.88087 3568.392559 2273.94291 C 3715.885806 2384.00495 3801.036546 2568.86053 3868.548919 2671.625639 C 3936.061291 2774.086709 3985.935296 2794.153269 3946.096914 2811.48348 C 3905.954422 2829.117729 3776.099543 2844.01563 3590.896683 2844.01563 C 3405.693823 2844.01563 3165.751201 2829.117729 2993.016842 2733.95359 C 2820.586593 2639.093489 2715.668717 2463.96715 2602.843986 2431.435 C 2490.323365 2398.90285 2370.504109 2508.96489 2327.928738 2619.02693 C 2285.353368 2729.088969 2320.325994 2839.151009 2467.81924 2896.614339 C 2615.616597 2954.077669 2875.630465 2959.246329 2958.044217 2979.00885 C 3040.762079 2999.075409 2945.575715 3034.03987 2760.676965 3059.275089 C 2575.474105 3084.206269 2300.254748 3099.104169 2095.284751 3059.275089 C 1890.010645 3019.141969 1754.9859 2923.97783 1737.651642 2754.02015 C 1720.013274 2584.06247 1820.065394 2339.00721 1887.577767 2193.676671 C 1955.09014 2048.650171 1990.366875 2003.652431 1910.081891 1981.153561 C 1830.101017 1958.654691 1635.166644 1958.654691 1525.078901 2063.852111 C 1414.991158 2168.745491 1390.054156 2378.836291 1455.13365 2586.49478 C 1519.909035 2794.153269 1675.005026 2999.075409 1880.279132 3114.306109 C 2085.249129 3229.232769 2340.39724 3254.163949 2495.493231 3284.263789 C 2650.589222 3314.363628 2705.633094 3349.328088 2810.55097 3399.190449 C 2915.468847 3449.356848 3070.564838 3514.421148 3200.723827 3506.820178 C 3330.882815 3499.219209 3435.800692 3419.257009 3418.466434 3366.658299 C 3400.828066 3314.363628 3260.633455 3289.128409 3223.227951 3281.831478 C 3185.822447 3274.230509 3250.597832 3284.263789 3345.784195 3311.931318 C 3440.970558 3339.294809 3565.959681 3384.292549 3745.992674 3399.190449 C 3926.025668 3414.392388 4161.102534 3399.190449 4403.782143 3439.323568 C 4646.461753 3479.456688 4896.439998 3574.316788 5046.366123 3639.381088 C 5196.596358 3704.445388 5246.470363 3739.409848 5290.262172 3759.476408 C 5334.053981 3779.542967 5371.763595 3784.407588 5429.848564 3773.766231 C 5487.933534 3763.124873 5566.697968 3736.977538 5616.267864 3738.80177 C 5665.533649 3740.626003 5685.604895 3770.725843 5669.791186 3807.514536 C 5654.281587 3844.607267 5602.887033 3888.388852 5531.117123 3921.529079 C 5459.043104 3954.669307 5366.593729 3977.168177 5303.947113 4018.82149 C 5241.604606 4060.778842 5209.064859 4122.194677 5195.988138 4132.227957 C 5182.911417 4142.261236 5188.993613 4100.911962 5257.114205 4059.562687 C 5325.234798 4018.213413 5455.393786 3977.168177 5577.341811 3948.89257 C 5699.289835 3920.921002 5813.026896 3905.719063 5889.966672 3893.253473 C 5966.906448 3880.787882 6007.04894 3870.754603 6029.553064 3889.605007 C 6052.057188 3908.151373 6056.922945 3955.885462 6046.887322 3999.667047 C 6036.851699 4043.448632 6011.914696 4083.277712 5931.933822 4112.161397 C 5851.952948 4140.741043 5716.624093 4158.375292 5619.917181 4189.083209 C 5522.906159 4219.791126 5464.21297 4263.572711 5417.380063 4299.145249 C 5370.243046 4334.717787 5335.270421 4362.081277 5333.445762 4360.865122 C 5331.621103 4359.648967 5362.944411 4329.853166 5444.141724 4292.152357 C 5525.339037 4254.755586 5656.714465 4209.757846 5752.509048 4187.258976 C 5847.999521 4164.760106 5908.213259 4164.760106 5978.15851 4142.869314 C 6048.103761 4120.978522 6128.084635 4077.196937 6184.344945 4074.460588 C 6240.909366 4072.028277 6273.145003 4110.945242 6255.810745 4160.199525 C 6238.172378 4209.757846 6170.660005 4269.653487 6076.385971 4322.860274 C 5981.807827 4376.067061 5860.468022 4422.280956 5771.059745 4454.205029 C 5681.651468 4486.129101 5624.174718 4503.459312 5574.300713 4534.775306 C 5524.122598 4566.091301 5481.547228 4611.089041 5474.248593 4618.081933 C 5466.645848 4624.770786 5494.319839 4593.454792 5569.130847 4576.732658 C 5644.245964 4559.706487 5766.802208 4557.274176 5865.029669 4544.200509 C 5963.25713 4531.126841 6036.851699 4507.411816 6099.498315 4490.993721 C 6161.840821 4474.879666 6213.235375 4466.062541 6249.42444 4497.378536 C 6285.613504 4528.390492 6306.90119 4599.839606 6240.909366 4656.694859 C 6174.613432 4713.550111 6020.73388 4756.115541 5879.322829 4796.24866 C 5737.911778 4836.077741 5609.273339 4873.77855 5537.807539 4908.134933 C 5466.645848 4942.491315 5452.960908 4973.80731 5471.815715 5000.562723 C 5490.366412 5027.622175 5541.760966 5050.121045 5570.347286 5088.125893 C 5599.237716 5126.43478 5605.319911 5179.945605 5637.859658 5216.43026 C 5670.399406 5252.610875 5729.396704 5271.461279 5785.657015 5290.007645 C 5841.917325 5308.85805 5895.744758 5327.708454 5921.898199 5363.88907 C 5948.051641 5400.069685 5946.835202 5453.88455 5892.39955 5471.518799 C 5837.963898 5488.84901 5730.613143 5470.302644 5649.111721 5423.78471 C 5567.914407 5377.570815 5512.870536 5303.993429 5468.470507 5226.463539 C 5424.070478 5148.93365 5390.314292 5067.451255 5339.223848 5009.379848 C 5287.829294 4951.30844 5219.100482 4916.039941 5194.163479 4876.818938 C 5168.922367 4837.293896 5187.777174 4793.512311 5169.530587 4747.298416 C 5151.588109 4701.084521 5096.544238 4652.438316 5068.870247 4608.656731 C 5041.500366 4564.875146 5041.500366 4525.958182 5024.470218 4481.568519 C 5007.74418 4437.178857 4973.987994 4387.316496 4968.209908 4326.508739 C 4962.735932 4266.005021 4985.240056 4194.555907 5001.966094 4127.059297 C 5018.996242 4059.562687 5030.248304 3995.714543 5085.292176 3938.85929 C 5140.336047 3882.004038 5239.171728 3831.837638 5288.437513 3806.906458 C 5338.007409 3781.975278 5338.007409 3781.975278 5187.168954 3857.072857 C 5036.3305 3932.170437 4734.957701 4082.061557 4419.291743 4257.187897 C 4103.625784 4432.314236 3773.362555 4632.371756 3391.400663 4892.932994 C 3009.438771 5153.79827 2575.474105 5475.167265 2373.545206 5697.115577 C 2171.616308 5919.063889 2201.419067 6041.591519 2257.679378 6179.321088 C 2314.243798 6316.746618 2396.65755 6469.374087 2564.222043 6678.248732 C 2731.786535 6887.123376 2984.501768 7152.245196 3110.70733 7284.806106 C 3236.912891 7417.367015 3236.912891 7417.367015 3223.227951 7343.485591 C 3209.54301 7269.604166 3181.86902 7122.145356 3280.704701 6925.736302 C 3379.540381 6729.327248 3604.581624 6484.271988 3717.102245 6361.744358 C 3829.622866 6239.216728 3829.622866 6239.216728 3725.921429 6364.176668 C 3622.219991 6489.440647 3414.513007 6739.360527 3310.81157 6928.168612 C 3207.110132 7116.976697 3207.110132 7244.672986 3226.877268 7331.020001 C 3246.948514 7417.367015 3287.091006 7462.364755 3443.403437 7641.13956 C 3599.715867 7819.914365 3872.198236 8132.466235 4107.275101 8343.773189 C 4342.351966 8555.384183 4540.023328 8665.142184 4638.859009 8735.375143 C 4737.694689 8805.304063 4737.694689 8835.403903 4814.026246 8884.050108 C 4890.053693 8933.000352 5042.716806 9000.496962 5306.684101 9047.927013 C 5570.347286 9095.357063 5945.618763 9123.024592 6165.794248 9178.055612 C 6385.665624 9233.086632 6450.745119 9315.481142 6509.742417 9354.398107 C 6568.435606 9393.011032 6621.046599 9388.146412 6703.460352 9300.583242 C 6785.874104 9213.020072 6898.394725 9043.062392 7030.986592 8957.931533 C 7163.578459 8872.800673 7316.241572 8872.800673 7366.115577 8802.871753 C 7416.293692 8732.942833 7363.682699 8592.780953 7370.069004 8352.590314 C 7376.1512 8112.399675 7441.230694 7772.484315 7593.893807 7606.1751 C 7746.252811 7439.865885 7986.499542 7447.162816 8074.083161 7327.067496 C 8161.66678 7207.276216 8096.587285 6959.484607 8102.669481 6936.985737 C 8109.055786 6914.486867 8186.603782 7116.976697 8289.08878 7245.889141 C 8391.573778 7374.801586 8519.299889 7429.832605 8570.390333 7598.57413 C 8621.784887 7767.315655 8596.847885 8050.071724 8495.579325 8325.226824 C 8394.006657 8600.381923 8216.710651 8867.936053 8078.948918 9030.292763 C 7941.491294 9192.953513 7843.872052 9250.416843 7880.061117 9133.057872 C 7916.554291 9015.394863 8086.551662 8722.909553 8194.206527 8420.086924 C 8301.557281 8117.568334 8346.56553 7805.016465 8326.494284 7677.320175 C 8306.727148 7549.927925 8221.576408 7607.391255 8161.66678 7829.947645 C 8101.453042 8052.504035 8066.480416 8440.153484 7917.77073 8714.092428 C 7768.756935 8988.031372 7506.310189 9147.955773 7391.356689 9265.618782 C 7276.09908 9382.977752 7308.638827 9458.075332 7333.57583 9409.429127 C 7358.816942 9360.478882 7376.1512 9188.088892 7376.1512 9095.357063 C 7376.1512 9002.929273 7358.816942 8990.463683 7204.93739 9057.960293 C 7051.057838 9125.456903 6760.937101 9272.915713 6615.876733 9416.726057 C 6470.816365 9560.536402 6470.816365 9700.698281 6555.967105 9920.822361 C 6640.813735 10140.94644 6811.115216 10441.03272 6996.013967 10697.337415 C 7181.216827 10953.946148 7381.321066 11166.165219 7626.433555 11223.932588 C 7871.546043 11281.395918 8161.66678 11183.799469 8316.762771 11105.053424 C 8471.554652 11026.307379 8491.625898 10966.411738 8387.924461 10936.311899 C 8284.223024 10906.212059 8056.444793 10906.212059 7896.483045 10962.459234 C 7736.521298 11018.706409 7643.767813 11131.200759 7601.192442 11262.545514 C 7558.921182 11393.890268 7566.219817 11544.085427 7726.485675 11627.696093 C 7886.447422 11711.610797 8199.072283 11728.941008 8445.401211 11635.297063 C 8691.730138 11541.349078 8871.763132 11336.426938 8866.897375 11182.583314 C 8861.727509 11028.739689 8671.658892 10926.278619 8489.19302 10919.893804 C 8306.727148 10913.813029 8131.559911 11003.808509 8097.803724 11086.203019 C 8064.047538 11168.901568 8171.702402 11243.999148 8271.754522 11227.277015 C 8371.806642 11210.554882 8464.256017 11102.621113 8581.642395 10979.789445 C 8699.332883 10857.261815 8841.960373 10720.444362 8949.311127 10531.940316 C 9056.965992 10343.43627 9129.344121 10103.54967 9088.2893 9784.612986 C 9046.930369 9465.676302 8891.834378 9067.993572 8789.34938 8854.254307 C 8686.864381 8640.211004 8636.686267 8610.415203 8520.516328 8687.945093 C 8404.04228 8765.474983 8221.576408 8950.330563 8076.516039 9095.357063 C 7931.455671 9240.383563 7823.800806 9345.580982 7802.513121 9534.389067 C 7781.529546 9723.197151 7846.304931 9995.91994 7968.861175 10222.124796 C 8091.417419 10448.63369 8271.754522 10628.624649 8422.897086 10703.722229 C 8574.34376 10778.819809 8696.900004 10748.719969 8814.286382 10610.9904 C 8931.97687 10473.56487 9044.497491 10228.50961 9073.083811 10020.851121 C 9101.97424 9813.192631 9046.930369 9643.234951 8885.752182 9520.707321 C 8724.269885 9398.179692 8456.653273 9323.082112 8203.93804 9330.683082 C 7951.526917 9337.980012 7714.017173 9427.975492 7603.92943 9676.983256 C 7493.841688 9925.686981 7511.175945 10333.40299 7457.652623 10564.776505 C 7403.825191 10796.150019 7278.531959 10851.181039 7146.244201 10787.332895 C 7013.652334 10723.788789 6873.457722 10541.06148 6823.583717 10372.319955 C 6773.405603 10203.274391 6813.548094 10048.51865 6893.528968 9912.005236 C 6973.509842 9775.795861 7093.633208 9658.132852 7226.225075 9619.519926 C 7358.816942 9580.602962 7503.877311 9620.736081 7476.20332 9585.771621 C 7448.833439 9550.807161 7248.729199 9440.745121 7082.381146 9440.745121 C 6916.033093 9440.745121 6783.441226 9550.807161 6705.89323 9464.460146 C 6628.345234 9378.113132 6605.84111 9095.357063 6597.021926 8845.437183 C 6588.506852 8595.213264 6593.372609 8377.521494 6622.263038 8236.447499 C 6650.849358 8095.069464 6703.460352 8030.005165 6852.170037 7846.0617 C 7001.183833 7662.422275 7246.296321 7359.599646 7377.367639 7194.506587 C 7508.743067 7029.717566 7526.381435 7002.050037 7522.428008 6875.873941 C 7518.77869 6749.393807 7493.841688 6524.405107 7466.167697 6444.442907 C 7438.797816 6364.176668 7408.690947 6429.240968 7456.132074 6600.718842 C 7503.877311 6771.892677 7628.866433 7049.480087 7691.513049 7209.708526 C 7753.855555 7369.632926 7753.855555 7412.198356 7688.776061 7504.930185 C 7623.696567 7597.357975 7493.841688 7739.952165 7337.529257 7882.546354 C 7181.216827 8025.140544 6998.446845 8167.430695 6885.926224 8285.093704 C 6773.405603 8402.756713 6730.830232 8495.184504 6708.326108 8642.643314 C 6685.821984 8790.406163 6683.389106 8992.895993 6677.30691 9137.922493 C 6670.920604 9282.948993 6660.884981 9370.512162 6580.904107 9349.229447 C 6500.923234 9327.946733 6350.692999 9198.122172 6218.101132 8982.862713 C 6085.813374 8767.907293 5970.555765 8467.821013 5901.826953 8283.877549 C 5833.098142 8099.934085 5810.594017 8032.437475 5919.465321 7981.358959 C 6028.032515 7929.976405 6268.279247 7895.011945 6404.520431 7828.73149 C 6540.761616 7762.451035 6573.301363 7664.854585 6650.849358 7597.357975 C 6728.397354 7529.861365 6850.953598 7492.160556 6972.293403 7434.697226 C 7093.633208 7377.233896 7213.756574 7299.704006 7273.666202 7260.787042 C 7333.57583 7222.174116 7333.57583 7222.174116 7192.468889 7348.350211 C 7051.057838 7474.830345 6768.539846 7727.486575 6637.164418 8063.75347 C 6505.78899 8400.020364 6525.860236 8820.506002 6554.750666 9051.575478 C 6583.336986 9282.948993 6621.046599 9325.514422 6599.758914 9340.716361 C 6578.471229 9355.614262 6498.490355 9343.148672 6410.906737 9301.799397 C 6323.323118 9260.450123 6228.136755 9190.521202 6019.517441 9130.625562 C 5810.594017 9070.425883 5487.933534 9020.563522 5279.01011 8988.031372 C 5070.390796 8955.499222 4975.204433 8940.297283 4949.050991 8924.183228 C 4922.59344 8907.765133 4965.16881 8890.434923 4990.105812 8755.441703 C 5015.346925 8620.144444 5022.64556 8367.792253 5023.861999 8032.437475 C 5025.382548 7697.386735 5020.212681 7279.637446 5005.311302 6995.969261 C 4990.105812 6711.997037 4965.16881 6561.801878 4860.250933 6489.440647 C 4755.028947 6416.775378 4570.130197 6421.944037 4477.376712 6438.058093 C 4384.927337 6454.476187 4384.927337 6481.839678 4477.376712 6570.619002 C 4570.130197 6659.398327 4755.028947 6809.593487 4820.108442 6829.660046 C 4885.187936 6849.422567 4830.144065 6739.360527 4654.976827 6626.866177 C 4480.1137 6514.371827 4184.823097 6399.445167 3995.970919 6317.962773 C 3807.118742 6236.784418 3724.704989 6189.354368 3645.940555 6139.187968 C 3567.17612 6089.325608 3492.061002 6036.726898 3359.469135 6023.045153 C 3226.877268 6009.059369 3036.808652 6034.294588 3029.510017 6058.009613 C 3021.907272 6081.724638 3197.074509 6104.223508 3467.124 5946.731418 C 3737.173491 5788.935289 4102.409345 5451.452239 4374.891714 5231.32816 C 4647.678192 5011.20408 4827.711186 4908.74301 4933.845502 4862.529115 C 5040.283927 4816.011181 5072.823675 4826.044461 5105.363422 4826.044461 C 5137.903169 4826.044461 5170.138806 4816.011181 5162.840171 4811.146561 C 5155.237427 4806.28194 5107.7963 4806.28194 5081.642858 4916.039941 C 5055.185307 5026.101981 5050.31955 5246.22606 5055.185307 5462.701674 C 5060.355173 5679.177288 5075.256553 5891.700398 5001.357875 6056.793458 C 4927.763306 6221.886517 4765.06457 6339.245488 4682.650818 6380.594763 C 4599.932956 6421.944037 4597.500078 6386.675538 4722.4892 6326.779898 C 4847.782432 6266.884257 5100.193555 6181.753398 5258.938864 6021.524959 C 5417.988283 5861.600559 5483.067777 5626.578579 5573.084274 5531.41444 C 5663.100771 5436.554339 5778.05427 5481.552079 5855.602266 5480.335924 C 5933.150261 5478.81573 5972.988644 5431.38568 6111.966816 5445.067425 C 6250.640879 5459.053209 6488.454732 5533.84675 6679.739788 5581.580839 C 6871.024844 5629.010889 7016.085212 5649.077449 7411.123826 5624.146269 C 7806.466548 5598.91105 8451.787516 5528.982129 8905.519318 5520.165005 C 9359.55523 5511.34788 9622.306086 5563.946589 9753.377404 5590.093925 C 9884.752832 5616.545299 9884.752832 5616.545299 9836.095266 5698.939809 C 9787.13359 5781.638359 9689.818458 5946.731418 9691.034898 6039.159208 C 9692.251337 6131.586999 9792.303457 6151.653558 9992.407696 6230.399603 C 10192.511936 6309.145648 10492.364186 6446.875217 10627.693041 6503.122392 C 10762.717786 6559.369567 10732.610918 6534.438387 10723.791734 6679.464887 C 10714.97255 6824.491387 10727.745161 7139.779606 10617.657418 7521.044241 C 10507.569675 7902.308875 10274.925688 8350.158004 10090.026938 8621.664638 C 9904.824078 8892.867233 9767.366454 8988.031372 9613.486902 9035.461423 C 9459.60735 9082.891473 9289.609979 9082.891473 9169.486613 9092.924753 C 9049.363247 9102.958033 8979.417996 9123.024592 8944.445371 9133.057872 C 8909.472745 9143.091152 8909.472745 9143.091152 8935.626187 9041.542198 C 8961.779629 8940.297283 9014.390622 8737.807453 9032.028989 8598.861729 C 9049.363247 8460.220044 9032.028989 8385.122464 8985.804302 8438.329251 C 8939.275505 8491.536038 8864.464497 8672.743153 8798.168563 8683.992588 C 8731.87263 8695.242023 8674.39588 8536.533778 8645.50545 8495.792581 C 8616.615021 8455.051384 8616.615021 8532.581274 8684.431503 8641.427159 C 8751.943876 8750.273043 8886.968621 8890.434923 9016.215281 8968.268851 C 9145.76605 9045.798741 9269.538733 9061.304719 9393.919636 9050.359323 C 9518.300539 9039.413927 9642.985551 9002.321195 9733.610268 8912.021676 C 9824.539094 8821.722158 9880.799405 8678.51989 9875.325428 8417.958653 C 9869.851452 8157.701454 9802.33908 7779.781246 9722.358206 7504.930185 C 9642.073222 7229.775086 9549.623847 7057.081056 9503.399159 7003.266192 C 9457.174472 6949.451327 9457.174472 7014.515627 9519.516978 7210.924681 C 9582.163594 7407.333735 9707.152716 7734.783506 9732.089719 7761.23488 C 9757.330831 7787.382215 9682.215714 7512.227116 9618.352659 7222.174116 C 9554.793713 6932.121116 9502.18272 6626.866177 9472.075851 6449.307528 C 9441.968982 6271.748878 9434.670347 6221.886517 9400.914161 6089.021569 C 9366.853865 5956.460659 9306.944237 5740.897162 9276.837368 5633.267432 C 9246.730499 5525.637703 9246.730499 5525.637703 9270.451062 5638.132053 C 9294.171626 5750.930441 9341.916862 5976.22318 9376.889488 6099.054849 C 9412.166223 6221.886517 9434.670347 6241.649038 9489.105999 6196.043221 C 9543.845761 6150.437403 9630.51705 6039.159208 9678.870506 5972.574715 C 9726.919852 5905.990221 9736.651366 5884.099429 9704.415728 5931.22544 C 9672.180091 5978.047413 9598.585522 6093.582151 9752.769184 6220.062285 C 9907.256956 6346.846458 10290.131178 6484.271988 10490.843637 6552.984753 C 10691.251987 6621.393479 10710.410903 6621.089441 10752.682163 6472.414475 C 10795.257534 6323.435471 10861.553467 6026.38958 10894.701434 5877.714614 C 10927.849401 5729.039649 10927.849401 5729.039649 10763.934226 5717.790214 C 10600.01905 5706.540779 10272.49281 5684.041909 10092.763926 5664.887466 C 9913.035042 5645.733022 9881.407624 5629.923005 9865.593915 5622.017997 C 9849.780206 5614.112989 9849.780206 5614.112989 10091.851597 5639.652247 C 10334.227097 5664.887466 10818.369877 5715.661942 11264.498935 5733.600231 C 11710.627992 5751.538519 12118.135106 5736.640619 12444.444908 5710.189244 C 12771.058819 5684.041909 13016.171307 5646.645139 13216.275547 5569.115249 C 13416.379786 5491.585359 13571.171668 5373.92235 13765.193712 5189.978885 C 13958.911646 5006.33946 14191.555633 4756.115541 14329.317367 4614.737506 C 14466.77499 4473.359472 14509.046251 4441.131361 14521.818862 4419.848646 C 14534.287363 4398.565931 14516.648995 4388.532651 14481.67637 4392.181117 C 14446.703744 4395.829582 14394.092751 4413.463832 14330.533806 4487.345256 C 14266.670751 4560.922642 14191.555633 4691.051241 14135.295323 4768.581131 C 14079.035012 4846.111021 14041.629508 4871.042201 14076.602134 4819.963685 C 14111.574759 4768.581131 14219.229624 4641.188881 14295.25707 4548.457052 C 14371.588627 4456.029261 14416.596875 4398.565931 14426.632498 4359.648967 C 14436.668121 4321.036041 14411.731119 4300.969482 14375.542054 4290.936202 C 14339.04888 4280.902922 14291.607753 4280.902922 14247.815944 4332.285476 C 14204.024134 4383.363992 14164.185752 4486.129101 14071.736377 4604.704227 C 13978.982892 4723.583391 13833.922524 4858.576611 13847.607464 4844.894866 C 13861.596514 4831.21312 14034.026764 4668.552371 14131.646005 4537.207617 C 14228.961137 4405.862862 14251.465261 4305.834102 14237.780321 4255.971742 C 14224.09538 4205.805342 14174.221375 4205.805342 14119.177504 4249.586927 C 14064.133632 4293.368512 14003.919895 4380.931682 13929.108887 4469.711007 C 13853.99377 4558.490331 13763.977273 4648.485811 13630.168967 4743.649951 C 13496.36066 4838.510051 13318.760545 4938.84285 13172.483737 5013.636391 C 13026.20693 5088.73397 12910.949321 5138.90037 12789.913626 5162.615395 C 12668.573821 5186.33042 12540.84771 5183.89811 12223.357093 5088.73397 C 11905.562365 4993.87387 11398.003131 4806.28194 11026.380972 4693.483551 C 10655.062922 4580.989201 10419.986057 4543.592431 10192.511936 4523.525871 C 9964.733706 4503.459312 9744.86233 4501.027001 9607.100596 4497.378536 C 9469.642973 4493.426032 9414.599101 4488.561411 9324.582604 4402.214397 C 9234.566108 4315.867382 9109.576985 4148.342012 8913.122063 4109.729087 C 8716.667141 4070.812122 8449.050528 4160.807602 8215.190102 4314.651227 C 7981.329676 4468.494851 7781.529546 4686.186621 7633.73219 4784.999225 C 7486.238943 4883.81183 7391.356689 4863.74527 7458.869062 4748.514571 C 7526.381435 4633.587911 7756.288434 4423.497111 7881.581666 4274.822146 C 8006.570788 4125.843142 8026.642034 4038.279972 8012.652984 3945.852182 C 7998.968044 3853.120353 7951.526917 3755.827942 7831.403551 3686.811138 C 7711.280185 3618.098373 7518.77869 3578.269293 7303.773071 3531.751359 C 7088.463342 3485.537464 6850.953598 3432.938754 6725.964476 3376.691579 C 6600.975353 3320.444404 6588.506852 3260.548764 6594.589048 3216.767179 C 6600.975353 3172.985594 6625.912356 3145.318064 6814.764534 3176.634059 C 7003.616711 3207.950054 7356.079954 3297.945534 7523.644447 3320.444404 C 7691.513049 3342.943274 7673.874681 3297.945534 7531.247191 3259.332608 C 7388.619701 3220.415644 7121.003089 3187.883494 6947.356401 3152.919034 C 6773.405603 3117.954574 6693.424729 3080.557804 6649.632919 3034.03987 C 6605.84111 2987.825974 6598.542475 2932.794955 6628.345234 2899.04665 C 6658.452103 2865.298345 6725.964476 2852.832754 6826.016596 2864.082189 C 6926.068716 2875.331624 7058.660583 2910.296085 7217.405891 2950.429204 C 7376.1512 2990.258285 7561.35406 3035.256025 7658.973302 3058.058934 C 7756.288434 3080.557804 7766.324057 3080.557804 7705.197989 3052.890274 C 7643.767813 3025.526784 7511.175945 2970.495764 7380.104627 2912.728395 C 7248.729199 2855.265065 7118.570211 2795.369424 7020.950969 2757.668615 C 6923.635837 2720.271845 6858.556343 2705.373944 6838.485097 2664.02467 C 6818.413851 2622.675395 6843.350854 2555.178785 6887.142663 2523.86279 C 6930.934472 2492.546796 6993.581088 2497.715455 7142.290774 2549.098009 C 7291.30457 2600.176525 7526.381435 2697.772975 7696.378806 2759.188809 C 7866.376176 2820.300605 7971.598163 2845.231785 7987.715981 2840.367164 C 8004.13791 2835.198505 7931.455671 2800.234045 7865.159737 2736.3859 C 7798.863804 2672.841794 7738.954176 2580.109965 7662.622619 2513.829511 C 7586.291063 2447.549056 7493.841688 2407.719975 7451.266317 2371.235321 C 7408.690947 2335.054706 7416.293692 2302.522556 7453.699196 2286.4085 C 7491.408809 2269.990406 7558.921182 2269.990406 7717.666491 2352.688955 C 7876.411799 2435.083466 8126.694154 2600.176525 8362.987458 2777.735175 C 8599.280763 2955.293825 8821.889127 3145.318064 9040.544064 3295.513224 C 9259.50311 3445.708383 9474.508729 3555.770423 9674.612969 3728.160413 C 9874.717209 3900.854442 10059.920069 4135.876422 10204.980437 4286.071581 C 10350.040806 4435.962702 10454.958682 4501.027001 10507.569675 4533.559151 C 10560.180668 4566.091301 10560.180668 4566.091301 10407.517555 4549.673207 C 10254.854442 4533.559151 9949.832326 4501.027001 9684.648592 4492.209877 C 9419.464858 4483.392752 9194.423616 4498.594691 8948.094688 4508.627971 C 8701.765761 4518.661251 8434.149149 4523.525871 8256.549033 4528.390492 C 8078.948918 4533.559151 7991.365299 4538.423772 7876.411799 4611.089041 C 7761.4583 4683.450272 7618.83081 4823.612151 7456.132074 4923.640911 C 7293.737448 5023.669671 7111.271576 5083.86935 7032.203031 5127.650935 C 6953.438596 5171.43252 6978.679709 5198.79601 7054.707155 5157.446735 C 7131.038712 5116.4015 7258.764822 5006.33946 7335.096379 4912.391476 C 7411.123826 4818.74753 7436.364938 4741.21764 7448.833439 4702.300676 C 7461.30194 4663.687751 7461.30194 4663.687751 7235.044259 4728.75205 C 7008.482468 4793.512311 6555.967105 4923.640911 6232.698402 4986.880978 C 5909.429698 5050.425084 5715.711764 5046.776618 5618.700742 5045.256424 C 5521.68972 5043.432192 5521.68972 5043.432192 5727.572046 4936.41054 C 5933.150261 4829.388888 6344.610803 4615.041545 6641.421955 4449.340408 C 6938.537217 4283.335232 7121.003089 4165.976262 7218.622331 4044.664787 C 7316.241572 3923.353312 7328.710073 3798.089333 7328.710073 3712.046357 C 7328.710073 3625.699343 7316.241572 3578.269293 7103.668831 3539.352328 C 6891.09609 3500.739403 6478.419109 3470.639563 6132.038062 3365.442144 C 5785.657015 3260.548764 5505.571901 3080.557804 5649.111721 2910.296085 C 5792.95565 2740.338404 6360.728622 2580.109965 6656.019225 2460.318685 C 6951.005718 2340.223365 6973.509842 2259.957126 6933.67146 2118.88313 C 6893.528968 1977.505096 6791.04397 1775.015266 6670.920604 1619.651447 C 6550.797239 1464.591668 6413.339615 1357.265977 6179.479189 1285.816863 C 5945.618763 1214.671787 5615.355534 1179.707327 5351.692349 1183.355793 C 5087.725054 1187.004258 4890.053693 1229.569688 4752.596069 1320.781323 C 4615.138445 1412.296997 4537.59045 1552.154837 4526.338388 1701.133842 C 4515.086325 1849.808807 4570.130197 2007.604936 4606.319261 2106.41754 C 4642.508326 2204.926106 4660.146694 2245.059226 4670.182317 2253.87635 C 4680.21794 2262.693475 4682.650818 2240.194605 4640.075448 2182.427236 C 4597.500078 2124.963906 4509.916459 2032.536116 4453.960258 1964.431428 C 4398.004057 1896.630779 4373.371165 1853.153233 4370.634177 1746.739659 C 4368.201298 1640.630124 4387.968435 1471.280521 4400.132826 1340.543844 C 4412.601327 1209.503128 4417.467084 1117.075338 4625.174068 1043.193913 C 4832.576943 969.616528 5242.821045 914.585508 5729.396704 880.837203 C 6215.668253 847.088898 6778.575469 834.319269 7473.770442 864.419109 C 8168.965414 894.518948 8997.056364 966.880179 9658.49515 949.549968 C 10319.933937 931.915719 10815.32878 824.590028 11270.277021 760.741883 C 11725.529372 696.893739 12140.639231 676.827179 12679.825883 713.311833 C 13218.708425 749.492448 13881.363651 841.920239 14336.616001 1009.445608 C 14791.868352 1176.970978 15039.413719 1419.593928 15331.967334 1540.905402 C 15624.825059 1662.216877 15962.386922 1662.216877 16299.948785 1662.216877 " stroke="#000000" stroke-width="48.306999" stroke-opacity="1" stroke-miterlimit="22.926001"/><path stroke-linecap="butt" transform="matrix(0.0128449, 0, 0, -0.0128479, 0.383219, 151.102036)" fill="none" stroke-linejoin="miter" d="M 14.26148 22.839755 C 439.406962 202.830715 864.856554 383.125714 1322.541783 518.118934 C 1780.227012 653.112154 2270.451989 743.107634 2630.517976 938.300533 C 2990.583964 1133.493432 3220.795073 1433.579712 3163.318323 1683.499592 C 3105.841573 1933.723511 2760.676965 2133.781031 2507.961732 2218.91189 C 2255.246499 2303.738711 2095.284751 2273.94291 2040.24088 2156.279901 C 1985.197009 2038.616892 2035.375123 1833.694751 1937.755882 1638.501852 C 1840.13664 1443.612992 1595.024152 1258.453372 1302.470537 1078.462412 C 1009.916922 898.167414 669.618071 723.041074 497.187822 610.546724 C 324.453463 498.052374 319.587706 448.190014 571.998829 467.952535 C 824.714062 488.019094 1335.010284 578.014574 1717.580396 685.644304 C 2100.150508 793.274033 2355.298619 918.233973 2515.564477 1075.726063 C 2675.526225 1233.522192 2740.605719 1423.546432 2702.896106 1613.570672 C 2665.490602 1803.594912 2525.29599 1993.619152 2397.873989 2091.215601 C 2270.451989 2188.812051 2155.194379 2193.676671 2090.418995 2091.215601 C 2025.3395 1988.754531 2010.134011 1778.663731 1960.260006 1646.102822 C 1910.081891 1513.541912 1825.235261 1458.510892 1715.147518 1468.544172 C 1605.059775 1478.577452 1470.03503 1553.370993 1384.884289 1756.164861 C 1300.037659 1958.654691 1264.760924 2288.840811 1329.840418 2543.92935 C 1394.919912 2799.01789 1560.051527 2979.00885 1765.021523 3091.807239 C 1970.295629 3204.301589 2215.408117 3249.299329 2407.909612 3271.798199 C 2600.411107 3294.297069 2740.605719 3294.297069 2892.964722 3261.764919 C 3045.627835 3229.232769 3210.75945 3164.168469 3428.197947 3131.636319 C 3645.940555 3099.104169 3915.990045 3099.104169 3995.970919 3046.809499 C 4075.951793 2994.210789 3966.16816 2889.01337 4016.042165 2701.42144 C 4066.22028 2513.829511 4276.056033 2243.843071 4343.568406 2053.818831 C 4411.080778 1863.794591 4336.269771 1753.732551 4213.713527 1601.105082 C 4091.157283 1448.477612 3921.159912 1253.284713 3711.020049 1100.961282 C 3500.880186 948.333813 3250.597832 838.271773 3073.301826 800.570964 C 2895.70171 763.174194 2790.479724 798.138654 2860.729085 855.601984 C 2930.674336 913.369353 3175.786824 993.331553 3385.926687 1120.723803 C 3595.76244 1248.420092 3770.929677 1423.546432 3888.620165 1611.138362 C 4006.006542 1798.730291 4066.22028 1998.787811 3993.538041 2048.650171 C 3921.159912 2098.816571 3715.885806 1998.787811 3510.915809 1976.288941 C 3305.641703 1953.790071 3100.671707 2008.821091 3015.520966 2041.353241 C 2930.674336 2073.88539 2965.646961 2083.91867 3088.203206 2106.41754 C 3210.75945 2128.91641 3420.899312 2163.88087 3568.392559 2273.94291 C 3715.885806 2384.00495 3801.036546 2568.86053 3868.548919 2671.625639 C 3936.061291 2774.086709 3985.935296 2794.153269 3946.096914 2811.48348 C 3905.954422 2829.117729 3776.099543 2844.01563 3590.896683 2844.01563 C 3405.693823 2844.01563 3165.751201 2829.117729 2993.016842 2733.95359 C 2820.586593 2639.093489 2715.668717 2463.96715 2602.843986 2431.435 C 2490.323365 2398.90285 2370.504109 2508.96489 2327.928738 2619.02693 C 2285.353368 2729.088969 2320.325994 2839.151009 2467.81924 2896.614339 C 2615.616597 2954.077669 2875.630465 2959.246329 2958.044217 2979.00885 C 3040.762079 2999.075409 2945.575715 3034.03987 2760.676965 3059.275089 C 2575.474105 3084.206269 2300.254748 3099.104169 2095.284751 3059.275089 C 1890.010645 3019.141969 1754.9859 2923.97783 1737.651642 2754.02015 C 1720.013274 2584.06247 1820.065394 2339.00721 1887.577767 2193.676671 C 1955.09014 2048.650171 1990.366875 2003.652431 1910.081891 1981.153561 C 1830.101017 1958.654691 1635.166644 1958.654691 1525.078901 2063.852111 C 1414.991158 2168.745491 1390.054156 2378.836291 1455.13365 2586.49478 C 1519.909035 2794.153269 1675.005026 2999.075409 1880.279132 3114.306109 C 2085.249129 3229.232769 2340.39724 3254.163949 2495.493231 3284.263789 C 2650.589222 3314.363628 2705.633094 3349.328088 2810.55097 3399.190449 C 2915.468847 3449.356848 3070.564838 3514.421148 3200.723827 3506.820178 C 3330.882815 3499.219209 3435.800692 3419.257009 3418.466434 3366.658299 C 3400.828066 3314.363628 3260.633455 3289.128409 3223.227951 3281.831478 C 3185.822447 3274.230509 3250.597832 3284.263789 3345.784195 3311.931318 C 3440.970558 3339.294809 3565.959681 3384.292549 3745.992674 3399.190449 C 3926.025668 3414.392388 4161.102534 3399.190449 4403.782143 3439.323568 C 4646.461753 3479.456688 4896.439998 3574.316788 5046.366123 3639.381088 C 5196.596358 3704.445388 5246.470363 3739.409848 5290.262172 3759.476408 C 5334.053981 3779.542967 5371.763595 3784.407588 5429.848564 3773.766231 C 5487.933534 3763.124873 5566.697968 3736.977538 5616.267864 3738.80177 C 5665.533649 3740.626003 5685.604895 3770.725843 5669.791186 3807.514536 C 5654.281587 3844.607267 5602.887033 3888.388852 5531.117123 3921.529079 C 5459.043104 3954.669307 5366.593729 3977.168177 5303.947113 4018.82149 C 5241.604606 4060.778842 5209.064859 4122.194677 5195.988138 4132.227957 C 5182.911417 4142.261236 5188.993613 4100.911962 5257.114205 4059.562687 C 5325.234798 4018.213413 5455.393786 3977.168177 5577.341811 3948.89257 C 5699.289835 3920.921002 5813.026896 3905.719063 5889.966672 3893.253473 C 5966.906448 3880.787882 6007.04894 3870.754603 6029.553064 3889.605007 C 6052.057188 3908.151373 6056.922945 3955.885462 6046.887322 3999.667047 C 6036.851699 4043.448632 6011.914696 4083.277712 5931.933822 4112.161397 C 5851.952948 4140.741043 5716.624093 4158.375292 5619.917181 4189.083209 C 5522.906159 4219.791126 5464.21297 4263.572711 5417.380063 4299.145249 C 5370.243046 4334.717787 5335.270421 4362.081277 5333.445762 4360.865122 C 5331.621103 4359.648967 5362.944411 4329.853166 5444.141724 4292.152357 C 5525.339037 4254.755586 5656.714465 4209.757846 5752.509048 4187.258976 C 5847.999521 4164.760106 5908.213259 4164.760106 5978.15851 4142.869314 C 6048.103761 4120.978522 6128.084635 4077.196937 6184.344945 4074.460588 C 6240.909366 4072.028277 6273.145003 4110.945242 6255.810745 4160.199525 C 6238.172378 4209.757846 6170.660005 4269.653487 6076.385971 4322.860274 C 5981.807827 4376.067061 5860.468022 4422.280956 5771.059745 4454.205029 C 5681.651468 4486.129101 5624.174718 4503.459312 5574.300713 4534.775306 C 5524.122598 4566.091301 5481.547228 4611.089041 5474.248593 4618.081933 C 5466.645848 4624.770786 5494.319839 4593.454792 5569.130847 4576.732658 C 5644.245964 4559.706487 5766.802208 4557.274176 5865.029669 4544.200509 C 5963.25713 4531.126841 6036.851699 4507.411816 6099.498315 4490.993721 C 6161.840821 4474.879666 6213.235375 4466.062541 6249.42444 4497.378536 C 6285.613504 4528.390492 6306.90119 4599.839606 6240.909366 4656.694859 C 6174.613432 4713.550111 6020.73388 4756.115541 5879.322829 4796.24866 C 5737.911778 4836.077741 5609.273339 4873.77855 5537.807539 4908.134933 C 5466.645848 4942.491315 5452.960908 4973.80731 5471.815715 5000.562723 C 5490.366412 5027.622175 5541.760966 5050.121045 5570.347286 5088.125893 C 5599.237716 5126.43478 5605.319911 5179.945605 5637.859658 5216.43026 C 5670.399406 5252.610875 5729.396704 5271.461279 5785.657015 5290.007645 C 5841.917325 5308.85805 5895.744758 5327.708454 5921.898199 5363.88907 C 5948.051641 5400.069685 5946.835202 5453.88455 5892.39955 5471.518799 C 5837.963898 5488.84901 5730.613143 5470.302644 5649.111721 5423.78471 C 5567.914407 5377.570815 5512.870536 5303.993429 5468.470507 5226.463539 C 5424.070478 5148.93365 5390.314292 5067.451255 5339.223848 5009.379848 C 5287.829294 4951.30844 5219.100482 4916.039941 5194.163479 4876.818938 C 5168.922367 4837.293896 5187.777174 4793.512311 5169.530587 4747.298416 C 5151.588109 4701.084521 5096.544238 4652.438316 5068.870247 4608.656731 C 5041.500366 4564.875146 5041.500366 4525.958182 5024.470218 4481.568519 C 5007.74418 4437.178857 4973.987994 4387.316496 4968.209908 4326.508739 C 4962.735932 4266.005021 4985.240056 4194.555907 5001.966094 4127.059297 C 5018.996242 4059.562687 5030.248304 3995.714543 5085.292176 3938.85929 C 5140.336047 3882.004038 5239.171728 3831.837638 5288.437513 3806.906458 C 5338.007409 3781.975278 5338.007409 3781.975278 5187.168954 3857.072857 C 5036.3305 3932.170437 4734.957701 4082.061557 4419.291743 4257.187897 C 4103.625784 4432.314236 3773.362555 4632.371756 3391.400663 4892.932994 C 3009.438771 5153.79827 2575.474105 5475.167265 2373.545206 5697.115577 C 2171.616308 5919.063889 2201.419067 6041.591519 2257.679378 6179.321088 C 2314.243798 6316.746618 2396.65755 6469.374087 2564.222043 6678.248732 C 2731.786535 6887.123376 2984.501768 7152.245196 3110.70733 7284.806106 C 3236.912891 7417.367015 3236.912891 7417.367015 3223.227951 7343.485591 C 3209.54301 7269.604166 3181.86902 7122.145356 3280.704701 6925.736302 C 3379.540381 6729.327248 3604.581624 6484.271988 3717.102245 6361.744358 C 3829.622866 6239.216728 3829.622866 6239.216728 3725.921429 6364.176668 C 3622.219991 6489.440647 3414.513007 6739.360527 3310.81157 6928.168612 C 3207.110132 7116.976697 3207.110132 7244.672986 3226.877268 7331.020001 C 3246.948514 7417.367015 3287.091006 7462.364755 3443.403437 7641.13956 C 3599.715867 7819.914365 3872.198236 8132.466235 4107.275101 8343.773189 C 4342.351966 8555.384183 4540.023328 8665.142184 4638.859009 8735.375143 C 4737.694689 8805.304063 4737.694689 8835.403903 4814.026246 8884.050108 C 4890.053693 8933.000352 5042.716806 9000.496962 5306.684101 9047.927013 C 5570.347286 9095.357063 5945.618763 9123.024592 6165.794248 9178.055612 C 6385.665624 9233.086632 6450.745119 9315.481142 6509.742417 9354.398107 C 6568.435606 9393.011032 6621.046599 9388.146412 6703.460352 9300.583242 C 6785.874104 9213.020072 6898.394725 9043.062392 7030.986592 8957.931533 C 7163.578459 8872.800673 7316.241572 8872.800673 7366.115577 8802.871753 C 7416.293692 8732.942833 7363.682699 8592.780953 7370.069004 8352.590314 C 7376.1512 8112.399675 7441.230694 7772.484315 7593.893807 7606.1751 C 7746.252811 7439.865885 7986.499542 7447.162816 8074.083161 7327.067496 C 8161.66678 7207.276216 8096.587285 6959.484607 8102.669481 6936.985737 C 8109.055786 6914.486867 8186.603782 7116.976697 8289.08878 7245.889141 C 8391.573778 7374.801586 8519.299889 7429.832605 8570.390333 7598.57413 C 8621.784887 7767.315655 8596.847885 8050.071724 8495.579325 8325.226824 C 8394.006657 8600.381923 8216.710651 8867.936053 8078.948918 9030.292763 C 7941.491294 9192.953513 7843.872052 9250.416843 7880.061117 9133.057872 C 7916.554291 9015.394863 8086.551662 8722.909553 8194.206527 8420.086924 C 8301.557281 8117.568334 8346.56553 7805.016465 8326.494284 7677.320175 C 8306.727148 7549.927925 8221.576408 7607.391255 8161.66678 7829.947645 C 8101.453042 8052.504035 8066.480416 8440.153484 7917.77073 8714.092428 C 7768.756935 8988.031372 7506.310189 9147.955773 7391.356689 9265.618782 C 7276.09908 9382.977752 7308.638827 9458.075332 7333.57583 9409.429127 C 7358.816942 9360.478882 7376.1512 9188.088892 7376.1512 9095.357063 C 7376.1512 9002.929273 7358.816942 8990.463683 7204.93739 9057.960293 C 7051.057838 9125.456903 6760.937101 9272.915713 6615.876733 9416.726057 C 6470.816365 9560.536402 6470.816365 9700.698281 6555.967105 9920.822361 C 6640.813735 10140.94644 6811.115216 10441.03272 6996.013967 10697.337415 C 7181.216827 10953.946148 7381.321066 11166.165219 7626.433555 11223.932588 C 7871.546043 11281.395918 8161.66678 11183.799469 8316.762771 11105.053424 C 8471.554652 11026.307379 8491.625898 10966.411738 8387.924461 10936.311899 C 8284.223024 10906.212059 8056.444793 10906.212059 7896.483045 10962.459234 C 7736.521298 11018.706409 7643.767813 11131.200759 7601.192442 11262.545514 C 7558.921182 11393.890268 7566.219817 11544.085427 7726.485675 11627.696093 C 7886.447422 11711.610797 8199.072283 11728.941008 8445.401211 11635.297063 C 8691.730138 11541.349078 8871.763132 11336.426938 8866.897375 11182.583314 C 8861.727509 11028.739689 8671.658892 10926.278619 8489.19302 10919.893804 C 8306.727148 10913.813029 8131.559911 11003.808509 8097.803724 11086.203019 C 8064.047538 11168.901568 8171.702402 11243.999148 8271.754522 11227.277015 C 8371.806642 11210.554882 8464.256017 11102.621113 8581.642395 10979.789445 C 8699.332883 10857.261815 8841.960373 10720.444362 8949.311127 10531.940316 C 9056.965992 10343.43627 9129.344121 10103.54967 9088.2893 9784.612986 C 9046.930369 9465.676302 8891.834378 9067.993572 8789.34938 8854.254307 C 8686.864381 8640.211004 8636.686267 8610.415203 8520.516328 8687.945093 C 8404.04228 8765.474983 8221.576408 8950.330563 8076.516039 9095.357063 C 7931.455671 9240.383563 7823.800806 9345.580982 7802.513121 9534.389067 C 7781.529546 9723.197151 7846.304931 9995.91994 7968.861175 10222.124796 C 8091.417419 10448.63369 8271.754522 10628.624649 8422.897086 10703.722229 C 8574.34376 10778.819809 8696.900004 10748.719969 8814.286382 10610.9904 C 8931.97687 10473.56487 9044.497491 10228.50961 9073.083811 10020.851121 C 9101.97424 9813.192631 9046.930369 9643.234951 8885.752182 9520.707321 C 8724.269885 9398.179692 8456.653273 9323.082112 8203.93804 9330.683082 C 7951.526917 9337.980012 7714.017173 9427.975492 7603.92943 9676.983256 C 7493.841688 9925.686981 7511.175945 10333.40299 7457.652623 10564.776505 C 7403.825191 10796.150019 7278.531959 10851.181039 7146.244201 10787.332895 C 7013.652334 10723.788789 6873.457722 10541.06148 6823.583717 10372.319955 C 6773.405603 10203.274391 6813.548094 10048.51865 6893.528968 9912.005236 C 6973.509842 9775.795861 7093.633208 9658.132852 7226.225075 9619.519926 C 7358.816942 9580.602962 7503.877311 9620.736081 7476.20332 9585.771621 C 7448.833439 9550.807161 7248.729199 9440.745121 7082.381146 9440.745121 C 6916.033093 9440.745121 6783.441226 9550.807161 6705.89323 9464.460146 C 6628.345234 9378.113132 6605.84111 9095.357063 6597.021926 8845.437183 C 6588.506852 8595.213264 6593.372609 8377.521494 6622.263038 8236.447499 C 6650.849358 8095.069464 6703.460352 8030.005165 6852.170037 7846.0617 C 7001.183833 7662.422275 7246.296321 7359.599646 7377.367639 7194.506587 C 7508.743067 7029.717566 7526.381435 7002.050037 7522.428008 6875.873941 C 7518.77869 6749.393807 7493.841688 6524.405107 7466.167697 6444.442907 C 7438.797816 6364.176668 7408.690947 6429.240968 7456.132074 6600.718842 C 7503.877311 6771.892677 7628.866433 7049.480087 7691.513049 7209.708526 C 7753.855555 7369.632926 7753.855555 7412.198356 7688.776061 7504.930185 C 7623.696567 7597.357975 7493.841688 7739.952165 7337.529257 7882.546354 C 7181.216827 8025.140544 6998.446845 8167.430695 6885.926224 8285.093704 C 6773.405603 8402.756713 6730.830232 8495.184504 6708.326108 8642.643314 C 6685.821984 8790.406163 6683.389106 8992.895993 6677.30691 9137.922493 C 6670.920604 9282.948993 6660.884981 9370.512162 6580.904107 9349.229447 C 6500.923234 9327.946733 6350.692999 9198.122172 6218.101132 8982.862713 C 6085.813374 8767.907293 5970.555765 8467.821013 5901.826953 8283.877549 C 5833.098142 8099.934085 5810.594017 8032.437475 5919.465321 7981.358959 C 6028.032515 7929.976405 6268.279247 7895.011945 6404.520431 7828.73149 C 6540.761616 7762.451035 6573.301363 7664.854585 6650.849358 7597.357975 C 6728.397354 7529.861365 6850.953598 7492.160556 6972.293403 7434.697226 C 7093.633208 7377.233896 7213.756574 7299.704006 7273.666202 7260.787042 C 7333.57583 7222.174116 7333.57583 7222.174116 7192.468889 7348.350211 C 7051.057838 7474.830345 6768.539846 7727.486575 6637.164418 8063.75347 C 6505.78899 8400.020364 6525.860236 8820.506002 6554.750666 9051.575478 C 6583.336986 9282.948993 6621.046599 9325.514422 6599.758914 9340.716361 C 6578.471229 9355.614262 6498.490355 9343.148672 6410.906737 9301.799397 C 6323.323118 9260.450123 6228.136755 9190.521202 6019.517441 9130.625562 C 5810.594017 9070.425883 5487.933534 9020.563522 5279.01011 8988.031372 C 5070.390796 8955.499222 4975.204433 8940.297283 4949.050991 8924.183228 C 4922.59344 8907.765133 4965.16881 8890.434923 4990.105812 8755.441703 C 5015.346925 8620.144444 5022.64556 8367.792253 5023.861999 8032.437475 C 5025.382548 7697.386735 5020.212681 7279.637446 5005.311302 6995.969261 C 4990.105812 6711.997037 4965.16881 6561.801878 4860.250933 6489.440647 C 4755.028947 6416.775378 4570.130197 6421.944037 4477.376712 6438.058093 C 4384.927337 6454.476187 4384.927337 6481.839678 4477.376712 6570.619002 C 4570.130197 6659.398327 4755.028947 6809.593487 4820.108442 6829.660046 C 4885.187936 6849.422567 4830.144065 6739.360527 4654.976827 6626.866177 C 4480.1137 6514.371827 4184.823097 6399.445167 3995.970919 6317.962773 C 3807.118742 6236.784418 3724.704989 6189.354368 3645.940555 6139.187968 C 3567.17612 6089.325608 3492.061002 6036.726898 3359.469135 6023.045153 C 3226.877268 6009.059369 3036.808652 6034.294588 3029.510017 6058.009613 C 3021.907272 6081.724638 3197.074509 6104.223508 3467.124 5946.731418 C 3737.173491 5788.935289 4102.409345 5451.452239 4374.891714 5231.32816 C 4647.678192 5011.20408 4827.711186 4908.74301 4933.845502 4862.529115 C 5040.283927 4816.011181 5072.823675 4826.044461 5105.363422 4826.044461 C 5137.903169 4826.044461 5170.138806 4816.011181 5162.840171 4811.146561 C 5155.237427 4806.28194 5107.7963 4806.28194 5081.642858 4916.039941 C 5055.185307 5026.101981 5050.31955 5246.22606 5055.185307 5462.701674 C 5060.355173 5679.177288 5075.256553 5891.700398 5001.357875 6056.793458 C 4927.763306 6221.886517 4765.06457 6339.245488 4682.650818 6380.594763 C 4599.932956 6421.944037 4597.500078 6386.675538 4722.4892 6326.779898 C 4847.782432 6266.884257 5100.193555 6181.753398 5258.938864 6021.524959 C 5417.988283 5861.600559 5483.067777 5626.578579 5573.084274 5531.41444 C 5663.100771 5436.554339 5778.05427 5481.552079 5855.602266 5480.335924 C 5933.150261 5478.81573 5972.988644 5431.38568 6111.966816 5445.067425 C 6250.640879 5459.053209 6488.454732 5533.84675 6679.739788 5581.580839 C 6871.024844 5629.010889 7016.085212 5649.077449 7411.123826 5624.146269 C 7806.466548 5598.91105 8451.787516 5528.982129 8905.519318 5520.165005 C 9359.55523 5511.34788 9622.306086 5563.946589 9753.377404 5590.093925 C 9884.752832 5616.545299 9884.752832 5616.545299 9836.095266 5698.939809 C 9787.13359 5781.638359 9689.818458 5946.731418 9691.034898 6039.159208 C 9692.251337 6131.586999 9792.303457 6151.653558 9992.407696 6230.399603 C 10192.511936 6309.145648 10492.364186 6446.875217 10627.693041 6503.122392 C 10762.717786 6559.369567 10732.610918 6534.438387 10723.791734 6679.464887 C 10714.97255 6824.491387 10727.745161 7139.779606 10617.657418 7521.044241 C 10507.569675 7902.308875 10274.925688 8350.158004 10090.026938 8621.664638 C 9904.824078 8892.867233 9767.366454 8988.031372 9613.486902 9035.461423 C 9459.60735 9082.891473 9289.609979 9082.891473 9169.486613 9092.924753 C 9049.363247 9102.958033 8979.417996 9123.024592 8944.445371 9133.057872 C 8909.472745 9143.091152 8909.472745 9143.091152 8935.626187 9041.542198 C 8961.779629 8940.297283 9014.390622 8737.807453 9032.028989 8598.861729 C 9049.363247 8460.220044 9032.028989 8385.122464 8985.804302 8438.329251 C 8939.275505 8491.536038 8864.464497 8672.743153 8798.168563 8683.992588 C 8731.87263 8695.242023 8674.39588 8536.533778 8645.50545 8495.792581 C 8616.615021 8455.051384 8616.615021 8532.581274 8684.431503 8641.427159 C 8751.943876 8750.273043 8886.968621 8890.434923 9016.215281 8968.268851 C 9145.76605 9045.798741 9269.538733 9061.304719 9393.919636 9050.359323 C 9518.300539 9039.413927 9642.985551 9002.321195 9733.610268 8912.021676 C 9824.539094 8821.722158 9880.799405 8678.51989 9875.325428 8417.958653 C 9869.851452 8157.701454 9802.33908 7779.781246 9722.358206 7504.930185 C 9642.073222 7229.775086 9549.623847 7057.081056 9503.399159 7003.266192 C 9457.174472 6949.451327 9457.174472 7014.515627 9519.516978 7210.924681 C 9582.163594 7407.333735 9707.152716 7734.783506 9732.089719 7761.23488 C 9757.330831 7787.382215 9682.215714 7512.227116 9618.352659 7222.174116 C 9554.793713 6932.121116 9502.18272 6626.866177 9472.075851 6449.307528 C 9441.968982 6271.748878 9434.670347 6221.886517 9400.914161 6089.021569 C 9366.853865 5956.460659 9306.944237 5740.897162 9276.837368 5633.267432 C 9246.730499 5525.637703 9246.730499 5525.637703 9270.451062 5638.132053 C 9294.171626 5750.930441 9341.916862 5976.22318 9376.889488 6099.054849 C 9412.166223 6221.886517 9434.670347 6241.649038 9489.105999 6196.043221 C 9543.845761 6150.437403 9630.51705 6039.159208 9678.870506 5972.574715 C 9726.919852 5905.990221 9736.651366 5884.099429 9704.415728 5931.22544 C 9672.180091 5978.047413 9598.585522 6093.582151 9752.769184 6220.062285 C 9907.256956 6346.846458 10290.131178 6484.271988 10490.843637 6552.984753 C 10691.251987 6621.393479 10710.410903 6621.089441 10752.682163 6472.414475 C 10795.257534 6323.435471 10861.553467 6026.38958 10894.701434 5877.714614 C 10927.849401 5729.039649 10927.849401 5729.039649 10763.934226 5717.790214 C 10600.01905 5706.540779 10272.49281 5684.041909 10092.763926 5664.887466 C 9913.035042 5645.733022 9881.407624 5629.923005 9865.593915 5622.017997 C 9849.780206 5614.112989 9849.780206 5614.112989 10091.851597 5639.652247 C 10334.227097 5664.887466 10818.369877 5715.661942 11264.498935 5733.600231 C 11710.627992 5751.538519 12118.135106 5736.640619 12444.444908 5710.189244 C 12771.058819 5684.041909 13016.171307 5646.645139 13216.275547 5569.115249 C 13416.379786 5491.585359 13571.171668 5373.92235 13765.193712 5189.978885 C 13958.911646 5006.33946 14191.555633 4756.115541 14329.317367 4614.737506 C 14466.77499 4473.359472 14509.046251 4441.131361 14521.818862 4419.848646 C 14534.287363 4398.565931 14516.648995 4388.532651 14481.67637 4392.181117 C 14446.703744 4395.829582 14394.092751 4413.463832 14330.533806 4487.345256 C 14266.670751 4560.922642 14191.555633 4691.051241 14135.295323 4768.581131 C 14079.035012 4846.111021 14041.629508 4871.042201 14076.602134 4819.963685 C 14111.574759 4768.581131 14219.229624 4641.188881 14295.25707 4548.457052 C 14371.588627 4456.029261 14416.596875 4398.565931 14426.632498 4359.648967 C 14436.668121 4321.036041 14411.731119 4300.969482 14375.542054 4290.936202 C 14339.04888 4280.902922 14291.607753 4280.902922 14247.815944 4332.285476 C 14204.024134 4383.363992 14164.185752 4486.129101 14071.736377 4604.704227 C 13978.982892 4723.583391 13833.922524 4858.576611 13847.607464 4844.894866 C 13861.596514 4831.21312 14034.026764 4668.552371 14131.646005 4537.207617 C 14228.961137 4405.862862 14251.465261 4305.834102 14237.780321 4255.971742 C 14224.09538 4205.805342 14174.221375 4205.805342 14119.177504 4249.586927 C 14064.133632 4293.368512 14003.919895 4380.931682 13929.108887 4469.711007 C 13853.99377 4558.490331 13763.977273 4648.485811 13630.168967 4743.649951 C 13496.36066 4838.510051 13318.760545 4938.84285 13172.483737 5013.636391 C 13026.20693 5088.73397 12910.949321 5138.90037 12789.913626 5162.615395 C 12668.573821 5186.33042 12540.84771 5183.89811 12223.357093 5088.73397 C 11905.562365 4993.87387 11398.003131 4806.28194 11026.380972 4693.483551 C 10655.062922 4580.989201 10419.986057 4543.592431 10192.511936 4523.525871 C 9964.733706 4503.459312 9744.86233 4501.027001 9607.100596 4497.378536 C 9469.642973 4493.426032 9414.599101 4488.561411 9324.582604 4402.214397 C 9234.566108 4315.867382 9109.576985 4148.342012 8913.122063 4109.729087 C 8716.667141 4070.812122 8449.050528 4160.807602 8215.190102 4314.651227 C 7981.329676 4468.494851 7781.529546 4686.186621 7633.73219 4784.999225 C 7486.238943 4883.81183 7391.356689 4863.74527 7458.869062 4748.514571 C 7526.381435 4633.587911 7756.288434 4423.497111 7881.581666 4274.822146 C 8006.570788 4125.843142 8026.642034 4038.279972 8012.652984 3945.852182 C 7998.968044 3853.120353 7951.526917 3755.827942 7831.403551 3686.811138 C 7711.280185 3618.098373 7518.77869 3578.269293 7303.773071 3531.751359 C 7088.463342 3485.537464 6850.953598 3432.938754 6725.964476 3376.691579 C 6600.975353 3320.444404 6588.506852 3260.548764 6594.589048 3216.767179 C 6600.975353 3172.985594 6625.912356 3145.318064 6814.764534 3176.634059 C 7003.616711 3207.950054 7356.079954 3297.945534 7523.644447 3320.444404 C 7691.513049 3342.943274 7673.874681 3297.945534 7531.247191 3259.332608 C 7388.619701 3220.415644 7121.003089 3187.883494 6947.356401 3152.919034 C 6773.405603 3117.954574 6693.424729 3080.557804 6649.632919 3034.03987 C 6605.84111 2987.825974 6598.542475 2932.794955 6628.345234 2899.04665 C 6658.452103 2865.298345 6725.964476 2852.832754 6826.016596 2864.082189 C 6926.068716 2875.331624 7058.660583 2910.296085 7217.405891 2950.429204 C 7376.1512 2990.258285 7561.35406 3035.256025 7658.973302 3058.058934 C 7756.288434 3080.557804 7766.324057 3080.557804 7705.197989 3052.890274 C 7643.767813 3025.526784 7511.175945 2970.495764 7380.104627 2912.728395 C 7248.729199 2855.265065 7118.570211 2795.369424 7020.950969 2757.668615 C 6923.635837 2720.271845 6858.556343 2705.373944 6838.485097 2664.02467 C 6818.413851 2622.675395 6843.350854 2555.178785 6887.142663 2523.86279 C 6930.934472 2492.546796 6993.581088 2497.715455 7142.290774 2549.098009 C 7291.30457 2600.176525 7526.381435 2697.772975 7696.378806 2759.188809 C 7866.376176 2820.300605 7971.598163 2845.231785 7987.715981 2840.367164 C 8004.13791 2835.198505 7931.455671 2800.234045 7865.159737 2736.3859 C 7798.863804 2672.841794 7738.954176 2580.109965 7662.622619 2513.829511 C 7586.291063 2447.549056 7493.841688 2407.719975 7451.266317 2371.235321 C 7408.690947 2335.054706 7416.293692 2302.522556 7453.699196 2286.4085 C 7491.408809 2269.990406 7558.921182 2269.990406 7717.666491 2352.688955 C 7876.411799 2435.083466 8126.694154 2600.176525 8362.987458 2777.735175 C 8599.280763 2955.293825 8821.889127 3145.318064 9040.544064 3295.513224 C 9259.50311 3445.708383 9474.508729 3555.770423 9674.612969 3728.160413 C 9874.717209 3900.854442 10059.920069 4135.876422 10204.980437 4286.071581 C 10350.040806 4435.962702 10454.958682 4501.027001 10507.569675 4533.559151 C 10560.180668 4566.091301 10560.180668 4566.091301 10407.517555 4549.673207 C 10254.854442 4533.559151 9949.832326 4501.027001 9684.648592 4492.209877 C 9419.464858 4483.392752 9194.423616 4498.594691 8948.094688 4508.627971 C 8701.765761 4518.661251 8434.149149 4523.525871 8256.549033 4528.390492 C 8078.948918 4533.559151 7991.365299 4538.423772 7876.411799 4611.089041 C 7761.4583 4683.450272 7618.83081 4823.612151 7456.132074 4923.640911 C 7293.737448 5023.669671 7111.271576 5083.86935 7032.203031 5127.650935 C 6953.438596 5171.43252 6978.679709 5198.79601 7054.707155 5157.446735 C 7131.038712 5116.4015 7258.764822 5006.33946 7335.096379 4912.391476 C 7411.123826 4818.74753 7436.364938 4741.21764 7448.833439 4702.300676 C 7461.30194 4663.687751 7461.30194 4663.687751 7235.044259 4728.75205 C 7008.482468 4793.512311 6555.967105 4923.640911 6232.698402 4986.880978 C 5909.429698 5050.425084 5715.711764 5046.776618 5618.700742 5045.256424 C 5521.68972 5043.432192 5521.68972 5043.432192 5727.572046 4936.41054 C 5933.150261 4829.388888 6344.610803 4615.041545 6641.421955 4449.340408 C 6938.537217 4283.335232 7121.003089 4165.976262 7218.622331 4044.664787 C 7316.241572 3923.353312 7328.710073 3798.089333 7328.710073 3712.046357 C 7328.710073 3625.699343 7316.241572 3578.269293 7103.668831 3539.352328 C 6891.09609 3500.739403 6478.419109 3470.639563 6132.038062 3365.442144 C 5785.657015 3260.548764 5505.571901 3080.557804 5649.111721 2910.296085 C 5792.95565 2740.338404 6360.728622 2580.109965 6656.019225 2460.318685 C 6951.005718 2340.223365 6973.509842 2259.957126 6933.67146 2118.88313 C 6893.528968 1977.505096 6791.04397 1775.015266 6670.920604 1619.651447 C 6550.797239 1464.591668 6413.339615 1357.265977 6179.479189 1285.816863 C 5945.618763 1214.671787 5615.355534 1179.707327 5351.692349 1183.355793 C 5087.725054 1187.004258 4890.053693 1229.569688 4752.596069 1320.781323 C 4615.138445 1412.296997 4537.59045 1552.154837 4526.338388 1701.133842 C 4515.086325 1849.808807 4570.130197 2007.604936 4606.319261 2106.41754 C 4642.508326 2204.926106 4660.146694 2245.059226 4670.182317 2253.87635 C 4680.21794 2262.693475 4682.650818 2240.194605 4640.075448 2182.427236 C 4597.500078 2124.963906 4509.916459 2032.536116 4453.960258 1964.431428 C 4398.004057 1896.630779 4373.371165 1853.153233 4370.634177 1746.739659 C 4368.201298 1640.630124 4387.968435 1471.280521 4400.132826 1340.543844 C 4412.601327 1209.503128 4417.467084 1117.075338 4625.174068 1043.193913 C 4832.576943 969.616528 5242.821045 914.585508 5729.396704 880.837203 C 6215.668253 847.088898 6778.575469 834.319269 7473.770442 864.419109 C 8168.965414 894.518948 8997.056364 966.880179 9658.49515 949.549968 C 10319.933937 931.915719 10815.32878 824.590028 11270.277021 760.741883 C 11725.529372 696.893739 12140.639231 676.827179 12679.825883 713.311833 C 13218.708425 749.492448 13881.363651 841.920239 14336.616001 1009.445608 C 14791.868352 1176.970978 15039.413719 1419.593928 15331.967334 1540.905402 C 15624.825059 1662.216877 15962.386922 1662.216877 16299.948785 1662.216877 " stroke="#000000" stroke-width="48.306999" stroke-opacity="1" stroke-miterlimit="22.926001"/></g></svg>