<svg xmlns="http://www.w3.org/2000/svg" xmlns:xlink="http://www.w3.org/1999/xlink" width="500" zoomAndPan="magnify" viewBox="0 0 375 374.999991" height="500" preserveAspectRatio="xMidYMid meet" version="1.0"><defs><clipPath id="cfd1d1e021"><path d="M 82.605469 111.84375 L 292.605469 111.84375 L 292.605469 263.34375 L 82.605469 263.34375 Z M 82.605469 111.84375 " clip-rule="nonzero"/></clipPath></defs><g clip-path="url(#cfd1d1e021)"><path stroke-linecap="butt" transform="matrix(0.0128873, 0, 0, -0.0128903, 82.537945, 263.350706)" fill="none" stroke-linejoin="miter" d="M 14.33282 22.964486 C 439.595356 202.969453 864.857892 382.974419 1322.553138 518.129664 C 1780.248383 653.284908 2270.376338 743.287392 2630.470346 938.141253 C 2990.564354 1133.298153 3220.624414 1433.60947 3163.336731 1683.616368 C 3105.745939 1933.623267 2760.504293 2133.931824 2508.014135 2218.78265 C 2255.220867 2303.936515 2095.179085 2273.935687 2040.316278 2156.356685 C 1985.150361 2038.777683 2035.163417 1833.620507 1937.56218 1638.463607 C 1840.264051 1443.609746 1595.048519 1258.453122 1302.547915 1078.448155 C 1009.744202 898.140149 669.655416 723.28684 497.186148 610.556457 C 324.413771 498.129112 319.56402 448.127732 572.054179 468.128284 C 824.847447 488.128836 1334.980624 578.131319 1717.50473 685.710045 C 2100.331946 793.288771 2355.24698 918.140701 2515.288761 1075.720807 C 2675.633652 1233.300912 2740.499071 1423.609194 2702.913501 1613.614437 C 2665.631041 1803.619679 2525.291372 1993.624922 2397.98541 2091.203372 C 2270.376338 2188.781822 2155.194753 2193.933479 2090.329334 2091.203372 C 2025.160806 1988.776304 2010.308444 1778.770509 1960.295387 1646.039574 C 1910.282331 1513.611677 1825.10858 1458.45864 1715.079855 1468.458916 C 1605.05113 1478.459192 1469.864323 1553.612781 1384.993681 1756.042609 C 1299.81993 1958.775476 1264.962345 2288.784582 1329.827764 2543.943137 C 1394.996292 2799.101693 1560.190934 2979.10666 1765.092912 3091.837043 C 1970.297998 3204.264387 2215.210421 3249.11411 2407.988021 3271.84201 C 2600.462512 3294.266871 2740.499071 3294.266871 2892.963116 3261.841734 C 3045.730271 3229.113558 3210.621803 3164.263284 3428.254377 3131.838147 C 3645.886951 3099.109971 3915.957457 3099.109971 3995.978347 3046.684282 C 4075.999238 2994.258593 3965.970513 2889.104176 4015.98357 2701.523243 C 4065.996626 2513.942309 4276.051464 2243.934859 4343.644868 2053.626578 C 4411.238272 1863.621335 4336.067132 1753.6183 4213.610921 1601.189851 C 4091.154709 1448.458364 3921.110317 1253.301464 3711.055479 1100.873016 C 3500.697532 948.141529 3250.632248 838.138494 3073.01012 800.864738 C 2895.691101 763.287944 2790.512127 798.13739 2860.530407 855.714736 C 2930.548686 913.292083 3175.764218 993.29429 3385.819056 1120.873568 C 3595.873894 1248.452846 3771.071147 1423.609194 3888.374498 1611.190127 C 4005.980958 1798.771061 4065.996626 1998.776579 3993.553472 2048.777959 C 3921.110317 2098.779339 3715.90523 1998.776579 3511.003252 1976.351718 C 3305.798165 1953.623818 3100.593079 2008.776855 3015.722437 2041.201992 C 2930.548686 2073.62713 2965.70938 2083.627406 3088.165592 2106.355305 C 3210.621803 2128.780167 3420.97975 2163.932652 3568.290936 2273.935687 C 3715.90523 2383.938722 3801.078981 2569.095346 3868.369275 2671.522415 C 3935.962679 2773.949484 3985.975736 2793.950036 3945.96529 2811.526278 C 3905.954845 2829.102521 3775.920898 2843.951415 3591.024143 2843.951415 C 3405.824279 2843.951415 3165.761607 2829.102521 2993.292339 2733.94838 C 2820.519961 2639.097278 2715.644097 2463.94093 2602.887388 2431.515793 C 2490.433788 2398.787617 2370.402452 2508.790652 2327.967131 2619.096726 C 2285.228701 2729.099761 2320.389395 2839.102797 2468.003689 2896.680143 C 2615.617984 2954.257489 2875.685878 2959.106108 2958.131644 2979.10666 C 3040.577411 2999.107212 2945.704158 3034.259697 2760.504293 3059.108867 C 2575.607539 3084.261076 2300.384172 3099.109971 2095.179085 3059.108867 C 1890.277108 3019.107763 1755.0903 2924.256661 1737.509953 2753.948932 C 1720.232715 2583.944241 1820.258829 2338.785961 1887.549123 2193.933479 C 1955.142527 2048.777959 1990.303221 2003.625198 1910.282331 1981.200337 C 1830.26144 1958.775476 1635.058964 1958.775476 1525.03024 2063.626854 C 1415.001515 2168.78127 1389.843432 2378.787065 1455.01196 2586.36855 C 1519.877379 2793.950036 1675.06941 2999.107212 1880.274497 3114.261904 C 2085.176474 3229.113558 2340.394618 3254.265767 2495.283538 3284.266595 C 2650.475569 3314.267423 2705.641486 3349.419908 2810.51735 3399.421288 C 2915.696324 3449.422667 3070.585245 3514.272941 3200.619192 3507.000014 C 3330.653139 3499.424047 3435.832113 3419.421839 3418.251766 3366.693112 C 3400.671418 3314.267423 3260.63486 3289.115214 3223.352399 3281.842286 C 3185.76683 3274.266319 3250.632248 3284.266595 3345.808611 3311.843113 C 3440.681864 3339.419632 3565.86606 3384.269354 3745.913064 3399.421288 C 3925.960068 3414.270182 4161.172989 3399.421288 4403.660536 3439.422391 C 4646.451193 3479.423495 4896.516476 3574.274597 5046.555646 3639.42791 C 5196.594816 3704.581223 5246.607873 3739.430669 5290.255631 3759.431221 C 5334.206499 3779.431773 5371.488959 3784.58343 5429.685971 3773.977077 C 5487.882982 3763.067685 5566.691435 3737.00636 5616.098273 3738.824592 C 5665.505111 3740.642824 5685.510333 3770.643652 5669.748643 3807.614369 C 5654.290062 3844.585086 5603.064567 3888.222654 5530.924522 3921.556907 C 5459.087586 3954.588121 5366.639209 3977.012982 5304.198665 4018.832318 C 5241.455012 4060.954693 5209.022303 4122.168503 5195.988597 4132.168779 C 5182.651782 4142.169055 5189.01708 4100.955796 5257.216703 4059.439499 C 5325.416325 4018.226241 5455.450273 3977.012982 5577.300265 3948.830387 C 5699.150258 3920.647791 5813.119405 3905.798896 5890.109201 3893.374311 C 5966.795888 3880.646687 6006.806334 3870.646411 6029.539541 3889.434808 C 6051.969639 3908.223206 6056.81939 3955.800276 6046.816779 3999.437844 C 6036.814167 4043.37845 6011.959194 4083.379554 5931.938303 4112.168227 C 5851.917413 4140.9569 5716.730605 4158.230104 5619.735586 4189.140048 C 5523.043677 4219.746953 5464.240446 4263.384521 5417.258484 4299.143083 C 5370.276522 4334.598607 5335.418937 4362.175125 5333.60028 4360.962971 C 5331.478514 4359.750816 5363.001895 4329.749988 5444.235224 4292.173194 C 5525.468552 4254.596399 5656.714937 4209.746677 5752.497518 4187.018777 C 5847.97699 4164.593916 5907.992658 4164.593916 5978.010937 4142.775132 C 6048.029217 4120.956348 6128.050107 4077.015742 6184.428462 4074.591432 C 6240.806817 4072.167123 6273.239526 4110.956072 6255.659179 4160.351375 C 6238.381941 4209.746677 6170.788537 4269.748332 6076.218394 4322.780099 C 5981.95136 4375.811865 5860.707586 4422.176781 5771.290303 4453.995841 C 5681.87302 4486.117939 5624.282228 4503.391143 5574.269171 4534.907164 C 5524.256114 4566.120147 5481.820793 4610.969869 5474.243058 4617.939758 C 5466.665322 4624.909647 5494.24828 4593.696665 5569.116311 4576.7265 C 5644.28745 4559.756335 5766.743662 4557.332025 5864.951118 4544.301363 C 5963.158575 4530.967661 6036.814167 4507.330646 6099.55782 4490.966558 C 6161.998364 4474.905508 6213.223858 4466.117387 6249.59699 4497.33037 C 6285.667013 4528.543352 6307.187783 4599.757438 6240.806817 4656.728707 C 6174.425851 4713.699976 6020.749367 4756.125389 5879.500371 4796.126493 C 5737.948265 4836.127597 5609.126756 4873.704391 5537.896039 4907.94776 C 5466.665322 4942.494168 5453.025397 4973.707151 5471.515073 5000.677592 C 5490.307858 5027.344994 5541.836461 5050.072894 5570.328748 5088.255766 C 5599.124145 5126.135599 5605.489443 5180.076481 5637.922152 5216.441121 C 5670.657971 5252.502722 5729.158092 5271.291119 5785.536447 5290.079516 C 5841.914801 5308.867914 5895.565171 5327.656311 5921.935692 5364.020951 C 5948.003103 5400.082552 5946.790666 5454.023434 5892.534077 5471.296638 C 5837.974379 5488.87288 5730.673639 5470.084483 5649.137201 5424.022606 C 5567.903873 5377.657691 5513.041065 5303.716256 5468.483978 5226.441397 C 5424.230001 5148.863499 5390.281744 5067.649137 5339.05625 5009.465713 C 5287.830756 4951.282289 5219.024914 4916.129804 5194.16994 4876.734778 C 5169.011857 4837.339751 5187.804642 4793.702184 5169.618076 4747.337268 C 5151.43151 4700.972352 5096.568703 4652.183127 5068.985744 4608.54556 C 5041.402786 4564.907992 5041.402786 4526.119043 5024.731767 4481.572359 C 5007.757638 4437.328714 4973.809382 4387.327334 4968.353412 4326.719601 C 4962.594333 4265.80883 4985.32754 4194.594744 5001.998559 4127.017121 C 5018.972688 4059.439499 5030.187737 3995.80138 5085.353654 3938.830111 C 5140.216461 3882.16188 5239.030137 3831.857462 5288.436974 3807.008292 C 5337.843812 3781.856082 5337.843812 3781.856082 5187.198423 3857.009671 C 5036.553035 3932.16326 4734.959148 4082.167399 4419.422227 4257.323747 C 4103.582196 4432.177057 3773.496022 4632.485614 3391.578135 4893.098866 C 3009.357139 5153.712117 2575.304429 5475.236141 2373.433546 5697.060443 C 2171.562663 5919.187784 2201.570497 6041.615405 2257.948852 6179.194959 C 2314.024097 6316.774512 2396.469863 6469.505999 2564.08938 6678.299639 C 2731.708897 6887.093279 2984.502165 7152.252111 3110.59569 7284.680007 C 3236.992324 7417.107904 3236.992324 7417.107904 3223.352399 7343.469508 C 3209.409365 7269.831113 3181.826407 7122.251283 3280.640082 6925.882228 C 3379.453758 6729.513174 3604.664068 6484.354894 3717.117668 6361.927273 C 3829.874377 6239.196614 3829.874377 6239.196614 3725.907841 6364.351583 C 3622.244415 6489.203513 3414.614452 6739.51345 3310.647916 6928.306538 C 3206.98449 7117.099626 3206.98449 7244.678904 3226.989713 7331.044923 C 3246.994935 7417.107904 3287.005381 7462.260665 3443.409849 7641.053477 C 3599.511207 7819.846289 3872.309698 8132.582191 4107.219509 8343.80014 C 4342.43243 8555.321128 4540.059781 8665.324164 4638.873457 8735.326095 C 4737.687133 8805.328027 4737.687133 8835.328854 4813.767601 8884.118079 C 4890.151178 8932.907304 5042.615223 9000.484927 5306.623541 9048.061997 C 5570.328748 9095.336029 5945.578228 9122.912547 6165.635677 9178.065584 C 6385.693126 9232.915582 6450.861655 9315.645138 6509.664885 9354.434087 C 6568.468115 9393.223036 6620.906047 9388.071379 6703.351813 9300.493205 C 6786.100689 9212.915031 6898.554289 9042.91034 7031.013112 8958.059514 C 7163.775044 8872.905649 7316.239089 8872.905649 7366.252146 8802.903717 C 7416.265202 8732.901786 7363.82727 8592.897923 7369.889459 8352.588262 C 7376.254757 8112.581639 7441.120176 7772.269219 7593.887331 7606.20403 C 7746.351376 7439.835804 7986.414048 7447.41177 8074.012675 7327.10542 C 8161.611301 7207.102109 8096.442773 6959.51952 8102.808071 6937.094659 C 8109.173369 6914.669798 8186.466275 7117.099626 8289.220373 7245.891058 C 8391.671362 7374.682491 8519.280433 7429.835528 8570.505928 7598.628064 C 8621.731422 7767.4206 8596.876449 8050.155674 8495.334788 8325.011743 C 8394.096237 8600.170851 8216.474109 8867.753991 8079.165535 9030.485754 C 7941.553852 9192.914479 7843.952614 9250.491825 7880.325746 9132.912823 C 7916.395769 9015.333821 8086.440161 8722.90151 8194.044011 8420.165884 C 8301.64786 8117.430258 8346.508056 7804.997395 8326.502833 7677.418117 C 8306.497611 7549.838839 8221.626969 7607.416185 8161.611301 7829.846565 C 8101.595633 8052.579984 8066.434939 8440.166436 7917.608207 8714.113389 C 7768.781474 8988.060341 7506.288704 9148.064756 7391.107119 9265.643758 C 7276.228644 9383.22276 7308.661353 9458.07331 7333.819436 9409.284085 C 7358.67441 9360.49486 7376.254757 9188.06586 7376.254757 9095.336029 C 7376.254757 9002.909236 7358.67441 8990.484651 7204.997927 9058.062273 C 7051.018334 9125.336856 6760.942606 9272.916686 6615.753187 9416.860052 C 6470.866877 9560.803418 6470.866877 9700.807281 6555.737519 9920.813351 C 6640.91127 10140.819422 6810.955662 10441.130738 6996.155527 10697.501449 C 7181.052282 10953.872159 7381.104508 11166.302263 7626.32004 11223.879609 C 7871.535573 11281.456956 8161.611301 11183.878506 8316.500222 11105.088453 C 8471.692252 11026.2984 8491.697475 10966.296744 8388.034048 10936.295917 C 8284.067513 10906.295089 8056.432327 10906.295089 7896.390546 10962.357242 C 7736.348765 11018.722433 7643.900388 11131.149778 7601.465067 11262.668558 C 7558.726637 11393.8843 7566.304372 11543.888439 7726.346154 11627.830149 C 7886.387935 11711.468821 8199.196871 11729.045063 8445.321732 11635.406116 C 8691.749701 11541.46413 8871.796705 11336.306954 8866.946954 11182.666351 C 8861.794094 11028.722709 8671.744479 10926.295641 8489.272599 10919.931829 C 8306.497611 10913.568017 8131.603467 11003.873539 8097.65521 11086.300056 C 8064.010063 11168.726572 8171.613912 11243.880161 8271.640026 11227.213035 C 8371.666139 11210.545908 8464.114516 11102.361105 8581.720977 10979.933484 C 8699.327437 10857.505864 8841.788871 10720.532387 8949.392721 10532.042338 C 9056.99657 10343.552288 9129.439724 10103.545666 9088.216841 9784.445952 C 9046.993958 9465.649277 8891.801928 9068.062549 8789.350939 8854.117252 C 8686.899951 8640.171954 8636.886894 8610.171127 8520.492871 8687.749025 C 8404.098848 8765.326923 8221.626969 8950.483547 8076.43755 9095.336029 C 7931.551241 9240.491549 7823.947391 9345.645966 7802.729731 9534.439054 C 7781.512071 9723.232142 7846.37749 9995.96694 7968.833701 10222.336823 C 8091.593022 10448.403666 8271.640026 10628.711672 8422.891633 10703.562222 C 8574.143241 10778.715811 8696.902562 10748.714983 8814.205913 10611.135429 C 8931.812373 10473.555876 9044.569083 10228.397596 9073.06137 10020.816111 C 9101.856766 9813.234625 9046.993958 9643.229934 8885.739739 9520.499275 C 8724.182411 9398.071655 8456.83989 9322.918066 8204.046622 9330.494032 C 7951.556463 9338.069999 7713.918667 9428.072482 7603.889942 9676.867226 C 7493.861218 9925.965009 7511.441565 10333.552013 7457.488086 10564.770514 C 7403.837716 10796.292053 7278.653519 10851.142052 7146.194697 10787.503932 C 7013.432764 10723.562774 6873.396206 10541.133498 6823.383149 10372.340962 C 6773.370093 10203.245387 6813.380538 10048.392629 6893.401428 9912.02523 C 6973.422319 9775.657831 7093.756764 9658.078829 7226.215587 9619.592919 C 7358.67441 9580.803969 7503.863829 9620.805073 7476.28087 9585.652588 C 7448.697912 9550.803142 7248.645685 9440.497068 7082.238606 9440.497068 C 6916.134636 9440.497068 6783.372704 9550.803142 6706.079798 9464.437122 C 6628.483783 9378.071103 6605.750575 9095.336029 6597.263511 8845.32913 C 6588.473338 8595.322232 6593.323089 8377.740471 6622.118485 8236.221414 C 6650.913881 8095.005397 6703.351813 8029.852084 6852.178545 7846.210653 C 7001.005278 7662.266183 7246.22081 7359.833596 7377.467195 7194.677524 C 7508.71358 7029.521452 7526.293927 7001.944933 7522.656614 6875.880849 C 7518.716191 6749.513725 7493.861218 6524.355998 7466.278259 6444.35379 C 7438.695301 6364.351583 7408.687467 6429.201857 7456.275648 6600.721741 C 7503.863829 6771.938587 7628.744916 7049.522003 7691.488569 7209.526418 C 7753.929112 7369.833872 7753.929112 7412.259285 7688.760584 7504.686078 C 7623.895165 7597.415909 7493.861218 7739.844082 7337.45675 7882.575293 C 7181.052282 8025.003465 6998.580402 8167.431637 6886.126802 8285.010639 C 6773.370093 8402.589641 6730.934772 8495.319473 6708.504674 8642.899302 C 6686.074576 8790.479132 6683.346591 8992.90896 6677.284402 9138.06448 C 6670.919104 9282.916962 6660.916492 9370.495136 6580.895602 9349.28243 C 6500.874711 9328.069723 6350.835541 9198.066136 6218.376719 8982.908684 C 6085.614786 8767.751232 5970.736311 8467.742954 5901.930469 8283.798485 C 5833.124628 8100.157054 5810.69453 8032.579432 5919.510816 7981.365897 C 6028.023994 7929.849324 6268.389775 7894.999878 6404.485911 7828.63441 C 6540.885157 7762.268943 6573.317866 7664.993531 6650.913881 7597.415909 C 6728.509896 7529.838287 6850.966108 7492.261493 6972.209881 7434.684146 C 7093.756764 7377.1068 7213.7881 7299.831941 7273.803768 7261.042991 C 7333.819436 7222.254042 7333.819436 7222.254042 7192.267331 7348.318127 C 7051.018334 7474.68525 6768.520342 7727.419496 6637.273957 8063.792414 C 6505.724462 8400.165332 6525.729685 8820.47996 6554.525081 9051.698461 C 6583.320477 9282.916962 6620.906047 9325.645414 6599.688387 9340.494308 C 6578.470726 9355.646242 6498.449836 9343.221656 6410.851209 9301.705359 C 6323.252583 9260.492101 6228.37933 9190.490169 6019.53693 9130.488514 C 5810.69453 9070.486858 5487.882982 9020.485478 5279.040582 8988.060341 C 5070.198182 8955.332166 4975.324929 8940.483271 4948.954408 8924.119183 C 4922.583887 8907.755095 4965.322318 8890.481891 4990.177291 8755.326647 C 5015.335374 8620.171402 5022.610001 8367.740195 5024.125548 8032.579432 C 5025.337986 7697.418669 5020.185125 7279.831389 5005.332763 6995.88416 C 4990.177291 6711.936931 4965.322318 6561.932792 4860.143344 6489.203513 C 4755.26748 6416.777272 4570.067615 6421.928929 4477.619238 6437.989978 C 4384.867751 6454.354066 4384.867751 6481.930585 4477.619238 6570.720913 C 4570.067615 6659.511242 4755.26748 6809.515381 4820.132899 6829.515933 C 4885.301427 6849.516485 4830.13551 6739.51345 4654.938257 6626.783066 C 4480.044114 6514.355722 4184.815525 6399.201029 3995.978347 6317.986667 C 3807.14117 6236.772305 3724.695404 6189.195234 3645.886951 6139.193855 C 3567.078498 6089.192475 3492.210468 6036.766786 3359.448535 6022.827008 C 3226.989713 6009.190268 3036.940097 6034.039438 3029.362362 6057.979493 C 3021.784626 6081.616509 3196.981879 6104.344408 3467.052384 5946.764303 C 3737.12289 5789.184197 4102.369759 5451.296086 4374.86514 5231.290015 C 4647.663631 5011.283945 4827.710635 4908.553838 4933.798936 4862.491961 C 5040.190348 4816.127045 5072.623057 4826.127321 5105.358876 4826.127321 C 5137.791586 4826.127321 5170.224295 4816.127045 5162.646559 4811.278426 C 5155.371933 4806.126769 5107.783752 4806.126769 5081.413231 4916.129804 C 5055.34582 5026.132839 5050.192959 5246.441949 5055.34582 5462.811555 C 5060.195571 5678.878123 5075.351042 5891.611266 5001.39234 6056.767338 C 4927.736748 6221.620372 4765.270091 6339.199374 4682.521216 6380.412632 C 4600.075449 6421.928929 4597.650574 6386.776444 4722.531661 6326.774788 C 4847.715857 6266.773133 5100.206016 6181.619268 5259.035359 6021.614853 C 5417.864703 5861.610438 5483.033231 5626.452434 5573.056733 5531.601332 C 5663.080235 5436.447191 5777.958711 5481.296914 5855.554726 5480.084759 C 5933.150741 5478.872605 5973.161186 5431.295534 6111.985307 5445.235313 C 6250.809428 5458.872053 6488.447224 5534.025641 6679.709277 5581.602712 C 6870.97133 5628.876744 7016.160749 5648.877295 7411.112342 5624.028125 C 7806.367044 5598.875916 8451.68703 5528.873984 8905.744962 5520.085863 C 9359.499785 5511.60078 9622.295664 5564.026469 9753.542049 5590.087794 C 9884.788434 5616.452158 9884.788434 5616.452158 9835.987816 5698.878675 C 9787.187197 5781.608231 9689.585959 5946.764303 9690.798397 6039.191095 C 9692.313944 6131.617888 9792.340057 6151.61844 9992.392284 6230.408493 C 10192.44451 6309.198546 10492.52285 6446.778099 10627.709658 6503.143291 C 10762.593356 6559.508483 10732.585522 6534.356274 10723.795348 6679.511794 C 10715.005175 6824.364276 10727.735771 7139.524487 10617.707046 7521.050166 C 10507.375212 7902.575845 10274.890276 8350.163952 10089.993521 8621.383557 C 9904.793657 8892.906201 9767.181974 8988.060341 9613.505491 9035.334373 C 9459.525898 9082.911443 9289.481506 9082.911443 9169.45017 9092.911719 C 9049.418834 9102.911995 8979.400555 9122.912547 8944.54297 9132.912823 C 8909.382275 9142.913099 8909.382275 9142.913099 8935.752796 9041.698185 C 8961.820207 8940.483271 9014.561249 8737.750404 9031.838487 8598.958696 C 9049.418834 8460.166988 9031.838487 8385.013399 8985.765853 8438.348204 C 8939.390109 8491.37997 8864.21897 8672.90013 8798.141113 8684.112561 C 8731.760147 8695.324991 8674.169354 8536.532731 8645.373958 8495.92555 C 8616.881671 8455.318369 8616.881671 8532.593228 8684.171966 8641.384109 C 8751.765369 8750.17499 8886.952177 8890.481891 9016.379906 8968.05979 C 9145.807634 9045.940726 9269.476283 9061.395698 9393.751151 9050.486306 C 9518.026019 9039.576914 9643.210215 9002.303159 9733.839936 8911.997637 C 9824.469657 8821.692114 9880.848012 8678.354826 9875.392042 8418.044613 C 9869.632963 8157.431362 9802.342668 7779.845185 9722.321778 7504.686078 C 9642.300887 7229.830009 9549.5494 7057.09797 9503.476766 7003.460126 C 9457.101023 6949.519244 9457.101023 7014.672557 9519.541566 7211.041612 C 9582.285219 7407.107628 9707.166306 7734.995463 9732.324389 7761.056788 C 9757.179363 7787.421152 9682.311332 7512.262044 9618.355242 7222.254042 C 9554.702261 6931.943002 9502.264329 6626.783066 9472.256495 6449.202409 C 9442.248661 6271.621751 9434.670925 6221.620372 9400.722668 6088.889436 C 9367.077521 5956.46154 9306.758743 5741.001049 9276.750909 5633.119285 C 9246.743075 5525.540559 9246.743075 5525.540559 9270.385611 5638.270942 C 9294.331257 5751.001325 9341.919438 5976.462092 9377.080132 6098.889712 C 9411.937717 6221.620372 9434.670925 6241.620923 9489.230623 6196.165124 C 9543.790321 6150.406285 9630.479619 6039.191095 9678.674019 5972.522589 C 9726.868419 5905.854083 9736.567921 5884.338338 9704.438321 5931.006292 C 9672.308721 5977.977285 9598.350019 6093.738055 9752.935831 6220.105178 C 9907.218533 6346.77534 10290.045748 6484.354894 10490.704193 6552.841632 C 10691.362639 6621.631409 10710.155424 6621.025332 10752.893854 6472.233347 C 10795.329175 6323.441363 10861.407031 6026.160433 10894.749069 5877.671487 C 10927.787997 5729.182542 10927.787997 5729.182542 10763.805794 5717.667072 C 10600.126699 5706.454642 10272.465401 5684.02978 10092.721506 5664.938345 C 9912.977612 5645.846909 9881.454231 5630.088898 9865.69254 5622.209893 C 9849.62774 5614.330888 9849.62774 5614.330888 10091.812178 5639.483097 C 10333.996616 5664.938345 10818.365492 5715.84884 11264.542579 5733.728121 C 11710.719666 5751.607403 12118.098746 5736.455469 12444.547606 5710.394144 C 12770.996467 5684.02978 13016.211999 5646.452986 13216.264226 5568.875088 C 13416.316452 5491.29719 13571.205373 5374.021227 13765.195411 5190.076757 C 13958.882339 5006.132288 14191.670385 4756.125389 14329.282068 4614.909372 C 14466.590642 4473.390315 14509.329072 4440.965178 14521.756559 4419.752471 C 14534.184045 4398.539765 14516.603698 4388.539489 14481.746113 4392.175953 C 14446.585419 4396.115456 14394.147487 4413.38866 14330.494506 4487.330094 C 14266.538415 4560.968489 14191.670385 4690.972076 14135.29203 4768.549975 C 14079.216785 4846.127873 14041.631215 4871.280082 14076.4888 4819.763509 C 14111.649494 4768.549975 14219.253343 4640.970697 14295.333811 4548.543904 C 14371.717389 4456.117111 14416.577585 4398.539765 14426.580196 4359.750816 C 14436.582808 4320.961867 14411.727834 4300.961315 14375.354702 4290.961039 C 14339.284679 4280.960763 14291.696498 4280.960763 14248.04874 4332.174297 C 14204.097872 4383.387832 14164.087426 4486.117939 14071.639049 4604.909096 C 13978.887562 4723.700252 13834.001252 4858.552458 13847.641177 4844.915718 C 13861.584211 4831.278978 14034.053479 4668.547215 14131.654717 4537.331473 C 14228.952845 4406.115732 14251.686053 4305.809934 14238.046128 4255.808554 C 14224.103094 4205.807174 14174.090038 4205.807174 14119.22723 4249.747781 C 14064.061313 4293.385348 14004.045645 4380.963522 13928.874505 4469.753851 C 13854.006475 4558.54418 13763.982973 4648.546663 13630.008603 4743.700804 C 13496.337343 4838.551906 13318.715214 4938.857704 13172.313358 5013.708254 C 13026.21461 5088.861843 12911.033025 5138.863223 12789.789252 5162.500239 C 12668.545478 5186.440293 12540.936406 5183.712945 12223.277719 5088.861843 C 11905.619032 4993.707702 11397.91073 4806.126769 11026.601673 4693.699424 C 10654.989507 4580.969041 10420.079695 4543.392247 10192.44451 4523.391695 C 9964.809325 4503.391143 9744.751876 4500.966834 9607.140193 4497.33037 C 9469.52851 4493.390867 9414.665702 4488.542248 9324.6422 4402.176229 C 9234.618698 4315.81021 9109.434502 4148.229828 8913.019588 4109.743918 C 8716.907785 4070.954968 8449.262154 4160.957452 8215.261671 4314.598055 C 7981.564297 4468.541696 7781.512071 4686.123458 7633.897776 4784.914062 C 7486.283482 4883.704667 7391.107119 4863.704115 7458.700523 4748.549423 C 7526.293927 4633.697769 7756.353988 4423.388935 7881.538184 4274.596951 C 8006.419271 4125.804967 8026.424493 4038.226793 8012.784569 3945.8 C 7998.841535 3853.373207 7951.556463 3755.794757 7831.525127 3687.00498 C 7711.493791 3618.215203 7518.716191 3578.2141 7303.811602 3531.849184 C 7088.603904 3485.484268 6850.966108 3433.058579 6726.085021 3376.693388 C 6600.900825 3320.631235 6588.473338 3260.629579 6594.535526 3216.688973 C 6600.900825 3173.051405 6625.755798 3145.474887 6814.592976 3176.687869 C 7003.430153 3207.900851 7356.249534 3297.903335 7523.869052 3320.631235 C 7691.488569 3343.056096 7673.908222 3297.903335 7531.143678 3259.114386 C 7388.682244 3220.628475 7121.036614 3187.9003 6947.354908 3153.050853 C 6773.370093 3117.898368 6693.349202 3080.321574 6649.701443 3034.259697 C 6605.750575 2987.894781 6598.475949 2932.741744 6628.483783 2899.104452 C 6658.491617 2865.46716 6726.085021 2852.739536 6826.111134 2863.951967 C 6926.137247 2875.467436 7058.59607 2910.316883 7217.425414 2950.317987 C 7376.254757 2990.31909 7561.151512 3035.471851 7658.75275 3057.896712 C 7756.353988 3080.321574 7766.356599 3080.321574 7705.128493 3053.048094 C 7643.900388 3025.471575 7511.441565 2970.318538 7379.89207 2912.741192 C 7248.645685 2855.466884 7118.611738 2795.16219 7021.0105 2757.888434 C 6923.409262 2720.31164 6858.543844 2705.159707 6838.538621 2663.946448 C 6818.533398 2622.73319 6843.388372 2555.155568 6887.33924 2523.942585 C 6930.986998 2492.729603 6993.427542 2497.578221 7142.254274 2549.094794 C 7291.081006 2600.308329 7526.293927 2697.886779 7696.33832 2759.100589 C 7866.382712 2820.314399 7971.561686 2845.466609 7987.626486 2840.314951 C 8003.994395 2835.163294 7931.551241 2800.313847 7865.170274 2736.372689 C 7798.789308 2672.73457 7738.77364 2580.307777 7662.693172 2513.942309 C 7586.309595 2447.576842 7493.861218 2407.575738 7451.122787 2371.514137 C 7408.687467 2335.149497 7416.265202 2302.72436 7453.850772 2286.360272 C 7491.133233 2269.996184 7558.726637 2269.996184 7717.55598 2352.72574 C 7876.385324 2435.152257 8126.450607 2600.308329 8362.875965 2777.888986 C 8599.301324 2955.469644 8821.783649 3145.474887 9040.62866 3295.479026 C 9259.473672 3445.483165 9474.68137 3555.4862 9674.733597 3728.218239 C 9874.785823 3900.647239 10059.985687 4135.805243 10204.871997 4285.809382 C 10350.061416 4436.116559 10454.93728 4500.966834 10507.375212 4533.391971 C 10560.116254 4566.120147 10560.116254 4566.120147 10407.349099 4549.756059 C 10254.885054 4533.391971 9949.956963 4500.966834 9684.736208 4492.178712 C 9419.515453 4483.390591 9194.608253 4498.542524 8948.180283 4508.5428 C 8701.752313 4518.543076 8434.106682 4523.391695 8256.484554 4528.543352 C 8079.165535 4533.391971 7991.566909 4538.543628 7876.385324 4610.969869 C 7761.506848 4683.699148 7618.742304 4823.703011 7456.275648 4923.705771 C 7293.808991 5023.70853 7111.034002 5083.710186 7032.225549 5127.650792 C 6953.417096 5171.28836 6978.575179 5198.864878 7054.958757 5157.65162 C 7131.039225 5116.135323 7258.648297 5006.132288 7335.031874 4912.49334 C 7411.112342 4818.551354 7436.270425 4741.276495 7448.697912 4702.487546 C 7461.125399 4663.698597 7461.125399 4663.698597 7235.005761 4728.548871 C 7008.583013 4793.702184 6555.737519 4923.705771 6232.622862 4987.040852 C 5909.508205 5050.375933 5715.518167 5047.042507 5618.826258 5045.224275 C 5521.831239 5043.406043 5521.831239 5043.406043 5727.642545 4936.433395 C 5933.150741 4829.460746 6344.470243 4615.21241 6641.517489 4449.147222 C 6938.564734 4283.385072 7121.036614 4165.80607 7218.637851 4044.590605 C 7316.239089 3923.375139 7328.666576 3798.22017 7328.666576 3711.854151 C 7328.666576 3625.488131 7316.239089 3578.2141 7103.456266 3539.425151 C 6890.976553 3500.636202 6478.444613 3470.635374 6131.99053 3365.480957 C 5785.536447 3260.629579 5505.463329 3080.321574 5649.137201 2910.316883 C 5793.114182 2740.312192 6360.838153 2580.307777 6656.066742 2460.304466 C 6950.992221 2339.998116 6973.422319 2259.995908 6933.411874 2118.779891 C 6893.401428 1977.563873 6790.95044 1774.831006 6670.919104 1619.67521 C 6550.887768 1464.822452 6413.276085 1357.243726 6179.578711 1286.02964 C 5945.578228 1214.512515 5615.492054 1179.663069 5351.483737 1183.299533 C 5087.778529 1187.239035 4890.151178 1229.664449 4752.539495 1320.879087 C 4614.927812 1412.093725 4537.634906 1552.400626 4526.419857 1701.192611 C 4514.901698 1849.984595 4570.067615 2007.564701 4606.440748 2106.355305 C 4642.51077 2205.14591 4660.091117 2245.147014 4670.093729 2253.935135 C 4680.09634 2262.420218 4682.521216 2239.995357 4640.085895 2182.41801 C 4597.650574 2125.143703 4510.051948 2032.413871 4453.976702 1964.53321 C 4397.901457 1896.652549 4373.349593 1853.014982 4370.621608 1746.951449 C 4368.196732 1640.584878 4387.898846 1471.489303 4400.023223 1340.5766 C 4412.45071 1209.663897 4417.60357 1117.237104 4624.930423 1043.29567 C 4832.560385 969.657274 5242.970559 914.504237 5729.158092 880.866945 C 6215.648734 846.926615 6778.522953 834.50203 7473.855995 864.502858 C 8169.189037 894.503685 8996.980902 966.929926 9658.365687 949.656722 C 10320.053582 932.08048 10815.334397 824.501754 11270.301658 760.560596 C 11725.572028 696.922476 12140.831953 676.921924 12679.760527 713.286564 C 13218.689101 749.348165 13881.589434 842.077996 14336.556694 1009.658378 C 14791.827064 1177.23876 15039.467472 1419.669691 15331.968076 1540.885157 C 15624.77179 1662.403662 15962.435699 1662.403662 16300.099609 1662.403662 " stroke="#000000" stroke-width="48.306999" stroke-opacity="1" stroke-miterlimit="22.926001"/></g></svg>