<svg xmlns="http://www.w3.org/2000/svg" xmlns:xlink="http://www.w3.org/1999/xlink" width="250" zoomAndPan="magnify" viewBox="0 0 187.5 187.499992" height="250" preserveAspectRatio="xMidYMid meet" version="1.0"><defs><clipPath id="6f15c3ed0d"><path d="M 56.25 69.09375 L 131.25 69.09375 L 131.25 76 L 56.25 76 Z M 56.25 69.09375 " clip-rule="nonzero"/></clipPath><clipPath id="d29d9ce2d1"><path d="M 56.25 90 L 131.25 90 L 131.25 98 L 56.25 98 Z M 56.25 90 " clip-rule="nonzero"/></clipPath><clipPath id="0e1d07535b"><path d="M 56.25 112 L 131.25 112 L 131.25 118.59375 L 56.25 118.59375 Z M 56.25 112 " clip-rule="nonzero"/></clipPath></defs><g clip-path="url(#6f15c3ed0d)"><path fill="#695125" d="M 131.25 72.335938 C 131.25 74.117188 129.808594 75.5625 128.035156 75.5625 L 59.464844 75.5625 C 57.691406 75.5625 56.25 74.117188 56.25 72.335938 C 56.25 70.554688 57.691406 69.109375 59.464844 69.109375 L 128.035156 69.109375 C 129.808594 69.109375 131.25 70.554688 131.25 72.335938 Z M 131.25 72.335938 " fill-opacity="1" fill-rule="evenodd"/></g><g clip-path="url(#d29d9ce2d1)"><path fill="#695125" d="M 131.25 93.84375 C 131.25 95.625 129.808594 97.070312 128.035156 97.070312 L 59.464844 97.070312 C 57.691406 97.070312 56.25 95.625 56.25 93.84375 C 56.25 92.0625 57.691406 90.617188 59.464844 90.617188 L 128.035156 90.617188 C 129.808594 90.617188 131.25 92.0625 131.25 93.84375 Z M 131.25 93.84375 " fill-opacity="1" fill-rule="evenodd"/></g><g clip-path="url(#0e1d07535b)"><path fill="#695125" d="M 131.25 115.351562 C 131.25 117.136719 129.808594 118.578125 128.035156 118.578125 L 59.464844 118.578125 C 57.691406 118.578125 56.25 117.136719 56.25 115.351562 C 56.25 113.570312 57.691406 112.128906 59.464844 112.128906 L 128.035156 112.128906 C 129.808594 112.128906 131.25 113.570312 131.25 115.351562 Z M 131.25 115.351562 " fill-opacity="1" fill-rule="evenodd"/></g></svg>