<svg xmlns="http://www.w3.org/2000/svg" xmlns:xlink="http://www.w3.org/1999/xlink" width="500" zoomAndPan="magnify" viewBox="0 0 375 374.999991" height="500" preserveAspectRatio="xMidYMid meet" version="1.0"><defs><clipPath id="83f267e51b"><path d="M 180 176.242188 L 198.742188 176.242188 L 198.742188 195 L 180 195 Z M 180 176.242188 " clip-rule="nonzero"/></clipPath></defs><g clip-path="url(#83f267e51b)"><path fill="#b89e6f" d="M 197.746094 189.777344 L 195.957031 187.984375 C 194.964844 186.996094 193.363281 186.996094 192.375 187.984375 C 192.003906 188.351562 191.777344 188.804688 191.679688 189.28125 C 188.726562 188.726562 185.851562 185.867188 185.671875 183.308594 C 186.160156 183.21875 186.625 182.984375 187 182.609375 C 187.988281 181.621094 187.988281 180.015625 187 179.027344 L 185.207031 177.234375 C 184.21875 176.246094 182.613281 176.246094 181.625 177.234375 C 176.25 182.609375 192.371094 198.734375 197.746094 193.359375 C 198.734375 192.371094 198.734375 190.765625 197.746094 189.777344 Z M 197.746094 189.777344 " fill-opacity="1" fill-rule="nonzero"/></g></svg>