<svg xmlns="http://www.w3.org/2000/svg" xmlns:xlink="http://www.w3.org/1999/xlink" width="500" zoomAndPan="magnify" viewBox="0 0 375 374.999991" height="500" preserveAspectRatio="xMidYMid meet" version="1.0"><defs><clipPath id="847ec2ce27"><path d="M 114.199219 184 L 206 184 L 206 261.394531 L 114.199219 261.394531 Z M 114.199219 184 " clip-rule="nonzero"/></clipPath><clipPath id="b57ea4967a"><path d="M 143 113.644531 L 260.449219 113.644531 L 260.449219 182 L 143 182 Z M 143 113.644531 " clip-rule="nonzero"/></clipPath></defs><g clip-path="url(#847ec2ce27)"><path fill="#000000" d="M 203.496094 206.523438 C 202.679688 204.234375 201.265625 202.804688 199.183594 201.644531 C 198.660156 201.351562 197.652344 200.964844 197.382812 200.441406 C 197.117188 199.933594 197.324219 199.789062 197.546875 199.289062 C 197.953125 198.355469 198.246094 197.390625 198.421875 196.386719 C 198.789062 194.328125 198.898438 192.253906 198.75 190.164062 C 198.644531 188.425781 198.714844 185.027344 196.457031 184.777344 C 194.386719 184.554688 192.289062 184.527344 190.210938 184.480469 C 182.625 184.3125 175.03125 184.375 167.445312 184.429688 C 158.691406 184.492188 149.941406 184.601562 141.1875 184.699219 C 137.664062 184.738281 134.140625 184.773438 130.617188 184.800781 C 129.035156 184.8125 127.417969 184.730469 125.839844 184.851562 C 123.703125 185.019531 122.386719 185.902344 121.765625 187.964844 C 121.042969 190.355469 121.285156 192.457031 122 194.796875 C 122.441406 196.242188 123.1875 198.289062 122.226562 199.691406 C 121.460938 200.8125 119.914062 200.980469 118.886719 201.78125 C 116.886719 203.34375 116.917969 206.363281 116.710938 208.644531 C 116.386719 212.25 116.097656 215.859375 115.84375 219.46875 C 115.34375 226.597656 114.984375 233.734375 114.773438 240.882812 C 114.679688 243.992188 114.199219 247.503906 115.089844 250.535156 C 115.710938 252.644531 117.152344 254.324219 118.972656 255.511719 C 121 256.796875 123.1875 257.703125 125.527344 258.230469 C 138.878906 261.238281 152.941406 260.75 166.539062 260.980469 C 173.414062 261.09375 180.335938 261.34375 187.183594 260.574219 C 192.65625 259.957031 199.152344 258.570312 203.082031 254.355469 C 205.039062 252.257812 205.097656 249.625 205.101562 246.898438 C 205.101562 243.210938 205.101562 239.523438 205.101562 235.832031 C 205.101562 229.113281 205.324219 222.347656 204.917969 215.636719 C 204.738281 212.609375 204.523438 209.402344 203.496094 206.523438 Z M 204.238281 249.015625 C 204.089844 251.207031 203.339844 253.019531 201.667969 254.476562 C 200.09375 255.792969 198.355469 256.828125 196.449219 257.582031 C 192.527344 259.203125 188.261719 259.796875 184.058594 260.097656 C 174.84375 260.757812 165.523438 260.21875 156.296875 260.050781 C 146.003906 259.859375 135.492188 259.753906 125.402344 257.480469 C 121.933594 256.636719 117.992188 255.390625 116.238281 252 C 115.296875 250.179688 115.253906 248.09375 115.296875 246.089844 C 115.339844 243.886719 115.425781 241.6875 115.511719 239.484375 C 115.851562 230.777344 116.382812 222.078125 117.105469 213.394531 C 117.277344 211.359375 117.445312 209.328125 117.652344 207.296875 C 117.828125 205.558594 118.050781 203.519531 119.527344 202.363281 C 120.511719 201.585938 121.898438 201.40625 122.753906 200.445312 C 123.625 199.464844 123.574219 198.101562 123.328125 196.867188 C 128.066406 197.976562 133.011719 197.730469 137.863281 197.9375 C 138.242188 197.953125 138.136719 197.457031 137.820312 197.445312 C 132.902344 197.21875 127.988281 196.972656 123.140625 196.058594 C 122.742188 194.515625 122.09375 193.042969 122.121094 191.421875 C 122.121094 191.414062 122.121094 191.402344 122.121094 191.390625 C 125.898438 192.550781 129.90625 192.875 133.84375 192.824219 C 135.941406 192.796875 138.039062 192.667969 140.132812 192.492188 C 142.03125 192.332031 144.105469 192.316406 145.945312 191.835938 C 146.085938 191.800781 146.144531 191.707031 146.128906 191.566406 C 146.113281 191.421875 146.035156 191.347656 145.890625 191.34375 C 144.144531 191.269531 142.328125 191.640625 140.582031 191.792969 C 138.433594 191.976562 136.273438 192.117188 134.113281 192.148438 C 130.078125 192.226562 126.082031 191.839844 122.132812 190.988281 C 122.191406 189.664062 122.4375 188.15625 123.121094 187.058594 C 124.445312 184.929688 127.929688 185.527344 130.140625 185.515625 C 149.414062 185.394531 168.695312 184.859375 187.96875 185.121094 C 189.8125 185.148438 191.660156 185.183594 193.503906 185.257812 C 194.550781 185.296875 195.992188 185.152344 196.996094 185.496094 C 197.039062 185.511719 197.070312 185.523438 197.089844 185.53125 C 197.175781 185.660156 197.234375 185.800781 197.277344 185.949219 C 197.402344 186.378906 197.527344 186.796875 197.613281 187.230469 C 197.800781 188.234375 197.914062 189.242188 197.957031 190.257812 C 196.386719 190.21875 194.78125 190.566406 193.226562 190.742188 C 191.445312 190.945312 189.648438 191.050781 187.871094 191.289062 C 187.578125 191.332031 187.753906 191.707031 187.996094 191.695312 C 189.78125 191.621094 191.574219 191.367188 193.347656 191.144531 C 194.859375 190.953125 196.515625 191.085938 197.972656 190.613281 C 197.976562 190.730469 197.984375 190.847656 197.988281 190.964844 C 198.0625 192.730469 197.941406 194.480469 197.621094 196.21875 C 194.300781 196.269531 190.921875 196.832031 187.613281 197.09375 C 183.898438 197.390625 180.230469 197.730469 176.515625 197.289062 C 176.140625 197.242188 176.070312 197.832031 176.429688 197.914062 C 179.726562 198.664062 183.367188 198.058594 186.695312 197.773438 C 190.25 197.472656 194.023438 197.355469 197.535156 196.613281 C 197.285156 197.746094 196.863281 198.808594 196.269531 199.804688 C 196.214844 199.929688 196.234375 200.039062 196.324219 200.136719 C 197.222656 201.308594 198.488281 201.871094 199.730469 202.609375 C 201.667969 203.769531 202.628906 205.714844 203.167969 207.847656 C 204.257812 212.183594 204.304688 216.820312 204.332031 221.265625 C 204.359375 225.921875 204.320312 230.582031 204.308594 235.238281 C 204.296875 239.804688 204.546875 244.457031 204.238281 249.015625 Z M 204.238281 249.015625 " fill-opacity="1" fill-rule="nonzero"/></g><path fill="#000000" d="M 190.796875 211.15625 C 187.019531 210.476562 183.089844 210.667969 179.277344 210.910156 C 175.066406 211.179688 170.875 211.496094 166.652344 211.542969 C 158.582031 211.632812 150.511719 211.1875 142.441406 211.316406 C 138.472656 211.359375 134.523438 211.605469 130.582031 212.058594 C 128.320312 212.328125 125.398438 212.117188 124.011719 214.226562 C 121.808594 217.585938 121.34375 222.375 121.191406 226.304688 C 121.039062 230.257812 121.140625 234.207031 121.5 238.144531 C 121.796875 241.40625 122.363281 244.585938 125.070312 246.726562 C 127.621094 248.738281 131.042969 249.628906 134.171875 250.226562 C 137.878906 250.933594 141.667969 251.070312 145.433594 251.089844 C 154.371094 251.140625 163.347656 251.078125 172.269531 250.425781 C 176.722656 250.097656 181.164062 249.609375 185.570312 248.871094 C 189.078125 248.28125 193.816406 248.085938 196.542969 245.515625 C 196.574219 245.492188 196.605469 245.464844 196.632812 245.4375 C 198.828125 242.992188 198.398438 239.496094 198.414062 236.441406 C 198.4375 232.257812 198.460938 228.074219 198.484375 223.894531 C 198.5 221.148438 198.519531 218.230469 197.351562 215.683594 C 196.113281 212.976562 193.621094 211.664062 190.796875 211.15625 Z M 197.527344 233.085938 C 197.515625 235.085938 197.511719 237.085938 197.492188 239.085938 C 197.472656 241.109375 197.535156 243.421875 196.09375 244.988281 C 193.519531 247.289062 189.421875 247.535156 186.160156 248.082031 C 182.546875 248.683594 178.902344 249.117188 175.25 249.421875 C 167.960938 250.035156 160.640625 250.171875 153.332031 250.214844 C 146.191406 250.257812 138.738281 250.691406 131.777344 248.800781 C 128.675781 247.957031 125.078125 246.691406 123.558594 243.597656 C 122.746094 241.9375 122.566406 240.039062 122.394531 238.226562 C 122.214844 236.347656 122.097656 234.464844 122.039062 232.578125 C 121.882812 227.699219 121.980469 222.832031 123.363281 218.121094 C 123.804688 216.609375 124.421875 214.207031 126.058594 213.597656 C 127.632812 213.007812 129.703125 213.003906 131.359375 212.816406 C 133.21875 212.601562 135.085938 212.453125 136.957031 212.34375 C 144.34375 211.921875 151.75 212.214844 159.144531 212.339844 C 166.4375 212.464844 173.625 212.050781 180.902344 211.664062 C 184.710938 211.460938 189.179688 211.15625 192.824219 212.53125 C 196.546875 213.9375 197.421875 217.660156 197.5625 221.257812 C 197.714844 225.191406 197.550781 229.152344 197.527344 233.085938 Z M 197.527344 233.085938 " fill-opacity="1" fill-rule="nonzero"/><g clip-path="url(#b57ea4967a)"><path fill="#000000" d="M 259.710938 126.628906 C 256.265625 126.265625 252.910156 126.214844 249.507812 125.410156 C 246.199219 124.585938 242.976562 123.496094 239.847656 122.136719 C 234.390625 119.839844 229.175781 116.90625 223.574219 114.964844 C 221.367188 114.199219 219.230469 113.707031 216.886719 113.800781 C 214.078125 113.957031 211.335938 114.460938 208.65625 115.316406 C 206.574219 115.976562 204.703125 117.011719 203.035156 118.425781 C 201.941406 119.324219 195.238281 126.179688 192.578125 128.777344 C 185.902344 131.449219 179.039062 133.808594 172.570312 136.960938 C 172.390625 136.660156 171.972656 136.433594 171.664062 136.574219 C 167.070312 138.660156 162.480469 140.746094 157.886719 142.828125 C 155.546875 143.890625 153.210938 144.964844 150.867188 146.011719 C 149.007812 146.835938 146.910156 147.550781 145.367188 148.929688 C 142.980469 151.058594 142.789062 154.761719 144.824219 157.210938 C 145.921875 158.535156 147.074219 159.769531 147.375 161.53125 C 147.714844 163.546875 147.722656 165.699219 147.738281 167.738281 C 147.789062 169.851562 147.628906 171.949219 147.257812 174.027344 C 146.828125 176.238281 146.132812 178.027344 147.304688 180.113281 C 147.351562 180.195312 147.40625 180.273438 147.464844 180.347656 C 148.375 181.496094 150.003906 182.140625 151.453125 181.507812 C 153.304688 180.703125 153.839844 178.503906 153.878906 176.667969 C 153.976562 172.402344 153 168.148438 153.1875 163.855469 C 153.226562 162.972656 153.253906 161.945312 153.617188 161.121094 C 154.242188 159.714844 156.265625 159.257812 157.574219 158.757812 L 165.890625 155.558594 C 167.503906 154.9375 169.984375 154.320312 170.632812 152.460938 C 170.671875 152.351562 170.699219 152.238281 170.722656 152.125 C 172.414062 151.3125 174.210938 150.691406 175.9375 149.957031 C 179.011719 148.640625 182.097656 147.34375 185.191406 146.058594 C 190.207031 143.972656 195.226562 141.890625 200.257812 139.820312 C 201.386719 140.953125 202.738281 141.65625 204.3125 141.921875 C 205.832031 142.203125 207.378906 142.082031 208.914062 142.058594 C 210.6875 142.039062 212.445312 142.183594 214.191406 142.484375 C 217.441406 143.027344 220.617188 143.9375 223.84375 144.597656 C 227.074219 145.257812 230.335938 145.507812 233.628906 145.347656 C 240.960938 144.988281 248.996094 143.039062 255.761719 146.917969 C 256.363281 147.265625 256.78125 146.617188 256.175781 146.25 C 251.472656 143.382812 245.902344 143.09375 240.539062 143.375 C 237.308594 143.546875 234.089844 143.945312 230.851562 143.921875 C 227.636719 143.898438 224.507812 143.300781 221.390625 142.554688 C 218.554688 141.886719 215.691406 141.371094 212.796875 141.007812 C 211.457031 140.878906 210.113281 140.824219 208.765625 140.851562 C 207.070312 140.835938 204.871094 141.023438 203.21875 140.535156 C 202.484375 140.335938 201.871094 139.945312 201.382812 139.359375 C 201.109375 139.023438 200.914062 138.648438 200.796875 138.234375 C 200.300781 136.582031 201.011719 134.527344 202.484375 133.398438 C 204.480469 131.890625 206.710938 130.96875 209.1875 130.628906 C 211.285156 130.429688 213.382812 130.367188 215.488281 130.4375 C 216 130.445312 216.511719 130.449219 217.019531 130.457031 C 219.910156 130.488281 222.796875 130.453125 225.515625 129.777344 C 226.554688 129.519531 225.476562 128.601562 224.660156 128.800781 C 222.28125 129.378906 219.851562 129.496094 217.40625 129.503906 C 217.519531 129.152344 217.601562 128.792969 217.65625 128.425781 C 217.796875 127.46875 217.714844 126.527344 217.414062 125.605469 C 217.109375 124.6875 216.617188 123.882812 215.933594 123.195312 C 214.046875 121.382812 211.566406 121.84375 209.273438 122.488281 C 204.695312 123.78125 200.304688 125.59375 195.914062 127.414062 C 197.167969 126.191406 198.425781 124.96875 199.679688 123.746094 C 200.929688 122.527344 202.179688 121.296875 203.453125 120.101562 C 204.738281 118.902344 206.207031 118.136719 207.84375 117.5 C 210.503906 116.453125 213.25 115.773438 216.089844 115.449219 C 218.5 115.183594 220.847656 115.457031 223.128906 116.269531 C 228.664062 118.113281 233.824219 120.964844 239.199219 123.207031 C 242.378906 124.566406 245.648438 125.667969 249 126.515625 C 252.382812 127.339844 256.441406 128.152344 259.910156 127.4375 C 260.457031 127.320312 260.136719 126.675781 259.710938 126.628906 Z M 167.992188 153.355469 C 165.84375 154.609375 163.21875 155.3125 160.90625 156.21875 C 158.722656 157.070312 156.355469 157.765625 154.300781 158.902344 C 153.492188 159.347656 152.835938 159.824219 152.515625 160.691406 C 151.808594 162.601562 152.09375 165.019531 152.207031 166.996094 C 152.351562 169.484375 152.613281 171.964844 152.878906 174.445312 C 153.03125 175.898438 153.140625 177.410156 152.675781 178.828125 C 151.972656 180.972656 149.636719 182.011719 148.089844 179.925781 C 146.941406 177.917969 148.425781 175.554688 148.707031 173.464844 C 148.914062 171.902344 149.027344 170.335938 149.042969 168.757812 C 149.066406 166.878906 148.972656 164.996094 148.835938 163.121094 C 148.722656 161.582031 148.457031 160.246094 147.570312 158.960938 C 146.765625 157.789062 145.535156 156.746094 145.011719 155.417969 C 144.832031 154.957031 144.722656 154.480469 144.679688 153.984375 C 144.640625 153.492188 144.667969 153 144.769531 152.515625 C 144.871094 152.03125 145.035156 151.570312 145.269531 151.132812 C 145.503906 150.695312 145.792969 150.300781 146.140625 149.949219 C 147.601562 148.507812 149.699219 147.773438 151.53125 146.941406 C 153.621094 145.988281 155.722656 145.066406 157.816406 144.128906 C 161.71875 142.386719 165.621094 140.644531 169.523438 138.902344 C 169.605469 138.96875 169.695312 138.984375 169.792969 138.949219 L 169.800781 138.945312 C 169.082031 140.164062 168.597656 141.472656 168.347656 142.867188 C 168.09375 144.261719 168.09375 145.65625 168.339844 147.050781 C 168.519531 147.917969 168.769531 148.765625 169.089844 149.589844 C 169.683594 151.257812 169.574219 152.433594 167.992188 153.355469 Z M 210.980469 123.390625 C 212.523438 123.0625 214.0625 123.074219 215.195312 124.316406 C 215.617188 124.796875 215.929688 125.339844 216.132812 125.949219 C 216.335938 126.554688 216.414062 127.179688 216.367188 127.816406 C 216.324219 128.398438 216.195312 128.960938 215.972656 129.503906 C 213.59375 129.484375 211.210938 129.441406 208.867188 129.703125 C 206.515625 129.960938 204.121094 130.492188 202.109375 131.792969 C 200.171875 133.042969 198.53125 135.328125 199.109375 137.738281 C 199.195312 138.097656 199.328125 138.441406 199.503906 138.769531 C 194.890625 140.675781 190.285156 142.582031 185.675781 144.488281 C 180.65625 146.574219 175.609375 148.613281 170.726562 151.007812 C 170.570312 150.347656 170.363281 149.703125 170.105469 149.074219 C 169.777344 148.148438 169.570312 147.195312 169.488281 146.21875 C 169.40625 145.238281 169.453125 144.265625 169.625 143.296875 C 169.800781 142.332031 170.09375 141.402344 170.511719 140.515625 C 170.925781 139.625 171.449219 138.804688 172.082031 138.054688 C 173.675781 137.40625 175.253906 136.722656 176.84375 136.050781 C 180.851562 134.355469 184.90625 132.824219 188.992188 131.316406 C 193.910156 129.507812 198.714844 127.394531 203.644531 125.621094 C 206.039062 124.714844 208.484375 123.96875 210.976562 123.390625 Z M 210.980469 123.390625 " fill-opacity="1" fill-rule="nonzero"/></g><path fill="#000000" d="M 181.183594 225.507812 C 174.902344 225.445312 168.386719 225.46875 162.53125 228.066406 C 160.019531 229.222656 157.789062 230.78125 155.839844 232.742188 C 153.886719 234.707031 152.339844 236.945312 151.191406 239.46875 C 151.027344 239.570312 150.960938 239.714844 150.984375 239.90625 C 151.007812 240.097656 151.109375 240.222656 151.292969 240.28125 C 157.753906 242.117188 164.933594 242.21875 171.058594 239.175781 C 176.257812 236.589844 180.382812 231.832031 181.605469 226.085938 C 181.644531 225.941406 181.617188 225.8125 181.53125 225.695312 C 181.445312 225.578125 181.328125 225.511719 181.183594 225.507812 Z M 170.636719 238.378906 C 164.835938 241.257812 158.050781 241.199219 151.910156 239.527344 C 153.730469 238.3125 155.445312 237.015625 157.46875 236.101562 C 159.789062 235.054688 162.261719 234.550781 164.738281 234.050781 C 169.324219 233.128906 173.46875 231.648438 177.203125 228.753906 C 177.644531 228.410156 177.015625 227.769531 176.585938 228.097656 C 174.671875 229.597656 172.582031 230.785156 170.316406 231.667969 C 167.878906 232.605469 165.300781 233.066406 162.769531 233.664062 C 158.613281 234.648438 154.703125 236.453125 151.558594 239.429688 L 151.546875 239.425781 C 151.539062 239.421875 151.535156 239.421875 151.527344 239.421875 C 153.988281 234.5625 157.992188 230.601562 163.0625 228.546875 C 168.589844 226.304688 174.726562 226.339844 180.609375 226.398438 C 179.292969 231.664062 175.464844 235.980469 170.636719 238.378906 Z M 170.636719 238.378906 " fill-opacity="1" fill-rule="nonzero"/><path fill="#000000" d="M 151.421875 229.21875 C 149.539062 225.933594 145.6875 224.304688 142.015625 224.480469 C 141.949219 224.476562 141.898438 224.503906 141.863281 224.5625 C 141.828125 224.621094 141.824219 224.679688 141.855469 224.738281 C 143.402344 227.875 143.726562 231.4375 145.082031 234.660156 C 145.90625 236.621094 147.265625 238.601562 149.433594 239.046875 C 149.574219 239.160156 149.769531 239.21875 149.886719 239.117188 C 152.6875 236.691406 153.25 232.410156 151.421875 229.21875 Z M 149.449219 238.527344 C 147.925781 235.371094 148.527344 231.4375 146.546875 228.5 C 146.460938 228.375 146.097656 228.320312 146.207031 228.546875 C 147.792969 231.757812 147.414062 235.605469 149.265625 238.675781 C 146.234375 237.765625 145.222656 234.199219 144.472656 231.425781 C 144.113281 230.085938 143.832031 228.726562 143.433594 227.394531 C 143.332031 227.066406 142.507812 225.355469 142.605469 225.152344 C 142.8125 224.722656 144.148438 225.027344 144.605469 225.109375 C 147.714844 225.660156 150.664062 227.773438 151.539062 230.914062 C 152.296875 233.628906 151.558594 236.644531 149.449219 238.527344 Z M 149.449219 238.527344 " fill-opacity="1" fill-rule="nonzero"/></svg>