<svg xmlns="http://www.w3.org/2000/svg" xmlns:xlink="http://www.w3.org/1999/xlink" width="196" zoomAndPan="magnify" viewBox="0 0 147 148.499996" height="198" preserveAspectRatio="xMidYMid meet" version="1.0"><defs><clipPath id="0ef4d72b9d"><path d="M 0.445312 70 L 92 70 L 92 147.648438 L 0.445312 147.648438 Z M 0.445312 70 " clip-rule="nonzero"/></clipPath><clipPath id="4930381c4a"><path d="M 29 0.394531 L 146 0.394531 L 146 69 L 29 69 Z M 29 0.394531 " clip-rule="nonzero"/></clipPath><clipPath id="d8df5a5493"><path d="M 0.445312 70 L 92 70 L 92 147.648438 L 0.445312 147.648438 Z M 0.445312 70 " clip-rule="nonzero"/></clipPath><clipPath id="01f93d22d1"><path d="M 29 0.394531 L 146 0.394531 L 146 69 L 29 69 Z M 29 0.394531 " clip-rule="nonzero"/></clipPath></defs><g clip-path="url(#0ef4d72b9d)"><path fill="#000000" d="M 89.445312 92.960938 C 88.628906 90.679688 87.21875 89.253906 85.144531 88.097656 C 84.621094 87.808594 83.617188 87.421875 83.347656 86.898438 C 83.085938 86.390625 83.289062 86.25 83.515625 85.753906 C 83.917969 84.820312 84.207031 83.855469 84.386719 82.859375 C 84.753906 80.804688 84.863281 78.738281 84.710938 76.65625 C 84.605469 74.921875 84.679688 71.535156 82.425781 71.289062 C 80.363281 71.0625 78.273438 71.039062 76.203125 70.992188 C 68.640625 70.824219 61.074219 70.886719 53.511719 70.941406 C 44.789062 71.003906 36.066406 71.113281 27.34375 71.210938 C 23.832031 71.25 20.320312 71.285156 16.808594 71.3125 C 15.230469 71.324219 13.621094 71.238281 12.046875 71.363281 C 9.914062 71.527344 8.605469 72.40625 7.984375 74.464844 C 7.269531 76.84375 7.507812 78.941406 8.21875 81.273438 C 8.660156 82.714844 9.402344 84.753906 8.445312 86.152344 C 7.679688 87.269531 6.140625 87.4375 5.117188 88.234375 C 3.121094 89.789062 3.152344 92.800781 2.949219 95.078125 C 2.625 98.667969 2.335938 102.261719 2.085938 105.859375 C 1.582031 112.96875 1.226562 120.082031 1.015625 127.203125 C 0.925781 130.300781 0.445312 133.804688 1.332031 136.824219 C 1.953125 138.929688 3.386719 140.601562 5.203125 141.785156 C 7.222656 143.066406 9.402344 143.96875 11.734375 144.496094 C 25.042969 147.492188 39.054688 147.007812 52.609375 147.234375 C 59.460938 147.347656 66.363281 147.597656 73.1875 146.828125 C 78.640625 146.214844 85.113281 144.832031 89.03125 140.632812 C 90.980469 138.542969 91.039062 135.917969 91.042969 133.203125 C 91.042969 129.523438 91.042969 125.847656 91.042969 122.171875 C 91.042969 115.476562 91.265625 108.730469 90.859375 102.042969 C 90.679688 99.023438 90.46875 95.828125 89.445312 92.960938 Z M 90.183594 135.308594 C 90.035156 137.496094 89.285156 139.300781 87.621094 140.753906 C 86.054688 142.066406 84.320312 143.097656 82.417969 143.847656 C 78.511719 145.464844 74.257812 146.054688 70.066406 146.355469 C 60.886719 147.011719 51.59375 146.472656 42.402344 146.304688 C 32.140625 146.117188 21.667969 146.011719 11.609375 143.75 C 8.152344 142.90625 4.226562 141.664062 2.480469 138.285156 C 1.539062 136.46875 1.5 134.394531 1.539062 132.394531 C 1.582031 130.199219 1.667969 128.003906 1.753906 125.8125 C 2.09375 117.132812 2.621094 108.464844 3.339844 99.808594 C 3.511719 97.78125 3.679688 95.753906 3.886719 93.730469 C 4.0625 91.996094 4.28125 89.96875 5.753906 88.8125 C 6.738281 88.039062 8.117188 87.863281 8.972656 86.902344 C 9.839844 85.925781 9.789062 84.566406 9.542969 83.339844 C 14.265625 84.445312 19.195312 84.199219 24.027344 84.402344 C 24.410156 84.417969 24.300781 83.925781 23.984375 83.910156 C 19.085938 83.6875 14.1875 83.441406 9.359375 82.53125 C 8.957031 80.992188 8.3125 79.523438 8.339844 77.910156 C 8.339844 77.898438 8.339844 77.890625 8.339844 77.878906 C 12.105469 79.035156 16.097656 79.355469 20.023438 79.308594 C 22.117188 79.28125 24.207031 79.152344 26.292969 78.976562 C 28.183594 78.816406 30.25 78.800781 32.085938 78.324219 C 32.222656 78.285156 32.285156 78.195312 32.269531 78.050781 C 32.253906 77.910156 32.171875 77.835938 32.03125 77.832031 C 30.289062 77.757812 28.480469 78.128906 26.742188 78.277344 C 24.597656 78.464844 22.445312 78.601562 20.292969 78.636719 C 16.269531 78.710938 12.289062 78.324219 8.351562 77.476562 C 8.410156 76.160156 8.65625 74.65625 9.339844 73.558594 C 10.65625 71.441406 14.128906 72.035156 16.332031 72.023438 C 35.542969 71.902344 54.757812 71.367188 73.964844 71.632812 C 75.804688 71.65625 77.644531 71.691406 79.484375 71.765625 C 80.527344 71.804688 81.960938 71.660156 82.964844 72.003906 C 83.007812 72.015625 83.039062 72.03125 83.058594 72.039062 C 83.140625 72.167969 83.203125 72.308594 83.242188 72.457031 C 83.367188 72.882812 83.492188 73.296875 83.578125 73.734375 C 83.765625 74.730469 83.878906 75.734375 83.921875 76.75 C 82.355469 76.707031 80.757812 77.054688 79.207031 77.230469 C 77.429688 77.433594 75.640625 77.539062 73.871094 77.777344 C 73.578125 77.816406 73.753906 78.195312 73.992188 78.183594 C 75.773438 78.109375 77.558594 77.855469 79.328125 77.632812 C 80.835938 77.441406 82.484375 77.578125 83.9375 77.101562 C 83.941406 77.21875 83.949219 77.335938 83.953125 77.453125 C 84.027344 79.214844 83.90625 80.957031 83.585938 82.691406 C 80.277344 82.742188 76.910156 83.300781 73.613281 83.5625 C 69.910156 83.859375 66.253906 84.199219 62.550781 83.757812 C 62.179688 83.710938 62.109375 84.300781 62.464844 84.378906 C 65.753906 85.128906 69.378906 84.523438 72.699219 84.242188 C 76.242188 83.9375 80 83.824219 83.5 83.082031 C 83.253906 84.210938 82.832031 85.273438 82.242188 86.265625 C 82.1875 86.386719 82.203125 86.496094 82.292969 86.59375 C 83.191406 87.765625 84.453125 88.320312 85.6875 89.0625 C 87.621094 90.214844 88.578125 92.15625 89.113281 94.28125 C 90.203125 98.601562 90.25 103.222656 90.273438 107.652344 C 90.300781 112.292969 90.261719 116.9375 90.253906 121.582031 C 90.242188 126.128906 90.488281 130.769531 90.183594 135.308594 Z M 90.183594 135.308594 " fill-opacity="1" fill-rule="nonzero"/></g><path fill="#000000" d="M 76.785156 97.578125 C 73.023438 96.898438 69.101562 97.089844 65.304688 97.332031 C 61.109375 97.601562 56.929688 97.914062 52.722656 97.964844 C 44.675781 98.054688 36.636719 97.609375 28.589844 97.738281 C 24.640625 97.78125 20.699219 98.023438 16.773438 98.476562 C 14.519531 98.746094 11.605469 98.535156 10.226562 100.636719 C 8.03125 103.988281 7.566406 108.757812 7.414062 112.675781 C 7.261719 116.617188 7.363281 120.550781 7.71875 124.476562 C 8.015625 127.726562 8.582031 130.898438 11.277344 133.027344 C 13.820312 135.035156 17.230469 135.921875 20.351562 136.515625 C 24.046875 137.21875 27.820312 137.359375 31.574219 137.378906 C 40.484375 137.425781 49.429688 137.367188 58.320312 136.714844 C 62.757812 136.390625 67.1875 135.902344 71.574219 135.164062 C 75.074219 134.578125 79.796875 134.382812 82.511719 131.820312 C 82.542969 131.800781 82.574219 131.773438 82.601562 131.742188 C 84.789062 129.304688 84.363281 125.820312 84.378906 122.777344 C 84.402344 118.609375 84.425781 114.441406 84.449219 110.273438 C 84.460938 107.539062 84.484375 104.628906 83.320312 102.089844 C 82.085938 99.390625 79.601562 98.085938 76.785156 97.578125 Z M 83.492188 119.433594 C 83.480469 121.429688 83.476562 123.421875 83.457031 125.414062 C 83.4375 127.429688 83.503906 129.734375 82.066406 131.296875 C 79.5 133.589844 75.414062 133.835938 72.167969 134.378906 C 68.5625 134.980469 64.933594 135.410156 61.292969 135.714844 C 54.027344 136.328125 46.730469 136.460938 39.445312 136.507812 C 32.328125 136.550781 24.902344 136.980469 17.964844 135.097656 C 14.871094 134.257812 11.285156 132.992188 9.773438 129.910156 C 8.964844 128.253906 8.785156 126.363281 8.613281 124.558594 C 8.4375 122.683594 8.316406 120.808594 8.257812 118.929688 C 8.101562 114.0625 8.203125 109.214844 9.578125 104.519531 C 10.019531 103.015625 10.632812 100.617188 12.265625 100.007812 C 13.832031 99.425781 15.894531 99.421875 17.546875 99.230469 C 19.402344 99.019531 21.261719 98.867188 23.125 98.761719 C 30.492188 98.339844 37.871094 98.632812 45.238281 98.757812 C 52.507812 98.882812 59.671875 98.46875 66.921875 98.085938 C 70.71875 97.882812 75.175781 97.578125 78.808594 98.949219 C 82.515625 100.347656 83.390625 104.058594 83.527344 107.648438 C 83.679688 111.566406 83.515625 115.515625 83.492188 119.433594 Z M 83.492188 119.433594 " fill-opacity="1" fill-rule="nonzero"/><g clip-path="url(#4930381c4a)"><path fill="#000000" d="M 145.46875 13.335938 C 142.035156 12.972656 138.6875 12.921875 135.300781 12.121094 C 132 11.300781 128.792969 10.210938 125.671875 8.855469 C 120.234375 6.566406 115.035156 3.644531 109.453125 1.710938 C 107.253906 0.949219 105.125 0.453125 102.789062 0.550781 C 99.992188 0.703125 97.257812 1.207031 94.585938 2.058594 C 92.511719 2.714844 90.644531 3.75 88.980469 5.15625 C 87.890625 6.050781 81.214844 12.886719 78.5625 15.476562 C 71.90625 18.136719 65.066406 20.488281 58.617188 23.628906 C 58.441406 23.328125 58.023438 23.105469 57.71875 23.246094 C 53.140625 25.324219 48.5625 27.402344 43.984375 29.480469 C 41.652344 30.539062 39.328125 31.609375 36.988281 32.648438 C 35.136719 33.476562 33.046875 34.1875 31.511719 35.558594 C 29.128906 37.683594 28.941406 41.371094 30.964844 43.8125 C 32.0625 45.132812 33.210938 46.363281 33.507812 48.121094 C 33.847656 50.128906 33.855469 52.273438 33.871094 54.308594 C 33.921875 56.410156 33.761719 58.5 33.394531 60.574219 C 32.964844 62.777344 32.273438 64.5625 33.4375 66.640625 C 33.484375 66.722656 33.539062 66.796875 33.597656 66.871094 C 34.503906 68.015625 36.128906 68.660156 37.574219 68.027344 C 39.421875 67.226562 39.953125 65.035156 39.992188 63.207031 C 40.089844 58.953125 39.117188 54.710938 39.300781 50.4375 C 39.339844 49.554688 39.367188 48.53125 39.730469 47.710938 C 40.355469 46.308594 42.371094 45.855469 43.671875 45.355469 L 51.960938 42.164062 C 53.570312 41.546875 56.042969 40.933594 56.691406 39.078125 C 56.726562 38.96875 56.757812 38.859375 56.777344 38.746094 C 58.464844 37.933594 60.257812 37.316406 61.976562 36.582031 C 65.042969 35.273438 68.117188 33.976562 71.199219 32.699219 C 76.199219 30.617188 81.203125 28.546875 86.214844 26.484375 C 87.339844 27.609375 88.6875 28.308594 90.257812 28.578125 C 91.773438 28.859375 93.3125 28.734375 94.84375 28.710938 C 96.609375 28.695312 98.363281 28.835938 100.101562 29.136719 C 103.34375 29.675781 106.507812 30.585938 109.722656 31.242188 C 112.941406 31.902344 116.191406 32.152344 119.476562 31.992188 C 126.78125 31.632812 134.789062 29.6875 141.53125 33.554688 C 142.132812 33.902344 142.550781 33.257812 141.945312 32.890625 C 137.257812 30.03125 131.703125 29.746094 126.359375 30.027344 C 123.140625 30.195312 119.933594 30.589844 116.707031 30.570312 C 113.5 30.546875 110.382812 29.949219 107.277344 29.207031 C 104.449219 28.542969 101.59375 28.027344 98.714844 27.664062 C 97.378906 27.535156 96.039062 27.480469 94.695312 27.507812 C 93.003906 27.492188 90.8125 27.679688 89.167969 27.195312 C 88.433594 26.996094 87.820312 26.605469 87.335938 26.019531 C 87.066406 25.683594 86.871094 25.3125 86.75 24.898438 C 86.257812 23.253906 86.964844 21.207031 88.433594 20.078125 C 90.421875 18.578125 92.648438 17.660156 95.113281 17.320312 C 97.203125 17.121094 99.296875 17.058594 101.394531 17.128906 C 101.90625 17.136719 102.414062 17.140625 102.921875 17.148438 C 105.800781 17.179688 108.675781 17.144531 111.386719 16.472656 C 112.421875 16.214844 111.347656 15.300781 110.535156 15.5 C 108.164062 16.078125 105.742188 16.191406 103.304688 16.199219 C 103.417969 15.847656 103.5 15.488281 103.554688 15.125 C 103.695312 14.167969 103.613281 13.234375 103.3125 12.316406 C 103.011719 11.398438 102.519531 10.597656 101.839844 9.914062 C 99.957031 8.105469 97.484375 8.5625 95.203125 9.207031 C 90.636719 10.496094 86.261719 12.300781 81.886719 14.117188 C 83.136719 12.898438 84.386719 11.679688 85.636719 10.460938 C 86.886719 9.246094 88.128906 8.023438 89.398438 6.832031 C 90.679688 5.632812 92.144531 4.871094 93.773438 4.234375 C 96.425781 3.195312 99.164062 2.511719 101.992188 2.195312 C 104.394531 1.929688 106.734375 2.199219 109.011719 3.007812 C 114.527344 4.847656 119.667969 7.6875 125.023438 9.921875 C 128.195312 11.277344 131.453125 12.378906 134.792969 13.222656 C 138.164062 14.042969 142.210938 14.851562 145.667969 14.136719 C 146.210938 14.023438 145.890625 13.378906 145.46875 13.335938 Z M 54.058594 39.972656 C 51.914062 41.222656 49.300781 41.921875 46.992188 42.824219 C 44.820312 43.675781 42.460938 44.367188 40.410156 45.5 C 39.605469 45.945312 38.953125 46.417969 38.632812 47.285156 C 37.925781 49.1875 38.210938 51.59375 38.324219 53.566406 C 38.46875 56.046875 38.730469 58.519531 38.992188 60.988281 C 39.148438 62.441406 39.257812 63.941406 38.792969 65.355469 C 38.09375 67.496094 35.765625 68.53125 34.222656 66.453125 C 33.078125 64.449219 34.558594 62.097656 34.835938 60.011719 C 35.042969 58.457031 35.15625 56.894531 35.171875 55.324219 C 35.199219 53.449219 35.101562 51.574219 34.964844 49.707031 C 34.855469 48.167969 34.585938 46.835938 33.703125 45.554688 C 32.902344 44.386719 31.675781 43.351562 31.152344 42.027344 C 30.972656 41.566406 30.863281 41.089844 30.824219 40.597656 C 30.78125 40.105469 30.8125 39.617188 30.914062 39.132812 C 31.011719 38.652344 31.179688 38.191406 31.414062 37.757812 C 31.644531 37.320312 31.933594 36.925781 32.28125 36.574219 C 33.734375 35.136719 35.824219 34.410156 37.652344 33.578125 C 39.734375 32.628906 41.828125 31.710938 43.917969 30.777344 C 47.808594 29.039062 51.695312 27.304688 55.585938 25.566406 C 55.664062 25.632812 55.753906 25.648438 55.851562 25.613281 L 55.859375 25.609375 C 55.144531 26.824219 54.660156 28.128906 54.410156 29.515625 C 54.160156 30.90625 54.160156 32.296875 54.40625 33.6875 C 54.585938 34.550781 54.835938 35.394531 55.152344 36.21875 C 55.742188 37.878906 55.636719 39.050781 54.058594 39.972656 Z M 96.902344 10.109375 C 98.4375 9.78125 99.976562 9.792969 101.105469 11.027344 C 101.523438 11.507812 101.832031 12.050781 102.035156 12.65625 C 102.238281 13.261719 102.316406 13.882812 102.269531 14.515625 C 102.226562 15.097656 102.097656 15.660156 101.875 16.199219 C 99.503906 16.183594 97.132812 16.136719 94.796875 16.394531 C 92.453125 16.65625 90.0625 17.183594 88.058594 18.480469 C 86.128906 19.726562 84.496094 22.003906 85.070312 24.40625 C 85.15625 24.765625 85.289062 25.109375 85.464844 25.433594 C 80.867188 27.332031 76.273438 29.234375 71.683594 31.132812 C 66.679688 33.214844 61.648438 35.242188 56.78125 37.628906 C 56.625 36.972656 56.421875 36.328125 56.164062 35.703125 C 55.835938 34.78125 55.628906 33.832031 55.550781 32.855469 C 55.46875 31.882812 55.511719 30.910156 55.6875 29.949219 C 55.859375 28.984375 56.152344 28.058594 56.566406 27.171875 C 56.984375 26.285156 57.503906 25.46875 58.132812 24.71875 C 59.722656 24.074219 61.292969 23.390625 62.878906 22.722656 C 66.875 21.035156 70.914062 19.507812 74.988281 18.007812 C 79.890625 16.203125 84.675781 14.097656 89.589844 12.332031 C 91.976562 11.425781 94.414062 10.683594 96.898438 10.109375 Z M 96.902344 10.109375 " fill-opacity="1" fill-rule="nonzero"/></g><path fill="#000000" d="M 67.207031 111.878906 C 60.945312 111.820312 54.449219 111.839844 48.617188 114.433594 C 46.113281 115.585938 43.890625 117.136719 41.945312 119.09375 C 40 121.046875 38.457031 123.28125 37.316406 125.792969 C 37.152344 125.894531 37.082031 126.039062 37.105469 126.230469 C 37.128906 126.421875 37.234375 126.546875 37.417969 126.605469 C 43.851562 128.4375 51.011719 128.535156 57.113281 125.5 C 62.296875 122.925781 66.40625 118.183594 67.625 112.457031 C 67.664062 112.316406 67.636719 112.183594 67.550781 112.066406 C 67.464844 111.949219 67.351562 111.886719 67.207031 111.878906 Z M 56.691406 124.707031 C 50.914062 127.578125 44.148438 127.519531 38.03125 125.851562 C 39.84375 124.640625 41.554688 123.347656 43.570312 122.4375 C 45.878906 121.398438 48.347656 120.894531 50.816406 120.398438 C 55.382812 119.476562 59.519531 118 63.238281 115.117188 C 63.679688 114.773438 63.050781 114.132812 62.621094 114.464844 C 60.714844 115.957031 58.632812 117.140625 56.375 118.019531 C 53.945312 118.953125 51.375 119.417969 48.851562 120.011719 C 44.710938 120.992188 40.8125 122.789062 37.679688 125.753906 L 37.667969 125.75 C 37.660156 125.75 37.652344 125.75 37.648438 125.746094 C 40.101562 120.90625 44.089844 116.957031 49.144531 114.910156 C 54.65625 112.675781 60.769531 112.710938 66.632812 112.765625 C 65.320312 118.019531 61.507812 122.316406 56.691406 124.707031 Z M 56.691406 124.707031 " fill-opacity="1" fill-rule="nonzero"/><path fill="#000000" d="M 37.542969 115.582031 C 35.664062 112.308594 31.824219 110.683594 28.167969 110.859375 C 28.101562 110.855469 28.050781 110.882812 28.015625 110.9375 C 27.980469 110.996094 27.976562 111.054688 28.011719 111.113281 C 29.550781 114.238281 29.875 117.792969 31.222656 121 C 32.046875 122.957031 33.398438 124.929688 35.5625 125.375 C 35.699219 125.488281 35.898438 125.546875 36.015625 125.445312 C 38.804688 123.027344 39.363281 118.761719 37.542969 115.582031 Z M 35.578125 124.859375 C 34.058594 121.710938 34.65625 117.789062 32.683594 114.863281 C 32.601562 114.738281 32.238281 114.683594 32.347656 114.910156 C 33.925781 118.113281 33.546875 121.945312 35.394531 125.003906 C 32.375 124.097656 31.367188 120.546875 30.617188 117.78125 C 30.257812 116.445312 29.980469 115.089844 29.578125 113.761719 C 29.480469 113.433594 28.65625 111.726562 28.753906 111.523438 C 28.960938 111.097656 30.292969 111.402344 30.75 111.484375 C 33.847656 112.03125 36.785156 114.140625 37.660156 117.269531 C 38.414062 119.972656 37.679688 122.980469 35.578125 124.859375 Z M 35.578125 124.859375 " fill-opacity="1" fill-rule="nonzero"/><g clip-path="url(#d8df5a5493)"><path fill="#000000" d="M 89.445312 92.960938 C 88.628906 90.679688 87.21875 89.253906 85.144531 88.097656 C 84.621094 87.808594 83.617188 87.421875 83.347656 86.898438 C 83.085938 86.390625 83.289062 86.25 83.515625 85.753906 C 83.917969 84.820312 84.207031 83.855469 84.386719 82.859375 C 84.753906 80.804688 84.863281 78.738281 84.710938 76.65625 C 84.605469 74.921875 84.679688 71.535156 82.425781 71.289062 C 80.363281 71.0625 78.273438 71.039062 76.203125 70.992188 C 68.640625 70.824219 61.074219 70.886719 53.511719 70.941406 C 44.789062 71.003906 36.066406 71.113281 27.34375 71.210938 C 23.832031 71.25 20.320312 71.285156 16.808594 71.3125 C 15.230469 71.324219 13.621094 71.238281 12.046875 71.363281 C 9.914062 71.527344 8.605469 72.40625 7.984375 74.464844 C 7.269531 76.84375 7.507812 78.941406 8.21875 81.273438 C 8.660156 82.714844 9.402344 84.753906 8.445312 86.152344 C 7.679688 87.269531 6.140625 87.4375 5.117188 88.234375 C 3.121094 89.789062 3.152344 92.800781 2.949219 95.078125 C 2.625 98.667969 2.335938 102.261719 2.085938 105.859375 C 1.582031 112.96875 1.226562 120.082031 1.015625 127.203125 C 0.925781 130.300781 0.445312 133.804688 1.332031 136.824219 C 1.953125 138.929688 3.386719 140.601562 5.203125 141.785156 C 7.222656 143.066406 9.402344 143.96875 11.734375 144.496094 C 25.042969 147.492188 39.054688 147.007812 52.609375 147.234375 C 59.460938 147.347656 66.363281 147.597656 73.1875 146.828125 C 78.640625 146.214844 85.113281 144.832031 89.03125 140.632812 C 90.980469 138.542969 91.039062 135.917969 91.042969 133.203125 C 91.042969 129.523438 91.042969 125.847656 91.042969 122.171875 C 91.042969 115.476562 91.265625 108.730469 90.859375 102.042969 C 90.679688 99.023438 90.46875 95.828125 89.445312 92.960938 Z M 90.183594 135.308594 C 90.035156 137.496094 89.285156 139.300781 87.621094 140.753906 C 86.054688 142.066406 84.320312 143.097656 82.417969 143.847656 C 78.511719 145.464844 74.257812 146.054688 70.066406 146.355469 C 60.886719 147.011719 51.59375 146.472656 42.402344 146.304688 C 32.140625 146.117188 21.667969 146.011719 11.609375 143.75 C 8.152344 142.90625 4.226562 141.664062 2.480469 138.285156 C 1.539062 136.46875 1.5 134.394531 1.539062 132.394531 C 1.582031 130.199219 1.667969 128.003906 1.753906 125.8125 C 2.09375 117.132812 2.621094 108.464844 3.339844 99.808594 C 3.511719 97.78125 3.679688 95.753906 3.886719 93.730469 C 4.0625 91.996094 4.28125 89.96875 5.753906 88.8125 C 6.738281 88.039062 8.117188 87.863281 8.972656 86.902344 C 9.839844 85.925781 9.789062 84.566406 9.542969 83.339844 C 14.265625 84.445312 19.195312 84.199219 24.027344 84.402344 C 24.410156 84.417969 24.300781 83.925781 23.984375 83.910156 C 19.085938 83.6875 14.1875 83.441406 9.359375 82.53125 C 8.957031 80.992188 8.3125 79.523438 8.339844 77.910156 C 8.339844 77.898438 8.339844 77.890625 8.339844 77.878906 C 12.105469 79.035156 16.097656 79.355469 20.023438 79.308594 C 22.117188 79.28125 24.207031 79.152344 26.292969 78.976562 C 28.183594 78.816406 30.25 78.800781 32.085938 78.324219 C 32.222656 78.285156 32.285156 78.195312 32.269531 78.050781 C 32.253906 77.910156 32.171875 77.835938 32.03125 77.832031 C 30.289062 77.757812 28.480469 78.128906 26.742188 78.277344 C 24.597656 78.464844 22.445312 78.601562 20.292969 78.636719 C 16.269531 78.710938 12.289062 78.324219 8.351562 77.476562 C 8.410156 76.160156 8.65625 74.65625 9.339844 73.558594 C 10.65625 71.441406 14.128906 72.035156 16.332031 72.023438 C 35.542969 71.902344 54.757812 71.367188 73.964844 71.632812 C 75.804688 71.65625 77.644531 71.691406 79.484375 71.765625 C 80.527344 71.804688 81.960938 71.660156 82.964844 72.003906 C 83.007812 72.015625 83.039062 72.03125 83.058594 72.039062 C 83.140625 72.167969 83.203125 72.308594 83.242188 72.457031 C 83.367188 72.882812 83.492188 73.296875 83.578125 73.734375 C 83.765625 74.730469 83.878906 75.734375 83.921875 76.75 C 82.355469 76.707031 80.757812 77.054688 79.207031 77.230469 C 77.429688 77.433594 75.640625 77.539062 73.871094 77.777344 C 73.578125 77.816406 73.753906 78.195312 73.992188 78.183594 C 75.773438 78.109375 77.558594 77.855469 79.328125 77.632812 C 80.835938 77.441406 82.484375 77.578125 83.9375 77.101562 C 83.941406 77.21875 83.949219 77.335938 83.953125 77.453125 C 84.027344 79.214844 83.90625 80.957031 83.585938 82.691406 C 80.277344 82.742188 76.910156 83.300781 73.613281 83.5625 C 69.910156 83.859375 66.253906 84.199219 62.550781 83.757812 C 62.179688 83.710938 62.109375 84.300781 62.464844 84.378906 C 65.753906 85.128906 69.378906 84.523438 72.699219 84.242188 C 76.242188 83.9375 80 83.824219 83.5 83.082031 C 83.253906 84.210938 82.832031 85.273438 82.242188 86.265625 C 82.1875 86.386719 82.203125 86.496094 82.292969 86.59375 C 83.191406 87.765625 84.453125 88.320312 85.6875 89.0625 C 87.621094 90.214844 88.578125 92.15625 89.113281 94.28125 C 90.203125 98.601562 90.25 103.222656 90.273438 107.652344 C 90.300781 112.292969 90.261719 116.9375 90.253906 121.582031 C 90.242188 126.128906 90.488281 130.769531 90.183594 135.308594 Z M 90.183594 135.308594 " fill-opacity="1" fill-rule="nonzero"/></g><path fill="#000000" d="M 76.785156 97.578125 C 73.023438 96.898438 69.101562 97.089844 65.304688 97.332031 C 61.109375 97.601562 56.929688 97.914062 52.722656 97.964844 C 44.675781 98.054688 36.636719 97.609375 28.589844 97.738281 C 24.640625 97.78125 20.699219 98.023438 16.773438 98.476562 C 14.519531 98.746094 11.605469 98.535156 10.226562 100.636719 C 8.03125 103.988281 7.566406 108.757812 7.414062 112.675781 C 7.261719 116.617188 7.363281 120.550781 7.71875 124.476562 C 8.015625 127.726562 8.582031 130.898438 11.277344 133.027344 C 13.820312 135.035156 17.230469 135.921875 20.351562 136.515625 C 24.046875 137.21875 27.820312 137.359375 31.574219 137.378906 C 40.484375 137.425781 49.429688 137.367188 58.320312 136.714844 C 62.757812 136.390625 67.1875 135.902344 71.574219 135.164062 C 75.074219 134.578125 79.796875 134.382812 82.511719 131.820312 C 82.542969 131.800781 82.574219 131.773438 82.601562 131.742188 C 84.789062 129.304688 84.363281 125.820312 84.378906 122.777344 C 84.402344 118.609375 84.425781 114.441406 84.449219 110.273438 C 84.460938 107.539062 84.484375 104.628906 83.320312 102.089844 C 82.085938 99.390625 79.601562 98.085938 76.785156 97.578125 Z M 83.492188 119.433594 C 83.480469 121.429688 83.476562 123.421875 83.457031 125.414062 C 83.4375 127.429688 83.503906 129.734375 82.066406 131.296875 C 79.5 133.589844 75.414062 133.835938 72.167969 134.378906 C 68.5625 134.980469 64.933594 135.410156 61.292969 135.714844 C 54.027344 136.328125 46.730469 136.460938 39.445312 136.507812 C 32.328125 136.550781 24.902344 136.980469 17.964844 135.097656 C 14.871094 134.257812 11.285156 132.992188 9.773438 129.910156 C 8.964844 128.253906 8.785156 126.363281 8.613281 124.558594 C 8.4375 122.683594 8.316406 120.808594 8.257812 118.929688 C 8.101562 114.0625 8.203125 109.214844 9.578125 104.519531 C 10.019531 103.015625 10.632812 100.617188 12.265625 100.007812 C 13.832031 99.425781 15.894531 99.421875 17.546875 99.230469 C 19.402344 99.019531 21.261719 98.867188 23.125 98.761719 C 30.492188 98.339844 37.871094 98.632812 45.238281 98.757812 C 52.507812 98.882812 59.671875 98.46875 66.921875 98.085938 C 70.71875 97.882812 75.175781 97.578125 78.808594 98.949219 C 82.515625 100.347656 83.390625 104.058594 83.527344 107.648438 C 83.679688 111.566406 83.515625 115.515625 83.492188 119.433594 Z M 83.492188 119.433594 " fill-opacity="1" fill-rule="nonzero"/><g clip-path="url(#01f93d22d1)"><path fill="#000000" d="M 145.46875 13.335938 C 142.035156 12.972656 138.6875 12.921875 135.300781 12.121094 C 132 11.300781 128.792969 10.210938 125.671875 8.855469 C 120.234375 6.566406 115.035156 3.644531 109.453125 1.710938 C 107.253906 0.949219 105.125 0.453125 102.789062 0.550781 C 99.992188 0.703125 97.257812 1.207031 94.585938 2.058594 C 92.511719 2.714844 90.644531 3.75 88.980469 5.15625 C 87.890625 6.050781 81.214844 12.886719 78.5625 15.476562 C 71.90625 18.136719 65.066406 20.488281 58.617188 23.628906 C 58.441406 23.328125 58.023438 23.105469 57.71875 23.246094 C 53.140625 25.324219 48.5625 27.402344 43.984375 29.480469 C 41.652344 30.539062 39.328125 31.609375 36.988281 32.648438 C 35.136719 33.476562 33.046875 34.1875 31.511719 35.558594 C 29.128906 37.683594 28.941406 41.371094 30.964844 43.8125 C 32.0625 45.132812 33.210938 46.363281 33.507812 48.121094 C 33.847656 50.128906 33.855469 52.273438 33.871094 54.308594 C 33.921875 56.410156 33.761719 58.5 33.394531 60.574219 C 32.964844 62.777344 32.273438 64.5625 33.4375 66.640625 C 33.484375 66.722656 33.539062 66.796875 33.597656 66.871094 C 34.503906 68.015625 36.128906 68.660156 37.574219 68.027344 C 39.421875 67.226562 39.953125 65.035156 39.992188 63.207031 C 40.089844 58.953125 39.117188 54.710938 39.300781 50.4375 C 39.339844 49.554688 39.367188 48.53125 39.730469 47.710938 C 40.355469 46.308594 42.371094 45.855469 43.671875 45.355469 L 51.960938 42.164062 C 53.570312 41.546875 56.042969 40.933594 56.691406 39.078125 C 56.726562 38.96875 56.757812 38.859375 56.777344 38.746094 C 58.464844 37.933594 60.257812 37.316406 61.976562 36.582031 C 65.042969 35.273438 68.117188 33.976562 71.199219 32.699219 C 76.199219 30.617188 81.203125 28.546875 86.214844 26.484375 C 87.339844 27.609375 88.6875 28.308594 90.257812 28.578125 C 91.773438 28.859375 93.3125 28.734375 94.84375 28.710938 C 96.609375 28.695312 98.363281 28.835938 100.101562 29.136719 C 103.34375 29.675781 106.507812 30.585938 109.722656 31.242188 C 112.941406 31.902344 116.191406 32.152344 119.476562 31.992188 C 126.78125 31.632812 134.789062 29.6875 141.53125 33.554688 C 142.132812 33.902344 142.550781 33.257812 141.945312 32.890625 C 137.257812 30.03125 131.703125 29.746094 126.359375 30.027344 C 123.140625 30.195312 119.933594 30.589844 116.707031 30.570312 C 113.5 30.546875 110.382812 29.949219 107.277344 29.207031 C 104.449219 28.542969 101.59375 28.027344 98.714844 27.664062 C 97.378906 27.535156 96.039062 27.480469 94.695312 27.507812 C 93.003906 27.492188 90.8125 27.679688 89.167969 27.195312 C 88.433594 26.996094 87.820312 26.605469 87.335938 26.019531 C 87.066406 25.683594 86.871094 25.3125 86.75 24.898438 C 86.257812 23.253906 86.964844 21.207031 88.433594 20.078125 C 90.421875 18.578125 92.648438 17.660156 95.113281 17.320312 C 97.203125 17.121094 99.296875 17.058594 101.394531 17.128906 C 101.90625 17.136719 102.414062 17.140625 102.921875 17.148438 C 105.800781 17.179688 108.675781 17.144531 111.386719 16.472656 C 112.421875 16.214844 111.347656 15.300781 110.535156 15.5 C 108.164062 16.078125 105.742188 16.191406 103.304688 16.199219 C 103.417969 15.847656 103.5 15.488281 103.554688 15.125 C 103.695312 14.167969 103.613281 13.234375 103.3125 12.316406 C 103.011719 11.398438 102.519531 10.597656 101.839844 9.914062 C 99.957031 8.105469 97.484375 8.5625 95.203125 9.207031 C 90.636719 10.496094 86.261719 12.300781 81.886719 14.117188 C 83.136719 12.898438 84.386719 11.679688 85.636719 10.460938 C 86.886719 9.246094 88.128906 8.023438 89.398438 6.832031 C 90.679688 5.632812 92.144531 4.871094 93.773438 4.234375 C 96.425781 3.195312 99.164062 2.511719 101.992188 2.195312 C 104.394531 1.929688 106.734375 2.199219 109.011719 3.007812 C 114.527344 4.847656 119.667969 7.6875 125.023438 9.921875 C 128.195312 11.277344 131.453125 12.378906 134.792969 13.222656 C 138.164062 14.042969 142.210938 14.851562 145.667969 14.136719 C 146.210938 14.023438 145.890625 13.378906 145.46875 13.335938 Z M 54.058594 39.972656 C 51.914062 41.222656 49.300781 41.921875 46.992188 42.824219 C 44.820312 43.675781 42.460938 44.367188 40.410156 45.5 C 39.605469 45.945312 38.953125 46.417969 38.632812 47.285156 C 37.925781 49.1875 38.210938 51.59375 38.324219 53.566406 C 38.46875 56.046875 38.730469 58.519531 38.992188 60.988281 C 39.148438 62.441406 39.257812 63.941406 38.792969 65.355469 C 38.09375 67.496094 35.765625 68.53125 34.222656 66.453125 C 33.078125 64.449219 34.558594 62.097656 34.835938 60.011719 C 35.042969 58.457031 35.15625 56.894531 35.171875 55.324219 C 35.199219 53.449219 35.101562 51.574219 34.964844 49.707031 C 34.855469 48.167969 34.585938 46.835938 33.703125 45.554688 C 32.902344 44.386719 31.675781 43.351562 31.152344 42.027344 C 30.972656 41.566406 30.863281 41.089844 30.824219 40.597656 C 30.78125 40.105469 30.8125 39.617188 30.914062 39.132812 C 31.011719 38.652344 31.179688 38.191406 31.414062 37.757812 C 31.644531 37.320312 31.933594 36.925781 32.28125 36.574219 C 33.734375 35.136719 35.824219 34.410156 37.652344 33.578125 C 39.734375 32.628906 41.828125 31.710938 43.917969 30.777344 C 47.808594 29.039062 51.695312 27.304688 55.585938 25.566406 C 55.664062 25.632812 55.753906 25.648438 55.851562 25.613281 L 55.859375 25.609375 C 55.144531 26.824219 54.660156 28.128906 54.410156 29.515625 C 54.160156 30.90625 54.160156 32.296875 54.40625 33.6875 C 54.585938 34.550781 54.835938 35.394531 55.152344 36.21875 C 55.742188 37.878906 55.636719 39.050781 54.058594 39.972656 Z M 96.902344 10.109375 C 98.4375 9.78125 99.976562 9.792969 101.105469 11.027344 C 101.523438 11.507812 101.832031 12.050781 102.035156 12.65625 C 102.238281 13.261719 102.316406 13.882812 102.269531 14.515625 C 102.226562 15.097656 102.097656 15.660156 101.875 16.199219 C 99.503906 16.183594 97.132812 16.136719 94.796875 16.394531 C 92.453125 16.65625 90.0625 17.183594 88.058594 18.480469 C 86.128906 19.726562 84.496094 22.003906 85.070312 24.40625 C 85.15625 24.765625 85.289062 25.109375 85.464844 25.433594 C 80.867188 27.332031 76.273438 29.234375 71.683594 31.132812 C 66.679688 33.214844 61.648438 35.242188 56.78125 37.628906 C 56.625 36.972656 56.421875 36.328125 56.164062 35.703125 C 55.835938 34.78125 55.628906 33.832031 55.550781 32.855469 C 55.46875 31.882812 55.511719 30.910156 55.6875 29.949219 C 55.859375 28.984375 56.152344 28.058594 56.566406 27.171875 C 56.984375 26.285156 57.503906 25.46875 58.132812 24.71875 C 59.722656 24.074219 61.292969 23.390625 62.878906 22.722656 C 66.875 21.035156 70.914062 19.507812 74.988281 18.007812 C 79.890625 16.203125 84.675781 14.097656 89.589844 12.332031 C 91.976562 11.425781 94.414062 10.683594 96.898438 10.109375 Z M 96.902344 10.109375 " fill-opacity="1" fill-rule="nonzero"/></g><path fill="#000000" d="M 67.207031 111.878906 C 60.945312 111.820312 54.449219 111.839844 48.617188 114.433594 C 46.113281 115.585938 43.890625 117.136719 41.945312 119.09375 C 40 121.046875 38.457031 123.28125 37.316406 125.792969 C 37.152344 125.894531 37.082031 126.039062 37.105469 126.230469 C 37.128906 126.421875 37.234375 126.546875 37.417969 126.605469 C 43.851562 128.4375 51.011719 128.535156 57.113281 125.5 C 62.296875 122.925781 66.40625 118.183594 67.625 112.457031 C 67.664062 112.316406 67.636719 112.183594 67.550781 112.066406 C 67.464844 111.949219 67.351562 111.886719 67.207031 111.878906 Z M 56.691406 124.707031 C 50.914062 127.578125 44.148438 127.519531 38.03125 125.851562 C 39.84375 124.640625 41.554688 123.347656 43.570312 122.4375 C 45.878906 121.398438 48.347656 120.894531 50.816406 120.398438 C 55.382812 119.476562 59.519531 118 63.238281 115.117188 C 63.679688 114.773438 63.050781 114.132812 62.621094 114.464844 C 60.714844 115.957031 58.632812 117.140625 56.375 118.019531 C 53.945312 118.953125 51.375 119.417969 48.851562 120.011719 C 44.710938 120.992188 40.8125 122.789062 37.679688 125.753906 L 37.667969 125.75 C 37.660156 125.75 37.652344 125.75 37.648438 125.746094 C 40.101562 120.90625 44.089844 116.957031 49.144531 114.910156 C 54.65625 112.675781 60.769531 112.710938 66.632812 112.765625 C 65.320312 118.019531 61.507812 122.316406 56.691406 124.707031 Z M 56.691406 124.707031 " fill-opacity="1" fill-rule="nonzero"/><path fill="#000000" d="M 37.542969 115.582031 C 35.664062 112.308594 31.824219 110.683594 28.167969 110.859375 C 28.101562 110.855469 28.050781 110.882812 28.015625 110.9375 C 27.980469 110.996094 27.976562 111.054688 28.011719 111.113281 C 29.550781 114.238281 29.875 117.792969 31.222656 121 C 32.046875 122.957031 33.398438 124.929688 35.5625 125.375 C 35.699219 125.488281 35.898438 125.546875 36.015625 125.445312 C 38.804688 123.027344 39.363281 118.761719 37.542969 115.582031 Z M 35.578125 124.859375 C 34.058594 121.710938 34.65625 117.789062 32.683594 114.863281 C 32.601562 114.738281 32.238281 114.683594 32.347656 114.910156 C 33.925781 118.113281 33.546875 121.945312 35.394531 125.003906 C 32.375 124.097656 31.367188 120.546875 30.617188 117.78125 C 30.257812 116.445312 29.980469 115.089844 29.578125 113.761719 C 29.480469 113.433594 28.65625 111.726562 28.753906 111.523438 C 28.960938 111.097656 30.292969 111.402344 30.75 111.484375 C 33.847656 112.03125 36.785156 114.140625 37.660156 117.269531 C 38.414062 119.972656 37.679688 122.980469 35.578125 124.859375 Z M 35.578125 124.859375 " fill-opacity="1" fill-rule="nonzero"/></svg>